<?xml version="1.0" encoding="UTF-8" standalone="no"?>
<!-- Created with Inkscape (http://www.inkscape.org/) -->

<svg
   width="201.12572mm"
   height="271.0217mm"
   viewBox="0 0 201.12572 271.0217"
   version="1.1"
   id="svg1"
   inkscape:version="1.4.4 (1:1.4.4+202605061432+dcaf3e7d9e)"
   sodipodi:docname="favicon.svg"
   xmlns:inkscape="http://www.inkscape.org/namespaces/inkscape"
   xmlns:sodipodi="http://sodipodi.sourceforge.net/DTD/sodipodi-0.dtd"
   xmlns="http://www.w3.org/2000/svg"
   xmlns:svg="http://www.w3.org/2000/svg">
  <sodipodi:namedview
     id="namedview1"
     pagecolor="#ffffff"
     bordercolor="#000000"
     borderopacity="0.25"
     inkscape:showpageshadow="2"
     inkscape:pageopacity="0.0"
     inkscape:pagecheckerboard="0"
     inkscape:deskcolor="#d1d1d1"
     inkscape:document-units="mm"
     inkscape:zoom="0.57197479"
     inkscape:cx="371.51987"
     inkscape:cy="653.87498"
     inkscape:window-width="1314"
     inkscape:window-height="699"
     inkscape:window-x="0"
     inkscape:window-y="32"
     inkscape:window-maximized="1"
     inkscape:current-layer="layer1" />
  <defs
     id="defs1" />
  <g
     inkscape:label="Layer 1"
     inkscape:groupmode="layer"
     id="layer1"
     transform="translate(-5.0508589,10.137366)">
    <path
       id="path1"
       style="fill:#ffffff;fill-opacity:1;stroke-width:2.87978;stroke-linecap:round;stroke-linejoin:round;paint-order:fill markers stroke"
       d="M 105.61371,-10.137366 C 50.074428,-10.137251 5.0509727,34.886206 5.0508589,90.425488 c -9.54e-5,3.301227 0.1623653,6.600456 0.486792,9.885702 7.7131931,68.36387 59.1163651,111.22134 95.2463791,160.57314 L 152.4646,204.29761 C 176.3306,168.94913 204.97233,135.03409 206.17657,90.425488 206.17646,34.886202 161.153,-10.137256 105.61371,-10.137366 Z"
       sodipodi:nodetypes="ccccccc" />
    <path
       style="fill:#f5bf39;fill-opacity:1"
       d="m 104.95539,248.34843 c 0.191,-0.0764 0.4192,-0.067 0.50712,0.0209 0.0879,0.0879 -0.0684,0.15045 -0.34726,0.13896 -0.30823,-0.0127 -0.37092,-0.0754 -0.15986,-0.15985 z m -2.35166,-1.34062 -0.64144,-0.7276 0.72761,0.64143 c 0.68005,0.59952 0.84894,0.81378 0.64143,0.81378 -0.0474,0 -0.37481,-0.32742 -0.7276,-0.72761 z m -2.92414,-3.175 c -0.32911,-0.41964 -0.31975,-0.429 0.0999,-0.0999 0.25466,0.19972 0.46302,0.40808 0.46302,0.46302 0,0.21776 -0.21727,0.0776 -0.56291,-0.36313 z m 10.3525,0.36313 c 0,-0.0549 0.20836,-0.2633 0.46302,-0.46302 0.41964,-0.32911 0.429,-0.31975 0.0999,0.0999 -0.34564,0.44073 -0.56291,0.58089 -0.56291,0.36313 z m 2.51354,-2.81052 c 0.26339,-0.29104 0.53842,-0.52917 0.61118,-0.52917 0.0728,0 -0.0832,0.23813 -0.3466,0.52917 -0.26339,0.29104 -0.53842,0.52916 -0.61118,0.52916 -0.0728,0 0.0832,-0.23812 0.3466,-0.52916 z m 4.36562,-4.8624 c 0,-0.0549 0.20836,-0.2633 0.46302,-0.46302 0.41965,-0.32911 0.42901,-0.31975 0.0999,0.0999 -0.34565,0.44073 -0.56292,0.58088 -0.56292,0.36312 z M 67.19047,206.83524 c 0.0127,-0.30822 0.0754,-0.37092 0.15986,-0.15985 0.0764,0.191 0.067,0.4192 -0.0209,0.50712 -0.0879,0.0879 -0.15045,-0.0684 -0.13897,-0.34727 z m 0.0209,-2.49149 c 0,-0.3638 0.0601,-0.51263 0.13345,-0.33073 0.0734,0.1819 0.0734,0.47956 0,0.66146 -0.0734,0.1819 -0.13345,0.0331 -0.13345,-0.33073 z m 23.24156,-7.50823 c 0,-0.0549 0.20836,-0.2633 0.46302,-0.46302 0.41964,-0.32911 0.429,-0.31975 0.0999,0.0999 -0.34564,0.44073 -0.56291,0.58088 -0.56291,0.36312 z M 71.9321,194.18969 c 0,-0.0549 0.20836,-0.2633 0.46302,-0.46302 0.41964,-0.32911 0.429,-0.31975 0.0999,0.0999 -0.34564,0.44073 -0.56291,0.58089 -0.56291,0.36313 z m 2.91041,-2.91042 c 0,-0.0549 0.20836,-0.2633 0.46302,-0.46302 0.41965,-0.32911 0.42901,-0.31975 0.0999,0.0999 -0.34565,0.44073 -0.56292,0.58088 -0.56292,0.36312 z m 39.54276,-31.98083 -1.04588,-1.12448 1.12448,1.04588 c 0.61846,0.57524 1.12448,1.08125 1.12448,1.12448 0,0.20018 -0.23042,-1.3e-4 -1.20308,-1.04588 z m -21.58484,-0.66146 c -0.32911,-0.41964 -0.31975,-0.429 0.0999,-0.0999 0.25466,0.19972 0.46302,0.40808 0.46302,0.46303 0,0.21776 -0.21728,0.0776 -0.56292,-0.36313 z m -3.14125,-2.84427 c -0.64268,-0.65485 -1.10898,-1.19063 -1.03622,-1.19063 0.0728,0 0.65812,0.53578 1.3008,1.19063 0.64268,0.65484 1.10898,1.19062 1.03622,1.19062 -0.0728,0 -0.65812,-0.53578 -1.3008,-1.19062 z m 92.60417,-11.37708 c 0.34177,-0.36381 0.68094,-0.66146 0.7537,-0.66146 0.0728,0 -0.14735,0.29765 -0.48912,0.66146 -0.34178,0.3638 -0.68094,0.66145 -0.7537,0.66145 -0.0728,0 0.14734,-0.29765 0.48912,-0.66145 z m -49.3543,-24.46346 c 0.25816,-0.28527 0.60404,-0.49363 0.76861,-0.46302 0.16458,0.0306 0.27473,-0.0774 0.24479,-0.23997 -0.0299,-0.16258 0.26686,-0.5793 0.65956,-0.92604 0.66529,-0.58742 0.67975,-0.58981 0.21187,-0.0351 -1.94366,2.30433 4.16034,-2.46809 8.4513,-6.60767 1.9193,-1.85158 3.58499,-3.28033 3.70153,-3.175 0.11654,0.10534 0.14173,0.0678 0.056,-0.0835 -0.0857,-0.15127 0.50051,-1.04424 1.30279,-1.98438 0.80228,-0.94013 2.23553,-2.75015 3.18501,-4.02225 0.95193,-1.27539 1.85041,-2.23621 2.00297,-2.14193 0.15803,0.0977 0.19816,0.044 0.0936,-0.12522 -0.15942,-0.257931 1.04084,-2.431391 1.3427,-2.431391 0.062,0 0.0278,0.13746 -0.076,0.30546 -0.11791,0.19078 -0.0725,0.23358 0.12099,0.11401 0.17038,-0.1053 0.2428,-0.29983 0.16093,-0.43229 -0.2279,-0.36876 0.39202,-1.34923 0.72354,-1.14434 0.1784,0.11026 0.21715,0.0592 0.0995,-0.13119 -0.10749,-0.17392 0.32198,-1.21566 0.97127,-2.35599 0.64017,-1.12431 1.31762,-2.42965 1.50543,-2.90074 0.18781,-0.47109 0.44535,-0.79233 0.57232,-0.71386 0.12696,0.0785 0.15244,-0.0616 0.0566,-0.31135 -0.12756,-0.33242 -0.0804,-0.39601 0.1762,-0.23745 0.2199,0.13591 0.28685,0.11371 0.17975,-0.0596 -0.24466,-0.39587 0.8927,-3.00562 1.22136,-2.8025 0.15735,0.0972 0.19212,0.0386 0.0824,-0.13892 -0.21478,-0.34753 1.43726,-5.62278 1.70841,-5.4552 0.0964,0.0596 0.12366,-0.21547 0.0605,-0.61125 -0.0905,-0.56719 -0.0544,-0.63554 0.17015,-0.32272 0.21524,0.29982 0.24256,0.17653 0.1117,-0.50416 -0.11162,-0.58063 -0.078,-0.84221 0.0944,-0.73561 0.16381,0.10123 0.2192,-0.0881 0.14275,-0.48803 -0.0755,-0.39515 -0.002,-0.65345 0.18613,-0.65345 0.17107,0 0.23684,-0.12005 0.14616,-0.26678 -0.0907,-0.14673 0.0187,-1.18853 0.24298,-2.31511 0.69509,-3.49083 0.98014,-6.64842 0.98506,-10.91186 0.006,-4.794491 -0.31638,-7.575457 -1.42418,-12.303126 -0.44328,-1.89177 -0.80615,-3.79677 -0.80638,-4.233333 -2.2e-4,-0.436562 -0.057,-0.630795 -0.12609,-0.431628 -0.0691,0.199167 -0.35065,-0.276685 -0.6256,-1.057448 -0.27496,-0.780763 -0.44028,-1.57498 -0.36739,-1.764926 0.0729,-0.189946 0.034,-0.284454 -0.0865,-0.210016 -0.30276,0.187114 -1.6795,-3.243107 -1.45727,-3.630857 0.0988,-0.172402 0.0811,-0.22411 -0.0393,-0.114907 -0.28817,0.261356 -3.10128,-5.046212 -2.87157,-5.41788 0.0996,-0.161162 0.0548,-0.210841 -0.10256,-0.113612 -0.34813,0.21515 -1.46098,-1.613728 -1.21959,-2.004294 0.0981,-0.158771 0.0537,-0.209408 -0.10029,-0.114251 -0.15209,0.09399 -0.46814,-0.121544 -0.70234,-0.478977 -0.46713,-0.71293 -0.58904,-1.307627 -0.13704,-0.668496 0.24949,0.352778 0.26864,0.352778 0.17234,0 -0.0596,-0.218281 -0.25684,-0.396875 -0.43835,-0.396875 -0.45273,0 -1.1022,-0.937222 -0.89791,-1.295749 0.0914,-0.160463 0.0694,-0.204052 -0.049,-0.09687 -0.28167,0.255009 -1.48932,-1.38389 -1.27513,-1.730462 0.0904,-0.146286 0.0404,-0.189359 -0.1111,-0.09572 -0.32534,0.201074 -0.87421,-0.392351 -0.98738,-1.067533 -0.0439,-0.261896 -0.2018,-0.450081 -0.35091,-0.41819 -0.38254,0.08182 -2.73771,-2.563171 -2.55113,-2.865069 0.0845,-0.136804 -0.004,-0.216018 -0.19667,-0.176033 -0.19271,0.03999 -0.32063,-0.07613 -0.28425,-0.258028 0.0364,-0.181901 -0.0827,-0.300963 -0.26458,-0.264583 -0.1819,0.03638 -0.30096,-0.08268 -0.26458,-0.264583 0.0364,-0.181901 -0.0827,-0.300964 -0.26459,-0.264584 -0.1819,0.03638 -0.29801,-0.09153 -0.25802,-0.284249 0.04,-0.192718 -0.0392,-0.281219 -0.17604,-0.196669 -0.32979,0.203823 -1.92589,-1.150698 -1.72979,-1.467983 0.084,-0.135862 4e-4,-0.214306 -0.1857,-0.174321 -0.18611,0.03999 -0.34378,-0.09454 -0.3504,-0.298951 -0.007,-0.204409 -0.23975,-0.405075 -0.51808,-0.445926 -0.27834,-0.04085 -0.81412,-0.402159 -1.19063,-0.802909 -0.42617,-0.453604 -0.48483,-0.584894 -0.1554,-0.347823 0.48383,0.348187 0.49918,0.342492 0.17909,-0.06648 -0.19254,-0.246012 -0.49019,-0.397543 -0.66145,-0.336735 -0.17127,0.06081 -0.72811,-0.253951 -1.23743,-0.699463 -0.50932,-0.445512 -0.74745,-0.721377 -0.52917,-0.613033 0.21828,0.108344 0.30413,0.09508 0.19078,-0.02948 -0.11335,-0.124557 -0.36322,-0.249528 -0.55527,-0.277715 -0.5473,-0.08033 -3.34243,-2.00798 -3.21368,-2.216305 0.0634,-0.102616 -0.0283,-0.190964 -0.20378,-0.196329 -0.58838,-0.01799 -5.21801,-2.896279 -5.01625,-3.118663 0.10958,-0.120789 0.0557,-0.137207 -0.11984,-0.03649 -0.1755,0.100722 -1.48519,-0.409885 -2.91042,-1.134682 -1.42523,-0.724797 -2.4942,-1.323898 -2.3755,-1.331336 0.11871,-0.0074 0.44613,0.109728 0.72761,0.260369 0.28147,0.150641 0.51177,0.204097 0.51177,0.118791 0,-0.235421 -1.88787,-0.97426 -2.05707,-0.805058 -0.0813,0.08128 0.011,0.147792 0.20499,0.147792 0.19402,0 0.29419,0.05858 0.22258,0.130188 -0.0716,0.0716 -1.13324,-0.272138 -2.3592,-0.763871 -1.22595,-0.491733 -2.90825,-1.106151 -3.73844,-1.365374 -0.8336,-0.260287 -1.43723,-0.58813 -1.34818,-0.732217 0.0903,-0.146135 0.0263,-0.17751 -0.1455,-0.07132 -0.16871,0.10427 -2.24094,-0.288794 -4.60494,-0.873473 -7.43067,-1.837795 -10.89026,-2.245047 -19.11487,-2.250148 -6.12987,-0.0038 -7.68824,0.08058 -10.9802,0.594539 -4.56509,0.712727 -7.64606,1.377544 -11.28713,2.435556 -1.4785,0.429617 -2.90725,0.709984 -3.175,0.623038 -0.34271,-0.111284 -0.38613,-0.0856 -0.14668,0.08676 0.24447,0.175962 0.0465,0.332815 -0.70367,0.557577 -3.68876,1.10518 -11.84985,5.200861 -16.54277,8.302071 -6.19624,4.094639 -13.38383,10.670719 -18.29918,16.742308 -8.22427,10.15886 -14.73263,22.866111 -18.64259,36.398724 -1.18374,4.09701 -1.17609,4.05694 -0.72225,3.77869 0.1819,-0.11152 0.11972,0.0898 -0.13818,0.44741 -0.25789,0.3576 -0.59908,0.98368 -0.75819,1.39129 -0.94669,2.42521 -0.10506,-2.25189 1.39212,-7.73626 C 17.7292,52.663976 22.96875,41.701974 30.65882,31.438558 45.24804,11.96731 66.12521,-0.849579 90.08808,-5.046193 c 5.60638,-0.981842 9.49328,-1.307145 15.57833,-1.303781 9.48596,0.0052 17.43315,1.142076 25.79688,3.690193 10.11398,3.081359 21.21343,8.851016 29.20234,15.179809 1.59086,1.260274 1.9969,1.709096 1.71979,1.900972 -0.2624,0.181687 -0.2101,0.208675 0.18901,0.09755 0.43541,-0.121233 1.15711,0.419167 3.42205,2.562356 5.46721,5.173327 10.3153,11.48807 13.2907,17.31143 8.68366,16.99538 7.16285,37.718623 -4.01612,54.725393 -2.71022,4.12311 -4.78799,6.64104 -8.74047,10.59212 -6.16045,6.158251 -12.75658,10.775051 -22.10272,15.470231 -3.83182,1.92498 -11.32893,5.29077 -11.78489,5.29077 -0.11186,0 0.008,-0.2334 0.26601,-0.51866 z m 32.07254,-52.712201 c -0.0845,-0.21106 -0.14716,-0.14837 -0.15986,0.15986 -0.0115,0.27891 0.051,0.43518 0.13897,0.34726 0.0879,-0.0879 0.0973,-0.31612 0.0209,-0.50712 z m 0.003,-4.641706 c -0.0671,-0.257431 -0.12638,-0.110869 -0.13177,0.325694 -0.005,0.436562 0.0495,0.647188 0.12197,0.468056 0.0725,-0.179131 0.0769,-0.536319 0.01,-0.79375 z m -0.27271,-4.37066 c -0.0734,-0.181901 -0.13345,-0.03307 -0.13345,0.330729 0,0.363802 0.06,0.51263 0.13345,0.330729 0.0734,-0.181901 0.0734,-0.479557 0,-0.661458 z m -1.84657,-9.243881 c -0.0845,-0.211066 -0.14716,-0.148372 -0.15985,0.159853 -0.0115,0.278915 0.051,0.435184 0.13896,0.347265 0.0879,-0.08792 0.0973,-0.316121 0.0209,-0.507118 z m -6.76303,-14.94565 c -0.3119,-0.536368 -0.38722,-0.36469 -0.1319,0.300656 0.0907,0.236459 0.22071,0.374189 0.28884,0.306068 0.0681,-0.06812 -0.003,-0.341148 -0.15694,-0.606724 z M 127.03748,111.475 c 0,-0.65484 0.0516,-0.92273 0.11466,-0.59531 0.0631,0.32742 0.0631,0.8632 0,1.19062 -0.0631,0.32742 -0.11466,0.0595 -0.11466,-0.59531 z m 10.578,-0.66146 c 0.003,-0.58208 0.0571,-0.78905 0.1204,-0.45993 0.0633,0.32911 0.0609,0.80536 -0.005,1.05833 -0.0662,0.25296 -0.118,-0.0163 -0.11506,-0.5984 z m -127.57501,-3.9908 c 0.0127,-0.30822 0.0754,-0.37092 0.15986,-0.15985 0.0764,0.191 0.067,0.4192 -0.0209,0.50712 -0.0879,0.0879 -0.15045,-0.0684 -0.13897,-0.34727 z m 114.65085,-0.97014 -0.50403,-0.59531 0.59532,0.50403 c 0.32742,0.27721 0.59531,0.54511 0.59531,0.59531 0,0.21174 -0.21294,0.0554 -0.6866,-0.50403 z M 9.77589,104.17691 c 0.0127,-0.30822 0.0754,-0.37092 0.15985,-0.15985 0.0764,0.19099 0.067,0.4192 -0.0209,0.50712 -0.0879,0.0879 -0.15046,-0.0684 -0.13897,-0.34727 z m 124.57784,-0.30868 -0.64144,-0.72761 0.72761,0.64144 c 0.40018,0.35279 0.7276,0.68021 0.7276,0.7276 0,0.20751 -0.21426,0.0386 -0.81377,-0.64143 z M 9.55714,100.23021 c 0.003,-0.582091 0.0571,-0.789061 0.12041,-0.459941 0.0633,0.329121 0.0609,0.805371 -0.005,1.058341 -0.0662,0.25296 -0.118,-0.0163 -0.11507,-0.5984 z m 190.23008,-4.101041 c 0,-0.50933 0.0544,-0.71769 0.121,-0.46302 0.0666,0.25466 0.0666,0.67138 0,0.92604 -0.0666,0.25466 -0.121,0.0463 -0.121,-0.46302 z m -89.09368,-1.5875 c -0.33354,-0.14333 -0.38245,-0.22739 -0.13229,-0.22739 0.21828,0 0.635,0.10232 0.92604,0.22739 0.33355,0.14333 0.38245,0.22739 0.1323,0.22739 -0.21829,0 -0.635,-0.10233 -0.92605,-0.22739 z m -1.83683,-0.5045 c -0.0815,-0.13195 0.09,-0.17759 0.38126,-0.10143 0.6178,0.16156 0.69589,0.34134 0.14827,0.34134 -0.20969,0 -0.44798,-0.10796 -0.52953,-0.23991 z M 9.55714,92.292709 c 0.003,-0.58209 0.0571,-0.78906 0.12041,-0.45994 0.0633,0.32912 0.0609,0.80537 -0.005,1.05834 -0.0662,0.25296 -0.118,-0.0163 -0.11507,-0.5984 z m 0.23964,-3.83646 c 0,-0.3638 0.06,-0.51263 0.13345,-0.33073 0.0734,0.1819 0.0734,0.47956 0,0.66146 -0.0734,0.1819 -0.13345,0.0331 -0.13345,-0.33073 z m 189.99044,-0.26458 c 0,-0.50933 0.0544,-0.71769 0.121,-0.46302 0.0666,0.25466 0.0666,0.67138 0,0.92604 -0.0666,0.25466 -0.121,0.0463 -0.121,-0.46302 z m -70.44055,0.42927 c 0,-0.0549 0.20836,-0.2633 0.46302,-0.46302 0.41964,-0.32911 0.429,-0.31975 0.0999,0.0999 -0.34564,0.44073 -0.56291,0.58089 -0.56291,0.36313 z m 0.46302,-1.39825 c 0.1819,-0.0734 0.47956,-0.0734 0.66146,0 0.1819,0.0734 0.0331,0.13345 -0.33073,0.13345 -0.3638,0 -0.51263,-0.0601 -0.33073,-0.13345 z m -1.57096,-0.2701 c 0.19099,-0.0764 0.4192,-0.067 0.50711,0.0209 0.0879,0.0879 -0.0684,0.15045 -0.34726,0.13896 -0.30823,-0.0127 -0.37092,-0.0754 -0.15985,-0.15985 z m -1.5875,-0.26458 c 0.19099,-0.0764 0.4192,-0.067 0.50711,0.0209 0.0879,0.0879 -0.0684,0.15045 -0.34726,0.13896 -0.30823,-0.0127 -0.37092,-0.0754 -0.15985,-0.15985 z m -1.5875,-0.26458 c 0.19099,-0.0764 0.4192,-0.067 0.50711,0.0209 0.0879,0.0879 -0.0684,0.15046 -0.34726,0.13897 -0.30823,-0.0127 -0.37092,-0.0754 -0.15985,-0.15985 z M 10.04047,85.920659 c 0.0127,-0.30823 0.0754,-0.37092 0.15986,-0.15985 0.0764,0.19099 0.067,0.4192 -0.0209,0.50712 -0.0879,0.0879 -0.15045,-0.0684 -0.13897,-0.34727 z m 113.43576,0.23818 c 0.19099,-0.0764 0.4192,-0.067 0.50711,0.0209 0.0879,0.0879 -0.0684,0.15045 -0.34726,0.13896 -0.30823,-0.0127 -0.37092,-0.0754 -0.15985,-0.15985 z m -1.5875,-0.26458 c 0.19099,-0.0764 0.4192,-0.067 0.50711,0.0209 0.0879,0.0879 -0.0684,0.15045 -0.34726,0.13896 -0.30823,-0.0127 -0.37092,-0.0754 -0.15985,-0.15985 z m -6.08542,-1.05833 c 0.191,-0.0764 0.4192,-0.067 0.50712,0.0209 0.0879,0.0879 -0.0684,0.15046 -0.34727,0.13897 -0.30822,-0.0127 -0.37092,-0.0754 -0.15985,-0.15985 z m 15.61042,-0.26459 c 0.19099,-0.0764 0.4192,-0.067 0.50711,0.0209 0.0879,0.0879 -0.0684,0.15045 -0.34726,0.13896 -0.30823,-0.0127 -0.37092,-0.0754 -0.15985,-0.15985 z m -2.38125,-0.26458 c 0.19099,-0.0764 0.4192,-0.067 0.50711,0.0209 0.0879,0.0879 -0.0684,0.15045 -0.34726,0.13896 -0.30823,-0.0127 -0.37092,-0.0754 -0.15985,-0.15985 z m -2.39779,-0.25907 c 0.1819,-0.0734 0.47956,-0.0734 0.66146,0 0.1819,0.0734 0.0331,0.13345 -0.33073,0.13345 -0.3638,0 -0.51263,-0.0601 -0.33073,-0.13345 z m 8.52176,-0.94925 c 1.09642,-1.16819 1.33397,-1.37824 1.33397,-1.17957 0,0.0425 -0.56555,0.60801 -1.25677,1.25677 l -1.25677,1.17957 z m -10.90301,0.68466 c 0.1819,-0.0734 0.47956,-0.0734 0.66146,0 0.1819,0.0734 0.0331,0.13346 -0.33073,0.13346 -0.3638,0 -0.51263,-0.0601 -0.33073,-0.13346 z m -2.10013,-0.27009 c 0.191,-0.0764 0.4192,-0.067 0.50712,0.0209 0.0879,0.0879 -0.0684,0.15045 -0.34727,0.13896 -0.30822,-0.0127 -0.37092,-0.0754 -0.15985,-0.15985 z m -2.38125,-0.26458 c 0.191,-0.0764 0.4192,-0.067 0.50712,0.0209 0.0879,0.0879 -0.0684,0.15046 -0.34727,0.13897 -0.30822,-0.0127 -0.37092,-0.0754 -0.15985,-0.15985 z m -6.56497,-0.33282 c 0,-0.13693 0.11769,-0.32171 0.26155,-0.41061 0.14998,-0.0927 0.19434,0.0135 0.10398,0.24897 -0.17589,0.45836 -0.36553,0.54223 -0.36553,0.16164 z m 4.4483,0.0682 c 0.191,-0.0764 0.4192,-0.067 0.50712,0.0209 0.0879,0.0879 -0.0684,0.15045 -0.34726,0.13896 -0.30823,-0.0127 -0.37092,-0.0754 -0.15986,-0.15985 z m -2.38125,-0.26458 c 0.191,-0.0764 0.4192,-0.067 0.50712,0.0209 0.0879,0.0879 -0.0684,0.15045 -0.34726,0.13896 -0.30823,-0.0127 -0.37092,-0.0754 -0.15986,-0.15985 z m 83.94342,-1.29652 c 0.0127,-0.30822 0.0754,-0.37092 0.15985,-0.15985 0.0764,0.191 0.067,0.4192 -0.0209,0.50712 -0.0879,0.0879 -0.15045,-0.0683 -0.13896,-0.34727 z m -51.61464,-1.56545 c 0,-0.21828 0.0468,-0.39687 0.10398,-0.39687 0.0572,0 0.17252,0.17859 0.25628,0.39687 0.0838,0.21828 0.037,0.39688 -0.10398,0.39688 -0.14095,0 -0.25628,-0.1786 -0.25628,-0.39688 z m -11.92049,-2.18281 -0.9118,-0.99219 0.99219,0.9118 c 0.9235,0.84868 1.11383,1.07258 0.91179,1.07258 -0.0442,0 -0.4907,-0.44649 -0.99218,-0.99219 z m 13.24341,0.89229 c 0,-0.0549 0.20836,-0.2633 0.46302,-0.46302 0.41964,-0.32911 0.429,-0.31975 0.0999,0.0999 -0.34564,0.44072 -0.56291,0.58088 -0.56291,0.36312 z m -33.66823,-1.13367 c 0.1819,-0.0734 0.47955,-0.0734 0.66146,0 0.1819,0.0734 0.0331,0.13346 -0.33073,0.13346 -0.36381,0 -0.51263,-0.0601 -0.33073,-0.13346 z m 2.11666,-0.26458 c 0.1819,-0.0734 0.47956,-0.0734 0.66146,0 0.1819,0.0734 0.0331,0.13345 -0.33073,0.13345 -0.3638,0 -0.51263,-0.0601 -0.33073,-0.13345 z m 33.06557,-0.36727 c 0.32338,-0.3403 0.63914,-0.56581 0.70169,-0.50113 0.0625,0.0647 -0.20203,0.3431 -0.58796,0.61872 l -0.70169,0.50114 z m -30.93236,0.0972 c 0.19099,-0.0764 0.4192,-0.067 0.50711,0.0209 0.0879,0.0879 -0.0684,0.15046 -0.34726,0.13897 -0.30823,-0.0127 -0.37092,-0.0754 -0.15985,-0.15985 z m 2.10013,-0.25908 c 0.1819,-0.0734 0.47955,-0.0734 0.66146,0 0.1819,0.0734 0.0331,0.13346 -0.33073,0.13346 -0.36381,0 -0.51263,-0.0601 -0.33073,-0.13346 z m 2.11666,-0.26458 c 0.1819,-0.0734 0.47956,-0.0734 0.66146,0 0.1819,0.0734 0.0331,0.13345 -0.33073,0.13345 -0.3638,0 -0.51263,-0.0601 -0.33073,-0.13345 z m -10.58774,-0.38676 c 0.17948,-0.18082 0.39297,-0.26211 0.47443,-0.18065 0.0815,0.0815 -0.0654,0.2294 -0.32632,0.32876 -0.37708,0.14359 -0.40747,0.1132 -0.14811,-0.14811 z m 12.96899,0.12219 c 0.1819,-0.0734 0.47956,-0.0734 0.66146,0 0.1819,0.0734 0.0331,0.13345 -0.33073,0.13345 -0.3638,0 -0.51263,-0.0601 -0.33073,-0.13345 z m 2.39779,-0.2701 c 0.191,-0.0764 0.4192,-0.067 0.50712,0.0209 0.0879,0.0879 -0.0684,0.15045 -0.34727,0.13896 -0.30822,-0.0127 -0.37092,-0.0754 -0.15985,-0.15985 z m 2.10013,-0.25907 c 0.1819,-0.0734 0.47956,-0.0734 0.66146,0 0.1819,0.0734 0.0331,0.13345 -0.33073,0.13345 -0.3638,0 -0.51263,-0.06 -0.33073,-0.13345 z m 16.99948,-0.35394 c -0.23847,-0.15411 -0.2711,-0.25809 -0.0818,-0.26053 0.17331,-0.002 0.3887,0.11501 0.47863,0.26053 0.20302,0.32849 0.11143,0.32849 -0.39687,0 z m -22.53919,-1.50365 c 0.19099,-0.0764 0.4192,-0.067 0.50711,0.0209 0.0879,0.0879 -0.0684,0.15046 -0.34726,0.13897 -0.30823,-0.0127 -0.37092,-0.0754 -0.15985,-0.15985 z m 4.81211,-0.71445 c 0,-0.0558 0.23829,-0.16374 0.52953,-0.23991 0.29124,-0.0762 0.46281,-0.0305 0.38126,0.10144 -0.14241,0.23043 -0.91079,0.34725 -0.91079,0.13847 z m 17.87638,-1.03445 c 0.0994,-0.26094 0.24731,-0.40779 0.32877,-0.32632 0.0815,0.0815 1.7e-4,0.29495 -0.18066,0.47443 -0.2613,0.25936 -0.29169,0.22897 -0.14811,-0.14811 z m -18.4393,-0.38547 c -0.32911,-0.41964 -0.31975,-0.429 0.0999,-0.0999 0.44072,0.34564 0.58088,0.56291 0.36312,0.56291 -0.0549,0 -0.2633,-0.20836 -0.46302,-0.46302 z M 13.98045,71.273069 c 0.15142,-0.28294 0.40609,-0.59525 0.56592,-0.69404 0.15983,-0.0988 0.086,0.13272 -0.16414,0.51443 -0.5296,0.80827 -0.80384,0.93086 -0.40178,0.17961 z m 141.0308,-0.37922 c 0,-0.0549 0.20836,-0.2633 0.46302,-0.46302 0.41965,-0.3291 0.42901,-0.31975 0.0999,0.0999 -0.34565,0.44073 -0.56292,0.58089 -0.56292,0.36312 z M 18.75084,70.629269 c 0,-0.0549 0.20836,-0.2633 0.46302,-0.46302 0.41964,-0.32911 0.429,-0.31975 0.0999,0.0999 -0.34564,0.44072 -0.56291,0.58088 -0.56291,0.36312 z m -3.3073,-1.22302 c 0.26339,-0.29104 0.53842,-0.52917 0.61119,-0.52917 0.0728,0 -0.0832,0.23813 -0.3466,0.52917 -0.26339,0.29104 -0.53842,0.52917 -0.61118,0.52917 -0.0728,0 0.0832,-0.23813 0.34659,-0.52917 z m 132.68855,-1.32292 c 0,-0.43656 0.0984,-0.79375 0.21876,-0.79375 0.12031,0 0.16633,0.35719 0.10226,0.79375 -0.0641,0.43657 -0.16252,0.79375 -0.21876,0.79375 -0.0562,0 -0.10226,-0.35718 -0.10226,-0.79375 z M 18.88313,65.966669 c 0.26339,-0.29105 0.53842,-0.52917 0.61118,-0.52917 0.0728,0 -0.0832,0.23812 -0.3466,0.52917 -0.26339,0.29104 -0.53842,0.52916 -0.61118,0.52916 -0.0728,0 0.0832,-0.23812 0.3466,-0.52916 z m 39.9365,-1.205225 c -0.49318,-0.395126 -0.48994,-0.400012 0.0817,-0.122982 0.32742,0.158668 0.59531,0.34383 0.59531,0.411471 0,0.202464 -0.13722,0.143996 -0.67704,-0.288489 z M 31.66581,64.198425 c 0.191,-0.07643 0.4192,-0.06703 0.50712,0.02089 0.0879,0.08792 -0.0684,0.150453 -0.34727,0.138964 -0.30822,-0.0127 -0.37092,-0.07539 -0.15985,-0.159852 z m 1.5875,-0.264584 c 0.191,-0.07643 0.4192,-0.06703 0.50712,0.02089 0.0879,0.08792 -0.0684,0.150453 -0.34727,0.138965 -0.30822,-0.0127 -0.37092,-0.07539 -0.15985,-0.159853 z m 2.10013,-0.259071 c 0.1819,-0.0734 0.47956,-0.0734 0.66146,0 0.1819,0.0734 0.0331,0.133452 -0.33073,0.133452 -0.3638,0 -0.51263,-0.06005 -0.33073,-0.133452 z m 4.89983,-0.0081 c 0.25743,-0.06708 0.61462,-0.06267 0.79375,0.0098 0.17913,0.07247 -0.0315,0.127362 -0.46806,0.121969 -0.43656,-0.0054 -0.58312,-0.06469 -0.32569,-0.131773 z m -17.2691,-0.459487 c 0,-0.07276 0.23812,-0.259732 0.52917,-0.415493 0.29104,-0.155761 0.52916,-0.22367 0.52916,-0.15091 0,0.07276 -0.23812,0.259733 -0.52916,0.415494 -0.29105,0.15576 -0.52917,0.22367 -0.52917,0.150909 z m 46.00375,-0.61393 c -0.32911,-0.419644 -0.31975,-0.429003 0.0999,-0.0999 0.25466,0.199719 0.46302,0.408079 0.46302,0.463021 0,0.217761 -0.21728,0.0776 -0.56292,-0.363126 z m 7.54924,-0.396875 c -0.50363,-0.594832 -0.50359,-0.594938 0.0466,-0.131715 0.30285,0.254979 0.64936,0.374042 0.77002,0.264584 0.12066,-0.109458 0.13374,-0.05019 0.0291,0.131714 -0.24902,0.43272 -0.25758,0.43004 -0.84569,-0.264583 z m 28.09822,0.374826 c -0.0749,-0.121267 0.0319,-0.220486 0.23733,-0.220486 0.20548,0 0.31228,0.09922 0.23733,0.220486 -0.075,0.121267 -0.18175,0.220486 -0.23733,0.220486 -0.0556,0 -0.16238,-0.09922 -0.23733,-0.220486 z m 85.63752,-1.896205 c 0,-0.654844 0.0516,-0.922735 0.11466,-0.595313 0.0631,0.327422 0.0631,0.863203 0,1.190625 -0.0631,0.327422 -0.11466,0.05953 -0.11466,-0.595312 z M 32.72414,59.435925 c 0.191,-0.07643 0.4192,-0.06703 0.50712,0.02089 0.0879,0.08792 -0.0684,0.150453 -0.34726,0.138964 -0.30823,-0.0127 -0.37092,-0.07539 -0.15986,-0.159852 z m 12.17084,0 c 0.19099,-0.07643 0.4192,-0.06703 0.50711,0.02089 0.0879,0.08792 -0.0684,0.150453 -0.34726,0.138964 -0.30823,-0.0127 -0.37092,-0.07539 -0.15985,-0.159852 z m 79.22675,-0.745301 c 0.003,-0.582084 0.0571,-0.789055 0.1204,-0.459936 0.0633,0.329118 0.0609,0.805368 -0.005,1.058333 -0.0662,0.252965 -0.118,-0.01631 -0.11506,-0.598397 z m -89.82662,0.486229 c 0.1819,-0.0734 0.47955,-0.0734 0.66146,0 0.1819,0.0734 0.0331,0.133453 -0.33073,0.133453 -0.36381,0 -0.51263,-0.06005 -0.33073,-0.133453 z m 8.99583,0 c 0.1819,-0.0734 0.47956,-0.0734 0.66146,0 0.1819,0.0734 0.0331,0.133453 -0.33073,0.133453 -0.3638,0 -0.51263,-0.06005 -0.33073,-0.133453 z m -5.67888,-0.285167 c 0.84206,-0.05266 2.15174,-0.05218 2.91042,0.0011 0.75867,0.05326 0.0697,0.09635 -1.53102,0.09576 -1.60073,-5.97e-4 -2.22146,-0.04418 -1.3794,-0.09684 z m 152.65016,-1.127104 c 0,-0.509323 0.0545,-0.717682 0.121,-0.463021 0.0666,0.254661 0.0666,0.67138 0,0.926042 -0.0665,0.254661 -0.121,0.0463 -0.121,-0.463021 z m -132.58694,0.06615 c -0.0326,-0.632959 0.34175,-0.798369 0.65603,-0.289849 0.11224,0.181609 0.073,0.233935 -0.0967,0.129052 -0.15699,-0.09703 -0.34017,0.03341 -0.40707,0.289849 -0.0925,0.354821 -0.12896,0.323977 -0.15231,-0.129052 z m 28.82978,-0.220486 c 0.0127,-0.308225 0.0754,-0.37092 0.15985,-0.159853 0.0764,0.190996 0.067,0.419199 -0.0209,0.507118 -0.0879,0.08792 -0.15045,-0.06835 -0.13896,-0.347265 z m 0.72325,0.238183 c 0.191,-0.07643 0.4192,-0.06703 0.50712,0.02089 0.0879,0.08792 -0.0684,0.150453 -0.34727,0.138964 -0.30822,-0.0127 -0.37092,-0.07539 -0.15985,-0.159852 z m 1.14972,-0.61301 c 0,-0.363802 0.0601,-0.51263 0.13345,-0.330729 0.0734,0.181901 0.0734,0.479557 0,0.661458 -0.0734,0.181901 -0.13345,0.03307 -0.13345,-0.330729 z m 6.85828,0.110243 c 0.0127,-0.308224 0.0754,-0.370919 0.15985,-0.159852 0.0764,0.190996 0.067,0.419199 -0.0209,0.507118 -0.0879,0.08792 -0.15045,-0.06835 -0.13896,-0.347266 z m 28.48355,0.121509 c 0.17948,-0.180821 0.39297,-0.262115 0.47444,-0.180653 0.0815,0.08146 -0.0654,0.229406 -0.32632,0.328765 -0.37709,0.143586 -0.40748,0.113195 -0.14812,-0.148112 z m -30.30494,-0.89321 c 0.005,-0.436563 0.0647,-0.583125 0.13177,-0.325694 0.0671,0.257431 0.0627,0.614619 -0.01,0.79375 -0.0725,0.179132 -0.12737,-0.03149 -0.12197,-0.468056 z M 59.7275,55.184898 c -0.3291,-0.419644 -0.31975,-0.429002 0.0999,-0.09989 0.44073,0.345643 0.58089,0.562915 0.36312,0.562915 -0.0549,0 -0.2633,-0.208359 -0.46302,-0.463021 z m 28.38595,-0.330729 c 0,-0.363802 0.0601,-0.51263 0.13345,-0.330729 0.0734,0.181901 0.0734,0.479557 0,0.661458 -0.0734,0.181901 -0.13345,0.03307 -0.13345,-0.330729 z m 7.65202,-0.418923 c 0.0127,-0.308225 0.0754,-0.37092 0.15986,-0.159853 0.0764,0.190996 0.067,0.419199 -0.0209,0.507118 -0.0879,0.08792 -0.15045,-0.06835 -0.13897,-0.347265 z m -2.11666,-0.264584 c 0.0127,-0.308224 0.0754,-0.370919 0.15985,-0.159852 0.0764,0.190996 0.067,0.419199 -0.0209,0.507118 -0.0879,0.08792 -0.15045,-0.06835 -0.13896,-0.347266 z m 17.97078,0.05445 c 0,-0.05494 0.20836,-0.263302 0.46302,-0.463021 0.41964,-0.329108 0.429,-0.319749 0.0999,0.09989 -0.34564,0.440729 -0.56291,0.580887 -0.56291,0.363126 z m 78.33755,-0.319029 c 0.0127,-0.308225 0.0754,-0.370919 0.15985,-0.159853 0.0764,0.190997 0.067,0.4192 -0.0209,0.507119 -0.0879,0.08792 -0.15046,-0.06835 -0.13897,-0.347266 z M 87.82797,52.583158 c 0.0127,-0.308224 0.0754,-0.370919 0.15986,-0.159852 0.0764,0.190996 0.067,0.419199 -0.0209,0.507118 -0.0879,0.08792 -0.15045,-0.06835 -0.13897,-0.347266 z m 6.10631,-0.63941 c 0,-0.363802 0.0601,-0.51263 0.13345,-0.330729 0.0734,0.181901 0.0734,0.479558 0,0.661459 -0.0734,0.181901 -0.13345,0.03307 -0.13345,-0.33073 z m 30.19279,-1.058333 c 0,-0.654844 0.0516,-0.922734 0.11466,-0.595312 0.0631,0.327422 0.0631,0.863203 0,1.190625 -0.0631,0.327422 -0.11466,0.05953 -0.11466,-0.595313 z M 87.56339,50.466492 c 0.0127,-0.308225 0.0754,-0.37092 0.15985,-0.159853 0.0764,0.190996 0.067,0.419199 -0.0209,0.507118 -0.0879,0.08792 -0.15046,-0.06835 -0.13897,-0.347265 z M 57.71131,49.69479 c 0.003,-0.582083 0.0571,-0.789054 0.12041,-0.459936 0.0633,0.329119 0.0609,0.805369 -0.005,1.058333 -0.0662,0.252965 -0.11801,-0.01631 -0.11507,-0.598397 z m 27.47083,0.507118 c 0.0127,-0.308224 0.0754,-0.370919 0.15985,-0.159852 0.0764,0.190996 0.067,0.419199 -0.0209,0.507118 -0.0879,0.08792 -0.15046,-0.06835 -0.13897,-0.347266 z m 11.37708,-0.264583 c 0.0127,-0.308225 0.0754,-0.370919 0.15986,-0.159853 0.0764,0.190997 0.067,0.4192 -0.0209,0.507118 -0.0879,0.08792 -0.15045,-0.06835 -0.13897,-0.347265 z m -2.38125,-0.264583 c 0.0127,-0.308225 0.0754,-0.37092 0.15986,-0.159853 0.0764,0.190996 0.067,0.419199 -0.0209,0.507118 -0.0879,0.08792 -0.15045,-0.06835 -0.13897,-0.347265 z m -9.26041,-1.058334 c 0.0127,-0.308224 0.0754,-0.370919 0.15985,-0.159852 0.0764,0.190996 0.067,0.419199 -0.0209,0.507118 -0.0879,0.08792 -0.15045,-0.06835 -0.13896,-0.347266 z m 2.38125,-0.264583 c 0.0127,-0.308225 0.0754,-0.370919 0.15985,-0.159853 0.0764,0.190997 0.067,0.4192 -0.0209,0.507118 -0.0879,0.08792 -0.15045,-0.06835 -0.13896,-0.347265 z m 7.16464,-0.903993 c 0,-0.363802 0.0601,-0.51263 0.13345,-0.330729 0.0734,0.181901 0.0734,0.479557 0,0.661458 -0.0734,0.181901 -0.13345,0.03307 -0.13345,-0.330729 z m 18.21447,-0.264584 -1.19063,-0.185105 1.25678,-0.03974 c 0.69122,-0.02186 1.25677,0.07932 1.25677,0.224844 0,0.145521 -0.0298,0.246701 -0.0661,0.224845 -0.0364,-0.02186 -0.60193,-0.123036 -1.25677,-0.224845 z M 61.67948,46.998864 c 0.25466,-0.06655 0.67138,-0.06655 0.92604,0 0.25466,0.06655 0.0463,0.121 -0.46302,0.121 -0.50932,0 -0.71768,-0.05445 -0.46302,-0.121 z m 7.14375,0 c 0.25466,-0.06655 0.67138,-0.06655 0.92604,0 0.25466,0.06655 0.0463,0.121 -0.46302,0.121 -0.50932,0 -0.71768,-0.05445 -0.46302,-0.121 z m 50.80504,-9.69e-4 c 0.25743,-0.06708 0.61462,-0.06267 0.79375,0.0098 0.17913,0.07247 -0.0315,0.127361 -0.46806,0.121969 -0.43656,-0.0054 -0.58312,-0.06469 -0.32569,-0.131773 z M 58.50952,46.733311 c 0.25743,-0.06708 0.61462,-0.06267 0.79375,0.0098 0.17913,0.07248 -0.0315,0.127362 -0.46806,0.12197 -0.43656,-0.0054 -0.58312,-0.06469 -0.32569,-0.131774 z m 64.15642,0.0081 c 0.1819,-0.0734 0.47956,-0.0734 0.66146,0 0.1819,0.0734 0.0331,0.133452 -0.33073,0.133452 -0.3638,0 -0.51263,-0.06005 -0.33073,-0.133452 z M 87.03422,46.233132 c 0.0127,-0.308224 0.0754,-0.370919 0.15986,-0.159852 0.0764,0.190996 0.067,0.419199 -0.0209,0.507118 -0.0879,0.08792 -0.15045,-0.06835 -0.13897,-0.347266 z m -2.64583,-1.058333 c 0.0127,-0.308225 0.0754,-0.370919 0.15985,-0.159853 0.0764,0.190996 0.067,0.4192 -0.0209,0.507118 -0.0879,0.08792 -0.15046,-0.06835 -0.13897,-0.347265 z m 10.33964,-0.110243 c 0,-0.363802 0.0601,-0.51263 0.13345,-0.330729 0.0734,0.181901 0.0734,0.479557 0,0.661458 -0.0734,0.181901 -0.13345,0.03307 -0.13345,-0.330729 z m -7.9375,-1.322917 c 0,-0.363802 0.0601,-0.51263 0.13345,-0.330729 0.0734,0.181901 0.0734,0.479557 0,0.661458 -0.0734,0.181901 -0.13345,0.03307 -0.13345,-0.330729 z m -2.66672,-0.15434 c 0.0127,-0.308225 0.0754,-0.370919 0.15985,-0.159853 0.0764,0.190996 0.067,0.4192 -0.0209,0.507118 -0.0879,0.08792 -0.15045,-0.06835 -0.13896,-0.347265 z m 10.8688,-0.903993 c 0,-0.363802 0.0601,-0.51263 0.13345,-0.330729 0.0734,0.181901 0.0734,0.479557 0,0.661458 -0.0734,0.181901 -0.13345,0.03307 -0.13345,-0.330729 z m 2.88953,-0.418924 c 0.0127,-0.308224 0.0754,-0.370919 0.15985,-0.159852 0.0764,0.190996 0.067,0.419199 -0.0209,0.507118 -0.0879,0.08792 -0.15046,-0.06835 -0.13897,-0.347266 z M 82.51542,41.525078 c 0,-0.05494 0.20836,-0.263302 0.46302,-0.463021 0.41964,-0.329108 0.429,-0.319749 0.0999,0.0999 -0.34564,0.440729 -0.56291,0.580887 -0.56291,0.363126 z m 3.98964,-0.319029 c 0.0127,-0.308225 0.0754,-0.370919 0.15985,-0.159853 0.0764,0.190996 0.067,0.4192 -0.0209,0.507118 -0.0879,0.08792 -0.15045,-0.06835 -0.13896,-0.347265 z m 11.62078,-0.491503 c 0,-0.209693 0.10795,-0.447983 0.2399,-0.529532 0.13195,-0.08155 0.1776,0.09002 0.10144,0.38126 -0.16156,0.617799 -0.34134,0.695893 -0.34134,0.148272 z m -2.88953,-0.566831 c 0.0127,-0.308224 0.0754,-0.370919 0.15985,-0.159852 0.0764,0.190996 0.067,0.419199 -0.0209,0.507118 -0.0879,0.08792 -0.15045,-0.06835 -0.13896,-0.347266 z m -8.99584,-1.058333 c 0.0127,-0.308224 0.0754,-0.370919 0.15986,-0.159852 0.0764,0.190996 0.067,0.419199 -0.0209,0.507118 -0.0879,0.08792 -0.15045,-0.06835 -0.13897,-0.347266 z m 7.89659,-2.68993 -0.64143,-0.727605 0.7276,0.641433 c 0.68006,0.599516 0.84894,0.813776 0.64143,0.813776 -0.0474,0 -0.37481,-0.327422 -0.7276,-0.727604 z m -5.53622,-0.992188 c 0.34177,-0.363802 0.68094,-0.661458 0.7537,-0.661458 0.0728,0 -0.14735,0.297656 -0.48912,0.661458 -0.34178,0.363802 -0.68094,0.661458 -0.7537,0.661458 -0.0728,0 0.14734,-0.297656 0.48912,-0.661458 z m 2.82951,-1.860444 c -0.40829,-0.359204 -0.63741,-0.653098 -0.50914,-0.653098 0.12827,0 0.51285,0.297657 0.85463,0.661459 0.79074,0.841703 0.61595,0.837473 -0.34549,-0.0084 z M 55.7925,31.735494 c 0,-0.05494 0.20836,-0.263301 0.46302,-0.463021 0.41965,-0.329107 0.42901,-0.319749 0.0999,0.0999 -0.34565,0.440729 -0.56292,0.580887 -0.56292,0.363126 z m -0.2032,-2.545938 c 0,-0.509323 0.0544,-0.717683 0.121,-0.463021 0.0666,0.254661 0.0666,0.67138 0,0.926041 -0.0666,0.254662 -0.121,0.0463 -0.121,-0.46302 z m 2.77848,-0.561999 c 0.17948,-0.180821 0.39297,-0.262115 0.47443,-0.180653 0.0815,0.08146 -0.0654,0.229406 -0.32632,0.328766 -0.37708,0.143585 -0.40747,0.113194 -0.14811,-0.148113 z m 51.02787,-0.985014 c -0.0762,-0.123252 0.24422,-0.569736 0.71199,-0.992187 l 0.85049,-0.768092 -0.75371,0.835469 c -0.68128,0.755196 -0.7067,0.847578 -0.26458,0.961496 0.41238,0.106252 0.41892,0.130842 0.0417,0.156718 -0.24608,0.01688 -0.50974,-0.07015 -0.58591,-0.193404 z m 2.17433,-0.221228 c 0.19099,-0.07643 0.4192,-0.06703 0.50711,0.02089 0.0879,0.08792 -0.0684,0.150453 -0.34726,0.138964 -0.30823,-0.0127 -0.37092,-0.07539 -0.15985,-0.159852 z M 63.2274,22.917734 c 0.19265,-0.320804 0.40723,-0.526328 0.47684,-0.456721 0.0696,0.06961 -0.088,0.332083 -0.35028,0.58328 -0.4556,0.436374 -0.46124,0.430735 -0.12656,-0.126559 z m 51.03802,-0.711329 c 0,-0.05719 0.18478,-0.17489 0.41062,-0.261553 0.23546,-0.09035 0.34166,-0.046 0.24896,0.103984 -0.15537,0.251408 -0.65958,0.371858 -0.65958,0.157569 z M 56.12381,21.119764 c 0.003,-0.582083 0.0571,-0.789055 0.12041,-0.459936 0.0633,0.329118 0.0609,0.805368 -0.005,1.058333 -0.0662,0.252965 -0.11801,-0.01631 -0.11507,-0.598397 z m 61.3375,0.507118 c 0.0127,-0.308225 0.0754,-0.370919 0.15985,-0.159852 0.0764,0.190996 0.067,0.419199 -0.0209,0.507118 -0.0879,0.08792 -0.15045,-0.06835 -0.13896,-0.347266 z m -1.07922,-1.565451 c 0.34177,-0.363802 0.68094,-0.661459 0.7537,-0.661459 0.0728,0 -0.14735,0.297657 -0.48912,0.661459 -0.34178,0.363802 -0.68094,0.661458 -0.7537,0.661458 -0.0728,0 0.14734,-0.297656 0.48912,-0.661458 z m 1.3438,-1.080382 c 0.0127,-0.308225 0.0754,-0.37092 0.15985,-0.159853 0.0764,0.190996 0.067,0.419199 -0.0209,0.507118 -0.0879,0.08792 -0.15046,-0.06835 -0.13897,-0.347265 z"
       id="path8" />
    <path
       style="fill:#dd9c26;fill-opacity:1"
       d="m 187.74847,43.233707 c -0.11509,-0.440093 -0.0806,-0.543395 0.11568,-0.347056 0.15375,0.15375 0.22749,0.435721 0.16387,0.626602 -0.0661,0.198158 -0.18599,0.07822 -0.27955,-0.279546 z"
       id="path51" />
    <path
       style="fill:#dd9c26;fill-opacity:1"
       d="m 190.24261,56.441665 c 0,-0.363802 0.0601,-0.51263 0.13345,-0.330729 0.0734,0.181901 0.0734,0.479557 0,0.661458 -0.0734,0.181901 -0.13345,0.03307 -0.13345,-0.330729 z"
       id="path50" />
    <path
       style="fill:#dd9c26;fill-opacity:1"
       d="m 190.24261,62.262499 c 0,-0.363803 0.0601,-0.512631 0.13345,-0.33073 0.0734,0.181901 0.0734,0.479558 0,0.661459 -0.0734,0.181901 -0.13345,0.03307 -0.13345,-0.330729 z"
       id="path49" />
    <path
       style="fill:#dd9c26;fill-opacity:1"
       d="m 199.48214,84.862329 c 0.0127,-0.30823 0.0754,-0.37092 0.15985,-0.15986 0.0764,0.191 0.067,0.4192 -0.0209,0.50712 -0.0879,0.0879 -0.15046,-0.0683 -0.13897,-0.34726 z"
       id="path48" />
    <path
       style="fill:#dd9c26;fill-opacity:1"
       d="m 110.56125,94.351949 c -0.80036,-0.21296 -1.49462,-0.42579 -1.54279,-0.47296 -0.0482,-0.0472 0.0438,-0.33125 0.20438,-0.63129 0.28482,-0.53219 0.32258,-0.52232 1.5428,0.4035 1.34993,1.02424 1.53056,1.17308 1.36106,1.1215 -0.0606,-0.0185 -0.76508,-0.20779 -1.56545,-0.42075 z"
       id="path47" />
    <path
       style="fill:#dd9c26;fill-opacity:1"
       d="m 199.8278,92.160419 c 0,-1.81901 0.0423,-2.56315 0.0939,-1.65365 0.0517,0.90951 0.0517,2.39779 0,3.30729 -0.0517,0.90951 -0.0939,0.16537 -0.0939,-1.65364 z"
       id="path46" />
    <path
       style="fill:#dd9c26;fill-opacity:1"
       d="m 199.48214,99.414409 c 0.0127,-0.30822 0.0754,-0.37092 0.15985,-0.15985 0.0764,0.19099 0.067,0.4192 -0.0209,0.50712 -0.0879,0.0879 -0.15046,-0.0684 -0.13897,-0.34727 z"
       id="path45" />
    <path
       style="fill:#dd9c26;fill-opacity:1"
       d="m 171.15084,103.40521 c 0.34177,-0.3638 0.68094,-0.66146 0.7537,-0.66146 0.0728,0 -0.14735,0.29766 -0.48912,0.66146 -0.34178,0.3638 -0.68094,0.66146 -0.7537,0.66146 -0.0728,0 0.14734,-0.29766 0.48912,-0.66146 z"
       id="path44" />
    <path
       style="fill:#dd9c26;fill-opacity:1"
       d="m 134.57618,118.49882 c 2.14747,-2.4483 3.4957,-6.23791 3.0971,-8.7053 -0.79752,-4.93677 -5.54721,-8.99424 -13.70339,-11.706261 -2.37597,-0.79003 -3.94619,-1.57745 -7.98468,-4.00408 -2.76489,-1.66135 -5.03107,-3.16057 -5.03595,-3.3316 -0.005,-0.17103 0.32254,-1.05248 0.7276,-1.95879 0.40506,-0.90631 0.73648,-1.82038 0.73648,-2.03126 0,-0.53656 0.44257,-0.45529 8.42694,1.54745 l 6.95526,1.74461 1.43702,-1.22768 c 0.79037,-0.67523 1.43703,-1.33229 1.43703,-1.46013 0,-0.12785 -0.32743,-0.23787 -0.72761,-0.24449 -0.40018,-0.007 -4.29948,-0.63171 -8.6651,-1.38907 -7.20461,-1.24987 -7.94375,-1.42587 -8.00516,-1.90618 -0.16465,-1.28771 -0.16631,-1.28768 9.64636,-0.14889 5.0943,0.59121 9.60704,1.0718 10.02829,1.06796 0.60517,-0.005 1.25754,-0.49592 3.10821,-2.33659 l 2.34229,-2.32961 -1.54854,-1.46296 c -3.00191,-2.836 -3.41041,-3.12428 -4.42714,-3.12428 -0.90881,0 -12.64639,1.33985 -16.30369,1.86108 -2.77904,0.39606 -2.91041,0.372 -2.91041,-0.53313 0,-0.59924 0.143,-0.82299 0.59531,-0.93143 0.89202,-0.21386 7.44281,-1.36011 12.23698,-2.1412 2.32833,-0.37935 4.39236,-0.73747 4.58673,-0.79583 0.21041,-0.0632 -0.28666,-0.64093 -1.22857,-1.42797 l -1.58197,-1.32186 -7.61771,1.84663 c -4.18973,1.01565 -7.63411,1.81903 -7.65417,1.78528 -0.0201,-0.0338 -0.25032,-0.65668 -0.51169,-1.38428 -0.26138,-0.72761 -0.70611,-1.72835 -0.9883,-2.22388 -0.30591,-0.5372 -0.4085,-0.96451 -0.25409,-1.05834 0.14244,-0.0865 3.17429,-1.88377 6.73745,-3.993824 l 6.47847,-3.836458 0.18923,-1.930126 c 0.10407,-1.06157 0.12831,-1.991047 0.0539,-2.065504 -0.0745,-0.07446 -1.84512,1.103754 -3.93481,2.618249 -2.08968,1.514495 -5.34723,3.841255 -7.23901,5.170579 l -3.43958,2.416954 -0.5713,-0.69805 -0.5713,-0.69806 2.55918,-2.010145 c 1.40754,-1.105581 4.90029,-3.899973 7.76166,-6.20976 l 5.20248,-4.199612 0.14593,-1.885805 c 0.0802,-1.037192 0.18646,-2.637189 0.23602,-3.55555 l 0.0901,-1.669746 -2.39929,0.186526 c -5.10828,0.397127 -4.57611,0.148229 -7.06895,3.306134 -3.91738,4.96251 -9.72397,12.10255 -9.96188,12.249589 -0.27632,0.170776 -1.37576,-0.553472 -1.37576,-0.906272 0,-0.136107 0.98804,-1.587871 2.19565,-3.226143 1.2076,-1.638271 3.52932,-4.78537 5.15937,-6.993553 1.63005,-2.208183 2.96373,-4.099456 2.96373,-4.202828 0,-0.289359 -4.08759,0.107559 -4.18727,0.406597 -0.0483,0.144838 -1.87041,3.121377 -4.04917,6.614532 l -3.96139,6.351189 -1.24327,-0.629278 c -0.68381,-0.346102 -1.7454,-0.779427 -2.35909,-0.962944 -0.6137,-0.183517 -1.07074,-0.406612 -1.01564,-0.495768 0.0551,-0.08916 0.95486,-3.444332 1.99947,-7.455949 l 1.89928,-7.293848 -1.34862,-1.781761 c -0.76068,-1.004999 -1.39627,-1.630352 -1.45794,-1.434454 -0.0601,0.191019 -0.53914,2.907151 -1.06444,6.035848 -0.5253,3.128698 -1.20215,7.02251 -1.5041,8.652914 l -0.549,2.964372 -0.83202,-0.158106 c -0.45761,-0.08696 -0.84802,-0.170769 -0.86758,-0.186247 -0.0196,-0.01548 0.19341,-1.992672 0.47327,-4.393766 0.27986,-2.401094 0.77924,-6.839646 1.10973,-9.86345 l 0.60091,-5.497825 -1.95544,-2.175092 c -1.07549,-1.1963 -2.10855,-2.333568 -2.29569,-2.527261 -0.35152,-0.363846 -0.63528,-0.106482 -4.07977,3.700337 l -1.11429,1.231501 0.54672,4.853916 c 0.3007,2.669654 0.78164,6.752093 1.06874,9.072087 0.69945,5.651969 0.70101,5.617372 -0.26044,5.758483 -0.95667,0.140409 -0.83639,0.606011 -2.54296,-9.844363 -0.67727,-4.147343 -1.28042,-7.592973 -1.34033,-7.656953 -0.0599,-0.06398 -0.3122,0.174144 -0.56065,0.529166 -0.24845,0.355023 -0.84207,1.077805 -1.31916,1.606183 l -0.86744,0.960687 1.85133,7.48702 c 1.01822,4.11786 1.82294,7.504586 1.78826,7.526056 -0.99349,0.61504 -4.31356,1.939633 -4.46987,1.783323 -0.24437,-0.244377 -0.7774,-1.105487 -4.95334,-8.002148 L 72.1759,47.31354 70.92955,47.138282 c -0.6855,-0.09639 -1.6375,-0.185689 -2.11557,-0.198438 -1.07906,-0.02877 -1.50293,-0.741377 4.54989,7.649178 3.72255,5.160275 4.81228,6.847984 4.63525,7.178768 -0.53418,0.998127 -1.01853,0.753395 -2.8373,-1.433636 -1.64352,-1.976302 -10.4597,-12.948928 -10.50386,-13.073116 -0.0339,-0.0952 -7.05919,-0.652173 -7.10693,-0.563443 -0.0257,0.04773 0.0572,1.654152 0.18423,3.569831 l 0.2309,3.483053 7.63587,6.119465 c 4.19972,3.365706 7.68994,6.206975 7.75604,6.313925 0.0661,0.10696 -0.0984,0.48419 -0.36545,0.8383 l -0.48565,0.64383 -2.20564,-1.52715 c -1.2131,-0.839934 -4.51165,-3.192601 -7.33011,-5.22815 -2.81846,-2.035549 -5.15599,-3.665447 -5.19452,-3.621995 -0.0385,0.04345 -0.01,0.971972 0.0643,2.063378 l 0.13441,1.984375 3.38481,1.956126 c 1.86165,1.07587 4.85988,2.921336 6.66272,4.101046 l 3.2779,2.14491 -0.67921,1.23159 -0.67922,1.23158 -2.77547,-1.97814 C 56.63408,62.516547 48.83932,59.290898 40.31439,58.911372 c -8.30192,-0.369598 -17.15577,2.840099 -22.6562,8.213317 -1.54497,1.50924 -3.4992,3.81221 -3.91983,4.61932 -0.69376,1.33122 -0.52676,0.208 0.49472,-3.32739 C 17.66479,56.539256 23.02536,45.37478 29.70123,36.20104 33.38922,31.133132 34.72002,29.588527 39.5052,24.821958 49.76218,14.604871 62.43258,7.612826 76.43001,4.445341 82.90806,2.979421 86.37293,2.621118 94.0248,2.625863 c 6.0488,0.0038 7.72242,0.09431 10.91909,0.590803 14.56744,2.262571 26.52036,7.323887 36.70591,15.542663 6.50389,5.248016 11.43408,10.98314 15.36735,17.876286 5.06805,8.881894 7.57315,18.168176 7.55557,28.008134 -0.0118,6.61412 -0.94169,12.43072 -3.00302,18.78468 -4.27547,13.17892 -13.90272,25.948351 -26.53448,35.194881 l -1.5875,1.16206 z"
       id="path43" />
    <path
       id="path42"
       style="fill:#ffffff;fill-opacity:1"
       d="m 117.82903,18.830008 c -0.14647,-0.0059 -0.5642,0.423022 -1.54874,1.481047 l -1.70946,1.83658 -2.20348,-0.979268 c -1.21173,-0.538509 -2.28526,-0.977869 -2.3859,-0.976685 -10e-4,1.4e-5 -0.003,2.68e-4 -0.004,5.17e-4 -9.8e-4,3.26e-4 -0.003,0.0015 -0.004,0.0021 -0.0647,0.05245 0.37379,0.889735 0.99993,1.90531 0.64634,1.048334 1.17513,2.027585 1.17513,2.175578 0,0.147993 -0.67795,0.953946 -1.50637,1.791105 -0.82843,0.837159 -1.43866,1.589582 -1.35599,1.672249 0.0827,0.08267 0.90944,0.02702 1.8371,-0.123507 2.81063,-0.456055 2.6807,-0.519093 3.78736,1.839165 0.54631,1.164167 1.02901,2.116666 1.0728,2.116666 0.0438,0 0.21373,-0.803671 0.37776,-1.785937 0.5275,-3.158792 0.556,-3.241146 1.11414,-3.241146 0.28713,0 1.37884,-0.196598 2.42621,-0.437183 l 1.90428,-0.437699 -2.20142,-1.043347 -2.2009,-1.042831 0.16692,-1.760616 c 0.0917,-0.968322 0.22312,-2.117804 0.29249,-2.554366 0.0436,-0.27432 0.0538,-0.434189 -0.0341,-0.437699 z m -61.43914,0.296106 -0.1664,0.831474 c -0.0915,0.457315 -0.1664,1.577327 -0.1664,2.488737 v 1.656746 l -2.39262,0.591695 c -1.31608,0.325191 -2.32151,0.662801 -2.23397,0.750342 0.0875,0.08754 1.0753,0.527128 2.1947,0.977201 l 2.03501,0.818555 -0.0847,1.966288 c -0.0466,1.081632 -0.14365,2.175164 -0.21601,2.429826 -0.25957,0.91351 0.41098,0.433493 1.75596,-1.256771 0.75266,-0.945886 1.53037,-1.719791 1.72806,-1.719791 0.19769,0 1.25905,0.410011 2.35852,0.911055 1.06081,0.483429 1.93606,0.819704 1.99626,0.769979 l 5.1e-4,-5.17e-4 c 1.9e-4,-2.26e-4 8.7e-4,-0.0013 10e-4,-0.0015 1.3e-4,-2.52e-4 4e-4,-0.0013 5.1e-4,-0.0015 1.7e-4,-5.56e-4 4.7e-4,-0.002 5.2e-4,-0.0026 0,-0.08107 -0.53579,-1.007102 -1.19063,-2.057756 -0.65484,-1.050654 -1.19062,-1.988109 -1.19062,-2.083077 0,-0.09497 0.66547,-0.957206 1.47898,-1.916162 0.81351,-0.958955 1.42622,-1.79632 1.36167,-1.860868 -0.0645,-0.06455 -1.11339,0.120499 -2.33112,0.411344 -1.21772,0.290844 -2.29373,0.441942 -2.39107,0.335897 -0.0973,-0.106045 -0.71059,-1.058044 -1.36271,-2.115633 z m 91.93547,48.173285 c -0.10681,0.0226 -0.19327,0.90836 -0.19327,1.99213 0,1.10098 -0.11471,2.21569 -0.25476,2.47737 -0.15727,0.29387 -1.06865,0.71086 -2.38384,1.09089 -1.17116,0.33841 -2.03871,0.6921 -1.92805,0.78599 0.11067,0.0939 0.79633,0.37888 1.52394,0.63304 0.7276,0.25416 1.6635,0.59121 2.07998,0.74931 l 0.75757,0.28784 -0.108,2.4691 c -0.10088,2.30639 0.068,3.08643 0.4346,2.00608 0.0864,-0.25467 0.72815,-1.10613 1.42627,-1.89188 l 1.26969,-1.42833 2.07739,0.69866 c 1.14268,0.38419 2.12318,0.65237 2.1792,0.59635 4.3e-4,-4.4e-4 0.002,-0.002 0.002,-0.002 0.0425,-0.0748 -0.45619,-0.96771 -1.11879,-2.00143 l -1.21905,-1.90169 1.49345,-1.84847 c 0.82139,-1.01662 1.43093,-1.91098 1.35444,-1.98747 -0.0765,-0.0765 -1.16885,0.15766 -2.42724,0.52038 l -2.28823,0.65939 -1.23662,-1.94768 c -0.68033,-1.07138 -1.32643,-1.95224 -1.43557,-1.95751 -0.002,-8e-5 -0.003,-3.6e-4 -0.005,0 z" />
    <path
       style="fill:#558d44;fill-opacity:1"
       d="m 37.00709,161.03688 c -1.61501,-0.16585 -4.59957,-0.94811 -5.46477,-1.43231 -0.459,-0.25689 -0.91178,-0.38983 -1.00617,-0.29544 -0.0944,0.0944 -0.0934,-0.0321 0.002,-0.28111 0.11121,-0.2898 0.021,-0.51133 -0.2506,-0.61556 -0.23338,-0.0896 -0.42432,-0.39362 -0.42432,-0.67571 0,-0.28209 -0.28503,-0.79791 -0.6334,-1.14628 -0.34837,-0.34837 -0.56665,-0.70015 -0.48507,-0.78173 0.0816,-0.0816 -0.0104,-0.14832 -0.20445,-0.14832 -0.19403,0 -0.27525,-0.0775 -0.1805,-0.17228 0.0947,-0.0948 -0.0342,-0.34171 -0.28663,-0.54879 -0.30622,-0.25123 -0.32686,-0.31943 -0.062,-0.20497 0.26482,0.11445 0.24418,0.0462 -0.062,-0.20498 -0.2524,-0.20708 -0.38138,-0.45404 -0.28663,-0.54879 0.0947,-0.0948 0.0263,-0.17228 -0.15202,-0.17228 -0.17836,0 -0.2534,-0.11472 -0.16674,-0.25493 0.0867,-0.14021 -0.075,-0.48748 -0.35921,-0.7717 -0.28422,-0.28422 -0.44732,-0.58622 -0.36243,-0.67111 0.0849,-0.0849 -0.004,-0.15434 -0.19844,-0.15434 -0.19403,0 -0.27525,-0.0775 -0.1805,-0.17228 0.0947,-0.0948 -0.0342,-0.3417 -0.28663,-0.54878 -0.2524,-0.20708 -0.30025,-0.29505 -0.10633,-0.19548 0.26151,0.13427 0.24267,-0.0315 -0.0729,-0.64184 -0.23403,-0.45258 -0.54855,-0.82287 -0.69892,-0.82287 -0.15038,0 -0.19982,-0.11906 -0.10989,-0.26458 0.0899,-0.14552 0.0304,-0.26459 -0.13229,-0.26459 -0.16269,0 -0.21106,-0.13712 -0.10748,-0.30472 0.10358,-0.1676 -0.0312,-0.46525 -0.29954,-0.66146 -0.26833,-0.1962 -0.38282,-0.35673 -0.25444,-0.35673 0.12839,0 0.002,-0.18743 -0.28016,-0.4165 -0.28247,-0.22907 -0.33499,-0.3393 -0.11671,-0.24496 0.31802,0.13745 0.3134,0.10192 -0.0232,-0.17882 -0.23106,-0.19269 -0.36998,-0.49911 -0.30873,-0.68094 0.0612,-0.18182 -0.0696,-0.40004 -0.2908,-0.48492 -0.22119,-0.0849 -0.3378,-0.32206 -0.25913,-0.52707 0.0787,-0.20501 -0.0404,-0.44314 -0.26459,-0.52917 -0.24147,-0.0927 -0.34218,-0.32695 -0.24707,-0.5748 0.10627,-0.27692 0.0559,-0.3537 -0.149,-0.22707 -0.2772,0.17132 -0.42916,-0.14066 -0.34088,-0.69982 0.0172,-0.10914 -0.0947,-0.19843 -0.24886,-0.19843 -0.15411,0 -0.20662,-0.11907 -0.11668,-0.26459 0.0899,-0.14552 0.0304,-0.26458 -0.13229,-0.26458 -0.1627,0 -0.21107,-0.13712 -0.10749,-0.30472 0.10359,-0.1676 -0.0295,-0.46402 -0.29579,-0.65873 -0.26628,-0.1947 -0.4092,-0.42893 -0.31761,-0.52052 0.0916,-0.0916 -0.007,-0.34054 -0.22018,-0.55323 -0.21269,-0.21269 -0.31906,-0.49617 -0.23637,-0.62996 0.0827,-0.13379 0.028,-0.24326 -0.12156,-0.24326 -0.14954,0 -0.20375,-0.17759 -0.12045,-0.39464 0.0863,-0.22501 -0.0303,-0.46439 -0.27137,-0.55689 -0.23254,-0.0892 -0.35693,-0.26884 -0.27642,-0.39911 0.0805,-0.13027 0.024,-0.23686 -0.12551,-0.23686 -0.14954,0 -0.20336,-0.17859 -0.1196,-0.39687 0.0838,-0.21828 0.0135,-0.39688 -0.15621,-0.39688 -0.16968,0 -0.23492,-0.11906 -0.14498,-0.26458 0.0899,-0.14552 0.0247,-0.26458 -0.14499,-0.26458 -0.16967,0 -0.23824,-0.1831 -0.15236,-0.40689 0.0902,-0.2352 -0.0159,-0.4729 -0.25149,-0.56331 -0.22419,-0.086 -0.34498,-0.31965 -0.26842,-0.51915 0.0765,-0.19951 0.0168,-0.36274 -0.1327,-0.36274 -0.14954,0 -0.19831,-0.11906 -0.10838,-0.26458 0.0899,-0.14552 0.0247,-0.26458 -0.14498,-0.26458 -0.17011,0 -0.23782,-0.1842 -0.15094,-0.41062 0.10295,-0.26828 0.0513,-0.34495 -0.14894,-0.22118 -0.20471,0.12651 -0.2504,0.0432 -0.13757,-0.25084 0.0931,-0.24248 0.0411,-0.44028 -0.11564,-0.44028 -0.15652,0 -0.21368,-0.18478 -0.12701,-0.41062 0.0987,-0.25733 0.0493,-0.34373 -0.13233,-0.23145 -0.19594,0.1211 -0.22865,-0.0138 -0.10092,-0.41626 0.13727,-0.43249 0.10107,-0.5411 -0.13229,-0.39688 -0.23336,0.14422 -0.26956,0.0356 -0.13229,-0.39687 0.12773,-0.40245 0.095,-0.53737 -0.10092,-0.41627 -0.18168,0.11228 -0.23108,0.0259 -0.13233,-0.23145 0.0891,-0.23214 0.018,-0.41062 -0.16363,-0.41062 -0.18158,0 -0.25271,-0.17848 -0.16363,-0.41061 0.10295,-0.26828 0.0513,-0.34495 -0.14894,-0.22118 -0.20471,0.12651 -0.2504,0.0432 -0.13757,-0.25084 0.0929,-0.24216 0.0466,-0.44028 -0.10294,-0.44028 -0.14954,0 -0.2034,-0.11084 -0.11967,-0.2463 0.0837,-0.13547 0.0364,-0.31788 -0.10513,-0.40535 -0.14154,-0.0875 -0.18278,-0.35336 -0.0916,-0.59086 0.12044,-0.31385 0.0689,-0.37195 -0.18881,-0.2127 -0.25907,0.16011 -0.30902,0.10056 -0.18556,-0.22118 0.0931,-0.24248 0.0411,-0.44028 -0.11564,-0.44028 -0.15652,0 -0.21751,-0.17478 -0.13554,-0.3884 0.082,-0.21362 0.0404,-0.45556 -0.0924,-0.53764 -0.13281,-0.0821 -0.1744,-0.32402 -0.0924,-0.53764 0.082,-0.21362 0.003,-0.3884 -0.1747,-0.3884 -0.19356,0 -0.26807,-0.21294 -0.18528,-0.52954 0.0834,-0.31897 0.0318,-0.4636 -0.12977,-0.36374 -0.17013,0.10515 -0.19913,-0.052 -0.0793,-0.42964 0.12875,-0.40563 0.0956,-0.53772 -0.10394,-0.41439 -0.17482,0.10804 -0.30893,-0.0386 -0.33262,-0.36375 -0.0218,-0.29962 -0.0516,-0.6936 -0.0661,-0.87551 -0.0146,-0.1819 -0.1271,-0.40429 -0.2501,-0.4942 -0.123,-0.0899 -0.23589,-0.59593 -0.25087,-1.12448 -0.015,-0.52855 -0.1062,-0.961 -0.2027,-0.961 -0.0965,0 -0.11517,-0.31536 -0.0415,-0.70079 0.0949,-0.49638 0.0425,-0.64426 -0.17959,-0.50699 -0.22711,0.14036 -0.26352,-0.006 -0.13206,-0.52931 0.13892,-0.55352 0.10134,-0.67356 -0.16028,-0.51187 -0.26161,0.16168 -0.2992,0.0417 -0.16027,-0.51187 0.12845,-0.51179 0.0928,-0.66829 -0.122,-0.53553 -0.21786,0.13464 -0.25019,-0.055 -0.1146,-0.67239 0.14396,-0.65545 0.11005,-0.81124 -0.14259,-0.6551 -0.24787,0.15319 -0.28709,0.0281 -0.15554,-0.49607 0.11237,-0.44774 0.0682,-0.70092 -0.12239,-0.70092 -0.18408,0 -0.23629,-0.24708 -0.13636,-0.64524 0.0891,-0.35488 0.0355,-0.72341 -0.1191,-0.81894 -0.16543,-0.10224 -0.20861,-0.50347 -0.10497,-0.97536 0.12652,-0.57602 0.0895,-0.74813 -0.13165,-0.61147 -0.22168,0.137 -0.27288,-0.11318 -0.1831,-0.89464 0.0839,-0.73053 0.0321,-1.02763 -0.15874,-0.9097 -0.19153,0.11837 -0.23275,-0.13675 -0.12719,-0.7872 0.0859,-0.52929 0.0443,-1.03149 -0.0925,-1.11602 -0.27224,-0.16825 -0.31057,-0.93654 -0.30301,-6.07372 0.004,-2.398431 -0.0551,-3.079181 -0.19364,-2.248961 -0.15127,0.90643 -0.20818,0.44856 -0.23843,-1.91823 -0.0276,-2.15666 0.0518,-3.10885 0.25901,-3.10885 0.21276,0 0.24489,-0.61739 0.11163,-2.14505 -0.14575,-1.67083 -0.11493,-2.10044 0.13939,-1.94326 0.25182,0.15564 0.28578,-0.14465 0.14848,-1.31291 -0.13078,-1.11267 -0.0971,-1.46471 0.12672,-1.32636 0.22306,0.13786 0.25424,-0.14845 0.11631,-1.06821 -0.14329,-0.95557 -0.11138,-1.20893 0.13323,-1.05776 0.24202,0.14958 0.27566,-0.0464 0.13586,-0.79154 -0.14012,-0.74688 -0.10644,-0.9413 0.13697,-0.79086 0.24008,0.14838 0.27931,-0.0178 0.15315,-0.64856 -0.0933,-0.46643 -0.072,-0.78769 0.0474,-0.71393 0.11935,0.0738 0.41724,-0.28578 0.66197,-0.79899 0.24473,-0.5132 0.32524,-0.85911 0.17892,-0.76868 -0.155,0.0958 -0.20028,-0.007 -0.10847,-0.24619 0.0867,-0.22584 0.28373,-0.41062 0.43794,-0.41062 0.1542,0 0.20285,-0.0775 0.10809,-0.17227 -0.0947,-0.0948 -0.002,-0.30311 0.20595,-0.46302 0.20802,-0.15991 0.41453,-0.46891 0.45891,-0.68667 0.0444,-0.21775 0.25928,-0.554 0.47756,-0.74722 0.35278,-0.31227 0.35278,-0.33225 0,-0.17978 -0.26482,0.11446 -0.24418,0.0463 0.062,-0.20497 0.2524,-0.20708 0.38419,-0.45124 0.29286,-0.54256 -0.0913,-0.0913 0.0296,-0.24112 0.2687,-0.33288 0.23911,-0.0918 0.43474,-0.29424 0.43474,-0.44998 0,-0.15573 0.38696,-0.63242 0.8599,-1.05931 0.47294,-0.42689 0.62177,-0.62095 0.33073,-0.43125 -0.29104,0.18969 0.23476,-0.44537 1.16845,-1.41127 0.93369,-0.96589 1.77554,-1.733 1.87077,-1.70468 0.0952,0.0283 0.50702,-0.3057 0.91508,-0.74226 0.40806,-0.43656 0.63778,-0.60954 0.51048,-0.38438 -0.1273,0.22515 0.0495,0.10609 0.3929,-0.26459 0.34339,-0.37067 0.54142,-0.49535 0.44006,-0.27707 -0.10136,0.21828 0.0344,0.14292 0.30169,-0.16747 0.51992,-0.60376 1.68044,-1.30426 2.00734,-1.21166 0.10914,0.0309 0.19844,-0.0699 0.19844,-0.22399 0,-0.15411 0.11906,-0.20661 0.26458,-0.11668 0.14552,0.0899 0.26458,0.0304 0.26458,-0.13229 0,-0.16269 0.11907,-0.22223 0.26459,-0.13229 0.14552,0.0899 0.26458,0.0304 0.26458,-0.13229 0,-0.1627 0.11906,-0.22223 0.26458,-0.13229 0.14552,0.0899 0.26459,0.0304 0.26459,-0.13229 0,-0.1627 0.11906,-0.22223 0.26458,-0.1323 0.14552,0.0899 0.26458,0.0304 0.26458,-0.13229 0,-0.16269 0.11907,-0.22223 0.26459,-0.13229 0.14552,0.0899 0.26458,0.0247 0.26458,-0.14498 0,-0.16968 0.17859,-0.23998 0.39687,-0.15621 0.21829,0.0838 0.39688,0.0407 0.39688,-0.0957 0,-0.13639 0.19812,-0.17195 0.44028,-0.079 0.31304,0.12013 0.37993,0.0713 0.23145,-0.16894 -0.15647,-0.25317 -0.0595,-0.29051 0.3866,-0.14891 0.43249,0.13727 0.5411,0.10107 0.39688,-0.13229 -0.14422,-0.233356 -0.0356,-0.269559 0.39687,-0.132292 0.43249,0.137262 0.5411,0.101064 0.39688,-0.132292 -0.14422,-0.233356 -0.0356,-0.269558 0.39687,-0.132291 0.41627,0.132117 0.53899,0.09765 0.40784,-0.114551 -0.13279,-0.214864 0.0236,-0.250518 0.5355,-0.12205 0.54324,0.136346 0.67214,0.09904 0.51823,-0.149979 -0.15613,-0.252637 -3.4e-4,-0.286546 0.6551,-0.142587 0.65544,0.143959 0.81123,0.11005 0.65509,-0.142587 -0.15263,-0.246973 -0.0303,-0.287659 0.47986,-0.159613 0.39247,0.09851 0.76026,0.04959 0.86174,-0.114607 0.11434,-0.185002 0.64746,-0.221759 1.50526,-0.103782 0.94636,0.130158 1.27597,0.09813 1.14648,-0.111388 -0.12706,-0.20558 0.40015,-0.292846 1.7521,-0.290013 1.42023,0.003 1.82844,0.07732 1.53697,0.279917 -0.28304,0.196741 0.0872,0.224936 1.29089,0.0983 0.96019,-0.101018 1.62545,-0.07673 1.54321,0.05633 -0.0795,0.128643 0.45712,0.250596 1.1925,0.271008 0.73539,0.02041 1.41968,0.170788 1.52065,0.334171 0.10321,0.166996 0.39607,0.215527 0.66887,0.110843 0.36008,-0.138175 0.42976,-0.0964 0.27011,0.161918 -0.1665,0.269411 -0.0516,0.307095 0.50793,0.166649 0.51186,-0.128467 0.66829,-0.09281 0.5355,0.12205 -0.12959,0.209681 -0.0137,0.248356 0.37471,0.125067 0.32634,-0.103579 0.5623,-0.06345 0.5623,0.09564 0,0.150759 0.19812,0.198079 0.44027,0.105149 0.31305,-0.120116 0.37993,-0.0713 0.23145,0.16895 -0.15647,0.25317 -0.0595,0.2905 0.38661,0.1489 0.44614,-0.1416 0.54307,-0.10426 0.3866,0.14891 -0.14847,0.24025 -0.0816,0.28907 0.23145,0.16894 0.24216,-0.0929 0.44028,-0.0574 0.44028,0.079 0,0.13639 0.19813,0.17195 0.44028,0.079 0.29404,-0.11283 0.37736,-0.0671 0.25084,0.13757 -0.12377,0.20026 -0.0471,0.25189 0.22118,0.14895 0.22642,-0.0869 0.41062,-0.0192 0.41062,0.15093 0,0.16968 0.11906,0.23492 0.26458,0.14499 0.14552,-0.0899 0.26459,-0.0304 0.26459,0.13229 0,0.1627 0.11906,0.22223 0.26458,0.13229 0.14552,-0.0899 0.26458,-0.0304 0.26458,0.13229 0,0.1627 0.10947,0.22816 0.24326,0.14548 0.13378,-0.0827 0.41727,0.0237 0.62996,0.23637 0.21268,0.21269 0.46041,0.313 0.55049,0.22291 0.0901,-0.0901 0.16379,-0.005 0.16379,0.18899 0,0.19403 0.0775,0.27526 0.17228,0.1805 0.0947,-0.0948 0.34171,0.0342 0.54879,0.28664 0.20708,0.2524 0.29053,0.29294 0.18544,0.0901 -0.13381,-0.2583 0.0585,-0.22138 0.64184,0.12319 0.4581,0.2706 0.8329,0.58121 0.8329,0.69024 0,0.10902 0.2525,0.33336 0.5611,0.49851 0.45243,0.24214 0.52484,0.23113 0.37391,-0.0568 -0.10295,-0.19642 0.0716,-0.0595 0.38791,0.30433 0.3163,0.3638 0.49227,0.50305 0.39106,0.30943 -0.10122,-0.19361 0.23571,-0.0769 0.74872,0.25941 0.51301,0.33629 0.89085,0.67923 0.83964,0.76209 -0.0512,0.0829 0.14977,0.30234 0.44663,0.48773 0.44314,0.27674 0.507,0.27438 0.3568,-0.0132 -0.10061,-0.19264 0.0759,-0.0526 0.39215,0.3112 0.3163,0.3638 0.49639,0.48286 0.40021,0.26458 -0.0962,-0.21828 0.021,-0.15875 0.2603,0.13229 0.23935,0.29104 0.54228,0.50059 0.67318,0.46566 0.13091,-0.0349 0.3666,0.17676 0.52377,0.47043 0.15716,0.29367 0.3907,0.46908 0.51896,0.38981 0.12826,-0.0793 0.41995,0.12248 0.64818,0.44834 0.22824,0.32585 0.41926,0.47667 0.4245,0.33515 0.005,-0.14152 0.31595,0.0999 0.69049,0.53644 0.37454,0.43657 0.59836,0.61516 0.49738,0.39688 -0.10099,-0.21828 0.15384,-0.035 0.56627,0.40719 0.41244,0.44224 0.64324,0.62084 0.51289,0.39688 -0.13034,-0.22396 0.21079,0.0691 0.75809,0.65114 0.54729,0.58208 0.89206,0.87509 0.76616,0.65114 -0.12591,-0.22396 0.10852,-0.0454 0.52096,0.39687 0.41243,0.44224 0.67171,0.62548 0.57617,0.4072 -0.0955,-0.21828 0.14563,-0.0397 0.53593,0.39687 0.3903,0.43656 0.62821,0.61516 0.52868,0.39688 -0.0995,-0.21828 0.0149,-0.15875 0.25422,0.13229 0.23935,0.29104 0.54228,0.50058 0.67318,0.46565 0.13091,-0.0349 0.3666,0.17676 0.52377,0.47043 0.15717,0.29367 0.39287,0.46775 0.52379,0.38683 0.13092,-0.0809 0.35824,0.0775 0.50515,0.352 0.14691,0.27451 0.58427,0.70691 0.97189,0.9609 0.47412,0.31065 0.64331,0.34456 0.51695,0.10361 -0.1033,-0.19699 0.058,-0.0605 0.35842,0.30329 0.30043,0.3638 0.54889,0.55897 0.55213,0.43371 0.003,-0.12527 0.25308,0.0533 0.5552,0.39687 0.30213,0.34354 0.47039,0.44603 0.37392,0.22775 -0.0965,-0.21828 0.0834,-0.0992 0.39968,0.26458 0.31629,0.36381 0.49489,0.48287 0.39687,0.26459 -0.098,-0.21828 0.0806,-0.0992 0.39688,0.26458 0.31629,0.3638 0.49489,0.48286 0.39687,0.26458 -0.098,-0.21828 0.0806,-0.0992 0.39688,0.26459 0.31629,0.3638 0.48574,0.48286 0.37655,0.26458 -0.10919,-0.21828 0.11913,-0.0628 0.50738,0.34562 0.39807,0.41871 0.8386,0.66049 1.0102,0.55443 0.18811,-0.11626 0.23221,-0.0714 0.11551,0.1174 -0.16548,0.26774 0.15549,0.4237 0.49251,0.23932 0.0665,-0.0364 0.31345,0.17198 0.54879,0.46302 0.23533,0.29104 0.35069,0.35057 0.25635,0.13229 -0.11446,-0.26482 -0.0463,-0.24418 0.20498,0.062 0.20708,0.2524 0.45123,0.38418 0.54256,0.29286 0.0913,-0.0913 0.24085,0.0289 0.33229,0.26717 0.0914,0.23828 0.27283,0.36735 0.4031,0.28684 0.13027,-0.0805 0.23686,-0.0234 0.23686,0.12702 0,0.15037 0.37029,0.46489 0.82287,0.69892 0.61031,0.31561 0.77611,0.33445 0.64184,0.0729 -0.0996,-0.19392 -0.0116,-0.14607 0.19548,0.10633 0.20708,0.2524 0.45403,0.38138 0.54878,0.28663 0.0947,-0.0948 0.17228,-0.0263 0.17228,0.15202 0,0.17836 0.11906,0.25071 0.26458,0.16077 0.14552,-0.0899 0.26459,-0.0304 0.26459,0.1323 0,0.16269 0.11906,0.22222 0.26458,0.13229 0.14552,-0.0899 0.26458,-0.0304 0.26458,0.13229 0,0.1627 0.10947,0.22816 0.24326,0.14547 0.13378,-0.0827 0.41727,0.0237 0.62996,0.23637 0.21268,0.21269 0.46041,0.31301 0.55049,0.22292 0.0901,-0.0901 0.16379,-0.0179 0.16379,0.16051 0,0.17836 0.11907,0.25071 0.26459,0.16077 0.14552,-0.0899 0.26458,-0.0374 0.26458,0.11668 0,0.15411 0.0893,0.25603 0.19844,0.22649 0.37933,-0.10266 2.15382,0.68031 2.02269,0.89248 -0.0726,0.11743 0.0528,0.14259 0.27867,0.0559 0.22642,-0.0869 0.41062,-0.0192 0.41062,0.15094 0,0.16968 0.11906,0.23492 0.26458,0.14498 0.14552,-0.0899 0.26458,-0.0412 0.26458,0.10837 0,0.14955 0.1786,0.20337 0.39688,0.1196 0.21828,-0.0838 0.39687,-0.0135 0.39687,0.15621 0,0.16968 0.11907,0.23492 0.26459,0.14499 0.14552,-0.0899 0.26458,-0.0412 0.26458,0.10837 0,0.14954 0.17859,0.20336 0.39687,0.1196 0.21829,-0.0838 0.39688,-0.0205 0.39688,0.1406 0,0.16109 0.0893,0.27021 0.19844,0.24248 0.43447,-0.11035 1.91405,0.37227 1.7844,0.58205 -0.19668,0.31823 0.76092,0.57403 1.33058,0.35543 0.31416,-0.12055 0.41613,-0.0839 0.29802,0.10725 -0.22924,0.37091 0.66226,0.66261 1.28948,0.42192 0.30954,-0.11878 0.41561,-0.083 0.30149,0.10162 -0.11394,0.18435 0.0254,0.23219 0.39485,0.13558 0.39083,-0.10221 0.51128,-0.0528 0.38187,0.15657 -0.1195,0.19334 -0.0131,0.28583 0.28935,0.25142 0.71962,-0.0819 2.46277,0.34672 2.46277,0.60554 0,0.12476 0.19812,0.15081 0.44028,0.0579 0.25424,-0.0976 0.37326,-0.0605 0.28167,0.0877 -0.0913,0.14773 0.24771,0.25663 0.79885,0.25663 0.52661,0 1.00088,0.13024 1.05393,0.28942 0.0531,0.15917 0.34751,0.22376 0.65433,0.14353 0.41376,-0.1082 0.50243,-0.0562 0.34331,0.20126 -0.13931,0.2254 -0.11122,0.28328 0.0801,0.16503 0.34315,-0.21208 3.75585,0.64306 3.75585,0.94112 0,0.11053 0.19813,0.12492 0.44028,0.032 0.31304,-0.12012 0.37993,-0.0713 0.23145,0.16894 -0.15474,0.25037 -0.0632,0.29167 0.35347,0.15943 0.32635,-0.10358 0.5623,-0.0634 0.5623,0.0956 0,0.15076 0.1786,0.20558 0.39688,0.12181 0.21828,-0.0838 0.39687,-0.0242 0.39687,0.1323 0,0.15652 0.1786,0.21605 0.39688,0.13229 0.21828,-0.0838 0.39687,-0.0242 0.39687,0.13229 0,0.15652 0.1786,0.21605 0.39688,0.13229 0.21828,-0.0838 0.39687,-0.0135 0.39687,0.15621 0,0.16968 0.11907,0.234921 0.26459,0.14498 0.14552,-0.0899 0.26458,-0.0412 0.26458,0.108381 0,0.14954 0.17859,0.20336 0.39687,0.1196 0.21829,-0.0838 0.39688,-0.0135 0.39688,0.15621 0,0.16968 0.11906,0.23492 0.26458,0.14498 0.14552,-0.0899 0.26459,-0.0304 0.26459,0.13229 0,0.1627 0.10831,0.22887 0.2407,0.14705 0.37125,-0.22944 1.10118,0.13738 0.905,0.45481 -0.1074,0.17377 -0.0138,0.22027 0.2442,0.12127 0.24785,-0.0951 0.48214,0.006 0.5748,0.24707 0.086,0.22419 0.32416,0.34326 0.52917,0.26459 0.20501,-0.0787 0.44314,0.0404 0.52917,0.26458 0.09,0.23444 0.32834,0.34165 0.56108,0.25234 0.22871,-0.0878 0.46988,0.0147 0.55466,0.23561 0.0825,0.21499 0.25606,0.32535 0.38569,0.24523 0.12963,-0.0801 0.55335,0.18846 0.94159,0.59684 0.38825,0.40836 0.615,0.56389 0.5039,0.34561 -0.1111,-0.21827 0.24033,0.0794 0.78096,0.66147 0.54062,0.58207 0.82041,0.82021 0.62174,0.52916 -0.33111,-0.48507 -0.32287,-0.49911 0.0989,-0.16846 0.25306,0.19839 0.40128,0.4559 0.32937,0.57225 -0.0719,0.11635 0.19729,0.46888 0.59822,0.7834 0.40094,0.31452 0.55038,0.49442 0.3321,0.39978 -0.21829,-0.0947 -0.1158,0.0751 0.22775,0.37725 0.34354,0.30212 0.54339,0.54932 0.44412,0.54932 -0.0993,0 0.008,0.18819 0.2377,0.41821 0.23001,0.23001 0.35055,0.52766 0.26787,0.66145 -0.0827,0.13379 -0.0162,0.24326 0.14769,0.24326 0.18347,0 0.22943,0.21613 0.11956,0.5623 -0.11158,0.35156 -0.0781,0.50024 0.0895,0.39671 0.17305,-0.10696 0.25336,0.53707 0.22679,1.81867 -0.0226,1.09135 -0.12671,1.98439 -0.23129,1.98454 -0.10457,1.5e-4 -0.1216,0.17887 -0.0378,0.39715 0.0838,0.21828 0.0135,0.39688 -0.15621,0.39688 -0.16968,0 -0.24326,0.10557 -0.16352,0.2346 0.0797,0.12903 -0.031,0.38065 -0.24605,0.55915 -0.21508,0.17849 -0.3258,0.43011 -0.24606,0.55914 0.0797,0.12903 0.0119,0.23461 -0.15082,0.23461 -0.16269,0 -0.22656,0.11206 -0.14192,0.249 0.0847,0.13696 -0.35481,0.75578 -0.97657,1.37517 -0.62176,0.61939 -0.89234,0.95837 -0.6013,0.75329 0.29104,-0.20508 0.18353,0.005 -0.23892,0.4675 -0.42246,0.46222 -0.86894,0.77806 -0.99219,0.70189 -0.12325,-0.0762 -0.2241,0.0325 -0.2241,0.24159 0,0.20905 -0.20836,0.5435 -0.46302,0.74322 -0.42838,0.33597 -0.43393,0.32355 -0.0741,-0.16604 0.29912,-0.40703 0.20752,-0.37877 -0.39688,0.12248 -0.43215,0.3584 -1.0667,0.95371 -1.41009,1.32291 -0.34339,0.3692 -0.54142,0.49268 -0.44006,0.2744 0.10136,-0.21828 -0.036,-0.12757 -0.30519,0.20157 -0.26921,0.32914 -0.78556,0.65517 -1.14744,0.72451 -0.36188,0.0693 -0.79324,0.31029 -0.95858,0.53543 -0.16534,0.22515 -0.58206,0.46328 -0.92604,0.52917 -0.34398,0.0659 -0.74448,0.28048 -0.89001,0.47685 -0.14552,0.19637 -0.41334,0.30693 -0.59517,0.24567 -0.18182,-0.0613 -0.40004,0.0696 -0.48492,0.2908 -0.0909,0.23698 -0.32618,0.33623 -0.57271,0.24163 -0.25797,-0.099 -0.3516,-0.0525 -0.2442,0.12127 0.0958,0.155 -0.01,0.35246 -0.23492,0.43881 -0.23165,0.0889 -0.3398,0.0448 -0.24933,-0.10154 0.0906,-0.14659 -0.018,-0.1903 -0.25084,-0.10095 -0.22584,0.0867 -0.41061,0.27092 -0.41061,0.40946 0,0.13854 -0.10832,0.18494 -0.24071,0.10312 -0.33988,-0.21005 -1.10901,0.12471 -0.93466,0.40681 0.0795,0.12861 -0.0403,0.16293 -0.2661,0.0763 -0.22642,-0.0869 -0.41062,-0.0192 -0.41062,0.15094 0,0.16968 -0.10832,0.24156 -0.2407,0.15974 -0.34191,-0.21131 -1.10851,0.12552 -0.93279,0.40984 0.13417,0.2171 -0.31283,0.33816 -1.13876,0.30842 -0.18034,-0.007 -0.2501,0.11404 -0.15504,0.26786 0.10772,0.1743 0.007,0.21602 -0.26743,0.11073 -0.56333,-0.21617 -1.28146,0.0528 -1.06708,0.39967 0.10289,0.16649 -0.0577,0.19486 -0.43153,0.0762 -0.40244,-0.12774 -0.53736,-0.095 -0.41627,0.10091 0.11229,0.18168 0.0259,0.23108 -0.23145,0.13233 -0.22584,-0.0867 -0.41061,-0.0295 -0.41061,0.12702 0,0.15673 -0.1978,0.20868 -0.44028,0.11563 -0.29404,-0.11283 -0.37736,-0.0671 -0.25084,0.13757 0.12376,0.20026 0.0471,0.25189 -0.22118,0.14895 -0.22642,-0.0869 -0.41062,-0.0192 -0.41062,0.15093 0,0.16968 -0.11906,0.23493 -0.26458,0.14499 -0.14552,-0.0899 -0.26459,-0.0412 -0.26459,0.10837 0,0.14954 -0.19812,0.19587 -0.44028,0.10294 -0.27848,-0.10686 -0.37558,-0.0643 -0.26421,0.11593 0.11393,0.18435 -0.0254,0.23219 -0.39485,0.13557 -0.314,-0.0821 -0.50412,-0.0412 -0.4225,0.0908 0.0816,0.13207 -0.10813,0.25867 -0.42165,0.28135 -0.87087,0.063 -5.67509,1.49009 -10.09505,2.99875 -5.55582,1.89637 -13.11522,5.67481 -18.19882,9.09637 -2.23899,1.50698 -4.35849,2.98262 -4.70999,3.2792 -0.35151,0.29659 -1.71067,1.38752 -3.02036,2.4243 -1.30968,1.03678 -3.33375,2.64207 -4.49791,3.56732 -5.24284,4.16684 -8.41047,6.09288 -12.56771,7.64164 -4.17347,1.5548 -7.38576,2.00525 -11.37708,1.59536 z"
       id="path35" />
    <path
       style="fill:#dd9c26;fill-opacity:1"
       d="m 116.1175,237.31677 c 0,-0.0549 0.20836,-0.2633 0.46302,-0.46302 0.41965,-0.32911 0.42901,-0.31975 0.0999,0.0999 -0.34565,0.44073 -0.56292,0.58088 -0.56292,0.36312 z"
       id="path30" />
    <path
       style="fill:#dd9c26;fill-opacity:1"
       d="m 109.23834,244.98969 c 0,-0.0549 0.20836,-0.2633 0.46302,-0.46302 0.41964,-0.32911 0.429,-0.31975 0.0999,0.0999 -0.34564,0.44073 -0.56291,0.58089 -0.56291,0.36313 z"
       id="path29" />
    <path
       style="fill:#dd9c26;fill-opacity:1"
       d="m 100.47334,244.62656 c -0.32911,-0.41964 -0.31975,-0.429 0.0999,-0.0999 0.44073,0.34564 0.58089,0.56291 0.36313,0.56291 -0.0549,0 -0.2633,-0.20836 -0.46302,-0.46302 z"
       id="path28" />
    <path
       style="fill:#dd9c26;fill-opacity:1"
       d="m 106.98938,247.47083 c 0.26339,-0.29104 0.53842,-0.52916 0.61118,-0.52916 0.0728,0 -0.0832,0.23812 -0.3466,0.52916 -0.26339,0.29105 -0.53842,0.52917 -0.61118,0.52917 -0.0728,0 0.0832,-0.23812 0.3466,-0.52917 z"
       id="path7" />
    <path
       style="fill:#558d44;fill-opacity:1"
       d="m 101.40799,245.55261 -0.50403,-0.59532 0.59531,0.50403 c 0.55945,0.47366 0.71577,0.6866 0.50403,0.6866 -0.0502,0 -0.3181,-0.26789 -0.59531,-0.59531 z m 7.0366,0.23083 c 0,-0.0549 0.20836,-0.2633 0.46302,-0.46302 0.41964,-0.32911 0.429,-0.31975 0.0999,0.0999 -0.34564,0.44073 -0.56291,0.58089 -0.56291,0.36313 z m 11.37708,-12.7 c 0,-0.0549 0.20836,-0.2633 0.46302,-0.46302 0.41964,-0.32911 0.429,-0.31975 0.0999,0.0999 -0.34564,0.44073 -0.56291,0.58089 -0.56291,0.36313 z m 11.37708,-13.22917 c 0,-0.0549 0.20836,-0.2633 0.46302,-0.46302 0.41965,-0.32911 0.42901,-0.31975 0.0999,0.0999 -0.34565,0.44073 -0.56292,0.58088 -0.56292,0.36312 z M 66.96218,208.98125 c 0.1042,-0.11541 -0.10416,-0.44079 -0.46302,-0.72308 -0.35887,-0.28228 -0.65249,-0.68693 -0.65249,-0.89922 0,-0.21228 -0.15715,-0.44628 -0.34922,-0.51998 -0.19208,-0.0737 -0.8118,-0.6874 -1.37717,-1.36376 -0.56536,-0.67635 -0.8547,-1.13994 -0.64296,-1.03019 0.21174,0.10976 -0.0317,-0.16954 -0.54107,-0.62066 -0.50932,-0.45112 -0.92604,-0.92474 -0.92604,-1.05249 0,-0.12775 -0.32856,-0.49072 -0.73012,-0.80659 -0.40157,-0.31588 -0.66567,-0.67862 -0.58689,-0.80609 0.0788,-0.12748 -0.15718,-0.42862 -0.52437,-0.66922 -0.36719,-0.24059 -0.60577,-0.5375 -0.53019,-0.6598 0.0756,-0.1223 -0.10736,-0.35338 -0.40655,-0.5135 -0.2992,-0.16013 -0.47999,-0.39469 -0.40177,-0.52126 0.0782,-0.12657 -0.18633,-0.48856 -0.5879,-0.80444 -0.40157,-0.31587 -0.73323,-0.65283 -0.73703,-0.74879 -0.014,-0.35365 -0.53035,-1.0635 -0.78685,-1.08172 -0.14552,-0.0103 -0.26458,-0.1422 -0.26458,-0.29303 0,-0.15083 -0.17859,-0.38461 -0.39687,-0.51951 -0.21829,-0.13491 -0.39688,-0.35527 -0.39688,-0.48969 0,-0.13443 -0.29766,-0.50503 -0.66146,-0.82356 -0.3638,-0.31853 -0.48286,-0.50094 -0.26458,-0.40536 0.21828,0.0956 0.0397,-0.15482 -0.39688,-0.55646 -0.43656,-0.40165 -0.76517,-0.82442 -0.73023,-0.93949 0.0349,-0.11507 -0.17677,-0.33782 -0.47043,-0.49498 -0.29367,-0.15717 -0.46775,-0.39288 -0.38684,-0.5238 0.0809,-0.13091 -0.0943,-0.36725 -0.38946,-0.5252 -0.29512,-0.15794 -0.53658,-0.44883 -0.53658,-0.64642 0,-0.19759 -0.18614,-0.43069 -0.41364,-0.51799 -0.22751,-0.0873 -0.34323,-0.27266 -0.25718,-0.41191 0.0861,-0.13925 -0.0838,-0.38177 -0.37747,-0.53893 -0.29367,-0.15717 -0.50536,-0.39287 -0.47043,-0.52377 0.0349,-0.13091 -0.17461,-0.43384 -0.46565,-0.67318 -0.29104,-0.23934 -0.35058,-0.3582 -0.13229,-0.26412 0.21828,0.0941 0.0397,-0.14828 -0.39688,-0.53858 -0.43656,-0.3903 -0.62151,-0.61554 -0.41099,-0.50053 0.21902,0.11964 0.12625,-0.15115 -0.21683,-0.63296 -0.32978,-0.46314 -0.82826,-0.96444 -1.10774,-1.11401 -0.27947,-0.14957 -0.47955,-0.37905 -0.44462,-0.50995 0.0349,-0.13091 -0.17461,-0.43384 -0.46565,-0.67318 -0.29104,-0.23935 -0.35058,-0.35798 -0.13229,-0.26364 0.21828,0.0943 0.15875,-0.021 -0.1323,-0.25635 -0.29104,-0.23534 -0.52916,-0.5367 -0.52916,-0.66969 0,-0.133 -0.23813,-0.43436 -0.52917,-0.66969 -0.29104,-0.23534 -0.35057,-0.35092 -0.13229,-0.25684 0.21828,0.0941 0.0397,-0.14828 -0.39688,-0.53858 -0.43656,-0.3903 -0.61515,-0.62821 -0.39687,-0.52868 0.21828,0.0995 0.15875,-0.0116 -0.13229,-0.24694 -0.29104,-0.23534 -0.52917,-0.5367 -0.52917,-0.66969 0,-0.13299 -0.23812,-0.42174 -0.52917,-0.64165 -0.29104,-0.21992 -0.41711,-0.40364 -0.28016,-0.40827 0.13696,-0.005 0.0179,-0.19584 -0.26458,-0.42491 -0.28247,-0.22907 -0.335,-0.33906 -0.11671,-0.24442 0.21828,0.0946 0.11579,-0.0751 -0.22775,-0.37726 -0.34355,-0.30213 -0.52214,-0.55197 -0.39688,-0.55521 0.12526,-0.003 -0.0699,-0.25169 -0.43371,-0.55212 -0.3638,-0.30044 -0.48286,-0.46731 -0.26458,-0.37084 0.21828,0.0965 0.11579,-0.0718 -0.22775,-0.37391 -0.34354,-0.30213 -0.52214,-0.55115 -0.39687,-0.55338 0.12526,-0.002 0.0491,-0.11695 -0.16913,-0.25493 -0.21828,-0.13799 -0.39688,-0.34732 -0.39688,-0.46518 0,-0.11786 -0.26789,-0.50184 -0.59531,-0.85329 -0.32742,-0.35145 -0.59531,-0.79514 -0.59531,-0.98598 0,-0.19084 -0.12609,-0.34698 -0.2802,-0.34698 -0.15411,0 -0.20609,-0.11991 -0.11552,-0.26646 0.0906,-0.14654 -0.0208,-0.33761 -0.24745,-0.42459 -0.22667,-0.087 -0.34573,-0.26558 -0.26458,-0.39688 0.0811,-0.1313 -0.0386,-0.31016 -0.26611,-0.39746 -0.2275,-0.0873 -0.41364,-0.32458 -0.41364,-0.5273 0,-0.20271 -0.11906,-0.36856 -0.26458,-0.36856 -0.14552,0 -0.26459,-0.16586 -0.26459,-0.36857 0,-0.20271 -0.18614,-0.44 -0.41364,-0.5273 -0.22751,-0.0873 -0.33954,-0.27863 -0.24897,-0.42518 0.0906,-0.14655 0.0316,-0.26645 -0.13114,-0.26645 -0.16269,0 -0.22171,-0.11991 -0.13113,-0.26646 0.0906,-0.14654 -0.0215,-0.33788 -0.24897,-0.42518 -0.22751,-0.0873 -0.41365,-0.32458 -0.41365,-0.5273 0,-0.20271 -0.12609,-0.36856 -0.2802,-0.36856 -0.1541,0 -0.20609,-0.11991 -0.11552,-0.26646 0.0906,-0.14654 -0.0208,-0.33761 -0.24745,-0.42459 -0.22667,-0.087 -0.34625,-0.26474 -0.26573,-0.39501 0.0805,-0.13027 0.0203,-0.23686 -0.13382,-0.23686 -0.1541,0 -0.28019,-0.17859 -0.28019,-0.39687 0,-0.21829 -0.12609,-0.39688 -0.2802,-0.39688 -0.15411,0 -0.21433,-0.10659 -0.13381,-0.23686 0.0805,-0.13027 -0.0391,-0.30802 -0.26574,-0.39501 -0.22667,-0.087 -0.33802,-0.27805 -0.24745,-0.42459 0.0906,-0.14655 0.0555,-0.26646 -0.0779,-0.26646 -0.23155,0 -1.74011,-2.30624 -2.42295,-3.70416 l -0.32311,-0.66146 0.61882,0.67908 c 1.15788,1.27064 4.0006,-0.35873 8.18702,-0.10259 3.27864,0.20061 5.60369,-2.13718 9.41565,-3.55961 4.16107,-1.5527 7.40921,0.77385 12.64948,-3.39096 1.16416,-0.92525 3.18823,-2.53054 4.49791,-3.56732 1.30969,-1.03678 2.66885,-2.12771 3.02036,-2.4243 0.3515,-0.29658 3.3705,-9.29535 5.60949,-10.80233 12.42009,-8.35946 24.523,-3.74301 24.57536,-3.7471 0.50933,-0.0398 0.98558,-0.14397 1.05834,-0.23148 0.15059,-0.18112 3.09578,-1.30109 3.38336,-1.2866 0.10368,0.005 -0.68805,0.42072 -1.75941,0.92331 -1.07136,0.50259 -2.04402,0.85441 -2.16148,0.78181 -0.11746,-0.0726 -0.40176,0.0562 -0.63177,0.28622 -0.23001,0.23002 -0.42182,0.32041 -0.42625,0.20087 -0.004,-0.11953 -0.1308,-0.006 -0.28084,0.25125 -0.15004,0.25772 -0.38455,0.39952 -0.52113,0.31511 -0.13657,-0.0844 -0.24832,-0.0204 -0.24832,0.14235 0,0.16269 -0.10889,0.22851 -0.24198,0.14625 -0.13309,-0.0823 -0.28192,-0.0578 -0.33073,0.0543 -0.11507,0.26436 -3.61781,2.44524 -3.92734,2.44524 -0.12988,0 -0.35751,0.20836 -0.50584,0.46302 -0.14832,0.25466 -0.2733,0.37639 -0.27773,0.2705 -0.004,-0.10589 -0.49808,0.3391 -1.09701,0.98886 -0.59894,0.64977 -1.1972,1.11451 -1.32948,1.03276 -0.13227,-0.0817 -0.20778,0.009 -0.1678,0.20176 0.04,0.19271 -0.085,0.31768 -0.27769,0.27769 -0.19272,-0.04 -0.27447,0.0502 -0.18167,0.20031 0.0928,0.15015 -0.0174,0.34443 -0.24492,0.43173 -0.2275,0.0873 -0.41364,0.32833 -0.41364,0.53561 0,0.20728 -0.17859,0.4454 -0.39688,0.52916 -0.21828,0.0838 -0.39687,0.32189 -0.39687,0.52917 0,0.20728 -0.17791,0.44514 -0.39536,0.52858 -0.21744,0.0834 -0.32948,0.2583 -0.24896,0.38857 0.0805,0.13028 4.5e-4,0.23686 -0.17791,0.23686 -0.17837,0 -0.25506,0.0693 -0.17043,0.15387 0.0846,0.0846 -0.0242,0.58006 -0.24184,1.10096 -0.59097,1.41438 -1.13735,4.54059 -0.82709,4.73234 0.14264,0.0882 0.2051,0.44398 0.13882,0.79072 -0.0663,0.34675 -0.005,0.63045 0.13568,0.63045 0.14091,0 0.19062,0.1709 0.11047,0.37978 -0.0802,0.20888 -0.0281,0.419 0.11574,0.46694 0.14381,0.0479 0.28152,0.35328 0.30602,0.67855 0.0245,0.32527 0.1453,0.59139 0.26845,0.59139 0.12314,0 0.1503,0.11907 0.0604,0.26459 -0.0899,0.14552 -0.0304,0.26458 0.13229,0.26458 0.1627,0 0.22675,0.11175 0.14234,0.24832 -0.0844,0.13658 0.0574,0.37108 0.31512,0.52112 0.25772,0.15004 0.3847,0.27642 0.28217,0.28085 -0.20508,0.009 0.15152,0.41675 2.69995,3.08833 0.94589,0.99159 1.79777,1.80551 1.89308,1.8087 0.2807,0.009 4.82321,4.74877 4.76749,4.9741 -0.028,0.11319 0.12812,0.2745 0.34692,0.35846 0.21879,0.084 0.33193,0.25924 0.25142,0.38951 -0.0805,0.13027 -0.0203,0.23686 0.13381,0.23686 0.15411,0 0.2802,0.16867 0.2802,0.37483 0,0.20615 0.12435,0.41627 0.27634,0.46694 0.15199,0.0507 0.29638,0.35824 0.32089,0.6835 0.0245,0.32527 0.15178,0.5914 0.28285,0.5914 0.13107,0 0.18681,0.3509 0.12387,0.77977 -0.063,0.42888 -0.0169,0.71951 0.10226,0.64585 0.11919,-0.0737 0.21671,0.34934 0.21671,0.94001 0,0.60878 -0.12687,1.07395 -0.29289,1.07395 -0.16109,0 -0.22024,0.18934 -0.13144,0.42075 0.0888,0.23142 0.0752,0.55884 -0.0302,0.72761 -0.1054,0.16876 -0.2283,0.54497 -0.2731,0.83602 -0.0448,0.29104 -0.19781,0.5691 -0.34003,0.61791 -0.14222,0.0488 -0.19128,0.19763 -0.10902,0.33073 0.0823,0.13309 0.0164,0.24198 -0.14626,0.24198 -0.1627,0 -0.22876,0.1085 -0.1468,0.24111 0.082,0.13261 -0.20164,0.57207 -0.63022,0.97658 -0.42858,0.40451 -0.72642,0.82094 -0.66186,0.9254 0.0646,0.10446 -0.21389,0.46867 -0.61877,0.80936 -0.40488,0.34068 -0.79215,0.73849 -0.8606,0.88401 -0.0684,0.14552 -0.20413,0.23803 -0.3015,0.20557 -0.0974,-0.0325 -0.62264,0.47416 -1.16724,1.12582 -0.54461,0.65166 -1.04957,1.12545 -1.12214,1.05288 -0.0726,-0.0726 -0.29821,0.10542 -0.50141,0.39554 -0.20321,0.29011 -0.52857,0.52748 -0.72303,0.52748 -0.19446,0 -0.42499,0.18614 -0.5123,0.41365 -0.0873,0.2275 -0.27947,0.33902 -0.42705,0.24781 -0.14757,-0.0912 -0.33948,0.0196 -0.42647,0.24629 -0.087,0.22667 -0.26557,0.34573 -0.39687,0.26459 -0.1313,-0.0811 -0.30989,0.0379 -0.39688,0.26458 -0.087,0.22667 -0.26557,0.34573 -0.39687,0.26458 -0.1313,-0.0812 -0.30989,0.0379 -0.39688,0.26459 -0.087,0.22666 -0.26557,0.34573 -0.39687,0.26458 -0.1313,-0.0812 -0.30989,0.0379 -0.39688,0.26458 -0.087,0.22667 -0.25876,0.34995 -0.38173,0.27395 -0.12297,-0.076 -0.35826,0.11347 -0.52288,0.42105 -0.16461,0.30758 -0.36717,0.49136 -0.45013,0.4084 -0.083,-0.083 -0.28168,0.0273 -0.44158,0.24501 -0.15991,0.21772 -0.58841,0.45147 -0.95221,0.51944 -0.3638,0.068 -0.86982,0.37742 -1.12448,0.68768 -0.25466,0.31025 -0.4668,0.46161 -0.47143,0.33634 -0.005,-0.12526 -0.18322,0.003 -0.39688,0.28585 -0.21365,0.28247 -0.39224,0.40153 -0.39687,0.26458 -0.005,-0.13695 -0.18322,-0.0179 -0.39688,0.26458 -0.21365,0.28248 -0.3911,0.40154 -0.39434,0.26459 -0.003,-0.13696 -0.25169,0.0486 -0.55213,0.41245 -0.30043,0.3638 -0.46172,0.50028 -0.35841,0.30328 0.13171,-0.25116 -0.0129,-0.22666 -0.48399,0.082 -0.3695,0.24211 -0.73761,0.61164 -0.81803,0.8212 -0.0804,0.20955 -0.31579,0.381 -0.52307,0.381 -0.20728,0 -0.4483,0.18614 -0.5356,0.41364 -0.0873,0.22751 -0.27266,0.34323 -0.41191,0.25717 -0.13925,-0.0861 -0.38419,0.0883 -0.54431,0.38752 -0.16012,0.29919 -0.39377,0.48056 -0.51921,0.40303 -0.12545,-0.0775 -0.60618,0.33642 -1.06829,0.91989 -0.46212,0.58346 -0.95177,0.9919 -1.08812,0.90763 -0.13635,-0.0843 -0.21519,-9.5e-4 -0.17521,0.18515 0.04,0.18611 -0.10589,0.3492 -0.32417,0.36243 -0.21828,0.0132 -0.37075,0.15655 -0.33882,0.31849 0.0319,0.16194 -0.46936,0.76648 -1.11398,1.34343 -0.64462,0.57695 -1.10019,1.12085 -1.01238,1.20866 0.0878,0.0878 -0.036,0.23474 -0.27508,0.3265 -0.23911,0.0917 -0.43474,0.33641 -0.43474,0.54369 0,0.20728 -0.17791,0.44515 -0.39536,0.52859 -0.21744,0.0834 -0.34062,0.24026 -0.27373,0.3485 0.0669,0.10823 -0.14215,0.47992 -0.46454,0.82596 -0.32239,0.34605 -0.53324,0.63197 -0.46856,0.63538 0.16861,0.009 -0.61467,1.726 -0.78734,1.726 -0.079,0 -0.16307,0.25718 -0.18675,0.57151 -0.0237,0.31433 -0.15006,0.64175 -0.28086,0.7276 -0.1308,0.0859 -0.2505,0.3347 -0.266,0.55298 -0.0155,0.21828 -0.1291,1.64703 -0.25246,3.175 -0.12335,1.52797 -0.12868,2.81781 -0.0118,2.86632 0.33374,0.13855 0.24822,1.05061 -0.11829,1.26152 -0.1819,0.10468 -0.24547,0.0959 -0.14126,-0.0195 z M 92.305,195.24802 c 0,-0.0549 0.20836,-0.2633 0.46302,-0.46302 0.41965,-0.32911 0.42901,-0.31975 0.0999,0.0999 -0.34565,0.44073 -0.56292,0.58088 -0.56292,0.36312 z m -63.0408,-38.33251 -0.46684,-0.85822 0.53299,0.62463 c 0.45353,0.5315 0.69593,1.09928 0.46684,1.09349 -0.0364,-9.2e-4 -0.27622,-0.38787 -0.53299,-0.8599 z m -2.31128,-3.90093 c -0.15576,-0.29104 -0.22367,-0.52916 -0.15091,-0.52916 0.0728,0 0.25973,0.23812 0.41549,0.52916 0.15576,0.29105 0.22367,0.52917 0.15091,0.52917 -0.0728,0 -0.25973,-0.23812 -0.41549,-0.52917 z m -1.45521,-2.64583 c -0.22575,-0.43656 -0.35093,-0.79375 -0.27817,-0.79375 0.0728,0 0.317,0.35719 0.54275,0.79375 0.22576,0.43656 0.35094,0.79375 0.27818,0.79375 -0.0728,0 -0.317,-0.35719 -0.54276,-0.79375 z m -1.04132,-2.03911 c -0.14359,-0.37708 -0.1132,-0.40747 0.14811,-0.14811 0.18082,0.17947 0.26212,0.39297 0.18065,0.47443 -0.0815,0.0815 -0.2294,-0.0654 -0.32876,-0.32632 z m -1.32292,-2.38125 c -0.14358,-0.37708 -0.11319,-0.40747 0.14811,-0.14811 0.18083,0.17947 0.26212,0.39297 0.18066,0.47443 -0.0815,0.0815 -0.22941,-0.0654 -0.32877,-0.32632 z m -0.52916,-1.05833 c -0.14359,-0.37709 -0.1132,-0.40748 0.14811,-0.14812 0.18082,0.17948 0.26211,0.39297 0.18065,0.47444 -0.0815,0.0815 -0.22941,-0.0654 -0.32876,-0.32632 z m -1.5875,-3.175 c -0.14359,-0.37709 -0.1132,-0.40748 0.14811,-0.14812 0.18082,0.17948 0.26211,0.39297 0.18065,0.47444 -0.0815,0.0815 -0.22941,-0.0654 -0.32876,-0.32632 z m 89.80903,-2.27702 c 0,-0.0455 0.38695,-0.43248 0.85989,-0.85989 l 0.8599,-0.77711 -0.77711,0.8599 c -0.72437,0.80154 -0.94268,0.98151 -0.94268,0.7771 z m -91.13195,-0.6334 c -0.14359,-0.37708 -0.1132,-0.40747 0.14811,-0.14811 0.18082,0.17947 0.26212,0.39297 0.18065,0.47443 -0.0815,0.0815 -0.2294,-0.0654 -0.32876,-0.32632 z m -3.42391,-8.15758 c -0.25532,-0.66534 -0.18,-0.83702 0.1319,-0.30065 0.15444,0.26557 0.22506,0.5386 0.15694,0.60672 -0.0681,0.0681 -0.1981,-0.0696 -0.28884,-0.30607 z m 87.94127,-1.44498 c 0.21828,-0.14106 0.51594,-0.25648 0.66146,-0.25648 0.14552,0 0.086,0.11542 -0.13229,0.25648 -0.21828,0.14107 -0.51594,0.25648 -0.66146,0.25648 -0.14552,0 -0.086,-0.11541 0.13229,-0.25648 z m 1.32292,-0.52916 c 0.21828,-0.14107 0.51594,-0.25648 0.66146,-0.25648 0.14552,0 0.086,0.11541 -0.13229,0.25648 -0.21829,0.14106 -0.51594,0.25648 -0.66146,0.25648 -0.14552,0 -0.086,-0.11542 0.13229,-0.25648 z m 1.32292,-0.52917 c 0.21828,-0.14106 0.51593,-0.25648 0.66145,-0.25648 0.14553,0 0.086,0.11542 -0.13229,0.25648 -0.21828,0.14106 -0.51593,0.25648 -0.66146,0.25648 -0.14552,0 -0.086,-0.11542 0.1323,-0.25648 z m 2.64583,-1.05833 c 0.21828,-0.14107 0.51594,-0.25648 0.66146,-0.25648 0.14552,0 0.086,0.11541 -0.13229,0.25648 -0.21829,0.14106 -0.51594,0.25648 -0.66146,0.25648 -0.14552,0 -0.086,-0.11542 0.13229,-0.25648 z m 1.5875,-0.66146 c 0.3638,-0.20797 0.78052,-0.37813 0.92604,-0.37813 0.14552,0 -0.0331,0.17016 -0.39687,0.37813 -0.36381,0.20797 -0.78052,0.37812 -0.92605,0.37812 -0.14552,0 0.0331,-0.17015 0.39688,-0.37812 z m 1.32292,-0.50086 c 0,-0.0572 0.18477,-0.17489 0.41061,-0.26155 0.23546,-0.0904 0.34167,-0.046 0.24897,0.10398 -0.15538,0.25141 -0.65958,0.37186 -0.65958,0.15757 z m 2.04611,-0.98718 c 0.17947,-0.18082 0.39297,-0.26212 0.47443,-0.18065 0.0815,0.0815 -0.0654,0.2294 -0.32632,0.32876 -0.37708,0.14359 -0.40748,0.1132 -0.14811,-0.14811 z m 0.8643,-0.34543 c 0,-0.0728 0.23813,-0.25973 0.52917,-0.41549 0.29104,-0.15576 0.52917,-0.22367 0.52917,-0.15091 0,0.0728 -0.23813,0.25973 -0.52917,0.41549 -0.29104,0.15576 -0.52917,0.22367 -0.52917,0.15091 z m 1.85209,-1.05833 c 0,-0.0728 0.23812,-0.25973 0.52916,-0.41549 0.29104,-0.15576 0.52917,-0.22367 0.52917,-0.15091 0,0.0728 -0.23813,0.25973 -0.52917,0.41549 -0.29104,0.15576 -0.52916,0.22367 -0.52916,0.15091 z m 2.91041,-1.8084 c 0,-0.0583 0.50602,-0.50816 1.12448,-0.99966 0.61847,-0.4915 0.95646,-0.68446 0.7511,-0.42881 -0.38679,0.48154 -1.87558,1.61541 -1.87558,1.42847 z M 12.44261,118.35417 c 0,-0.36381 0.0601,-0.51263 0.13345,-0.33073 0.0734,0.1819 0.0734,0.47955 0,0.66146 -0.0734,0.1819 -0.13345,0.0331 -0.13345,-0.33073 z m 111.4801,-0.26459 c 0.26339,-0.29104 0.53842,-0.52916 0.61118,-0.52916 0.0728,0 -0.0832,0.23812 -0.3466,0.52916 -0.26338,0.29104 -0.53842,0.52917 -0.61118,0.52917 -0.0728,0 0.0832,-0.23813 0.3466,-0.52917 z M 12.15714,117.14149 c 0.0127,-0.30822 0.0754,-0.37092 0.15985,-0.15985 0.0764,0.191 0.067,0.4192 -0.0209,0.50712 -0.0879,0.0879 -0.15046,-0.0684 -0.13897,-0.34727 z m -0.52917,-2.38125 c 0.0127,-0.30822 0.0754,-0.37092 0.15986,-0.15985 0.0764,0.191 0.067,0.4192 -0.0209,0.50712 -0.0879,0.0879 -0.15045,-0.0684 -0.13897,-0.34727 z m 115.13425,-2.75607 c 0,-0.50933 0.0545,-0.71769 0.121,-0.46302 0.0666,0.25466 0.0666,0.67138 0,0.92604 -0.0665,0.25466 -0.121,0.0463 -0.121,-0.46302 z m -115.928,-1.47726 c 0.0127,-0.30822 0.0754,-0.37092 0.15986,-0.15985 0.0764,0.19099 0.067,0.4192 -0.0209,0.50712 -0.0879,0.0879 -0.15045,-0.0684 -0.13897,-0.34727 z m 114.24537,-3.74826 c -0.32911,-0.41965 -0.31975,-0.42901 0.0999,-0.0999 0.44073,0.34564 0.58089,0.56292 0.36313,0.56292 -0.0549,0 -0.2633,-0.20836 -0.46302,-0.46302 z m -1.30341,-1.5875 -0.9118,-0.99219 0.99219,0.9118 c 0.9235,0.84868 1.11383,1.07257 0.91179,1.07257 -0.0442,0 -0.4907,-0.44648 -0.99218,-0.99218 z m 46.05174,-0.46303 c 0.34177,-0.3638 0.68094,-0.66145 0.7537,-0.66145 0.0728,0 -0.14734,0.29765 -0.48912,0.66145 -0.34177,0.36381 -0.68094,0.66146 -0.7537,0.66146 -0.0728,0 0.14734,-0.29765 0.48912,-0.66146 z m 2.11667,-2.06716 c 0,-0.0455 0.38695,-0.43249 0.85989,-0.8599 l 0.8599,-0.7771 -0.77711,0.85989 c -0.72437,0.80155 -0.94268,0.98152 -0.94268,0.77711 z m -52.51792,-0.44335 c -0.0927,-0.14998 0.0135,-0.19433 0.24897,-0.10398 0.45836,0.17589 0.54223,0.36554 0.16164,0.36554 -0.13693,0 -0.32171,-0.1177 -0.41061,-0.26156 z m -1.05834,-0.52916 c -0.0927,-0.14998 0.0135,-0.19434 0.24897,-0.10399 0.45837,0.1759 0.54224,0.36554 0.16165,0.36554 -0.13693,0 -0.32171,-0.1177 -0.41062,-0.26155 z M 9.84745,99.304169 c 0,-1.23693 0.0456,-1.74295 0.10128,-1.12448 0.0557,0.61846 0.0557,1.63049 0,2.248961 -0.0557,0.61846 -0.10128,0.11244 -0.10128,-1.124481 z m 189.63469,-0.68351 c 0.0127,-0.30822 0.0754,-0.37092 0.15985,-0.15985 0.0764,0.19099 0.067,0.4192 -0.0209,0.50712 -0.0879,0.0879 -0.15046,-0.0684 -0.13897,-0.34727 z m -101.3563,-3.54983 c -0.48365,-0.31256 -0.0659,-0.31256 0.66145,0 0.34892,0.14994 0.39398,0.23235 0.1323,0.24194 -0.21829,0.008 -0.57547,-0.10087 -0.79375,-0.24194 z m -1.5875,-0.52916 c -0.48365,-0.31256 -0.0659,-0.31256 0.66145,0 0.34892,0.14993 0.39398,0.23234 0.1323,0.24193 -0.21829,0.008 -0.57547,-0.10087 -0.79375,-0.24193 z M 9.83068,92.028119 c 0.002,-0.7276 0.0534,-0.99385 0.11418,-0.59167 0.0608,0.40218 0.0592,0.9975 -0.004,1.32292 -0.0628,0.32542 -0.11256,-0.004 -0.11057,-0.73125 z m 0.25563,-3.70416 c 0.003,-0.58209 0.0571,-0.78906 0.12041,-0.45994 0.0633,0.32912 0.0609,0.80537 -0.005,1.05834 -0.0662,0.25296 -0.11801,-0.0163 -0.11507,-0.5984 z m 73.95046,0.51012 c -0.98913,-0.53661 -0.92892,-0.76011 0.0661,-0.24554 0.43656,0.22576 0.79375,0.46694 0.79375,0.53596 0,0.17026 -0.0284,0.16066 -0.8599,-0.29042 z m -4.10104,-2.52494 c -0.90183,-0.57755 -1.19368,-0.9654 -0.39687,-0.52742 0.60707,0.33368 1.55808,1.0691 1.38906,1.07416 -0.0728,0.002 -0.51925,-0.24386 -0.99219,-0.54674 z m -69.59998,-0.36643 c 0.005,-0.43656 0.0647,-0.58313 0.13177,-0.3257 0.0671,0.25744 0.0627,0.61462 -0.01,0.79375 -0.0725,0.17914 -0.12736,-0.0315 -0.12197,-0.46805 z m 189.14639,-0.28663 c 0.0127,-0.30823 0.0754,-0.37092 0.15985,-0.15986 0.0764,0.191 0.067,0.4192 -0.0209,0.50712 -0.0879,0.0879 -0.15046,-0.0683 -0.13897,-0.34726 z M 10.59053,83.958329 c 0,-0.3638 0.0601,-0.51263 0.13345,-0.33073 0.0734,0.1819 0.0734,0.47956 0,0.66146 -0.0734,0.1819 -0.13345,0.0331 -0.13345,-0.33073 z m 65.27656,-0.46302 c -0.32911,-0.41964 -0.31975,-0.429 0.0999,-0.0999 0.44073,0.34564 0.58089,0.56291 0.36313,0.56291 -0.0549,0 -0.2633,-0.20836 -0.46302,-0.46302 z m -65.01198,-1.12448 c 0,-0.3638 0.0601,-0.51263 0.13345,-0.33073 0.0734,0.1819 0.0734,0.47956 0,0.66146 -0.0734,0.1819 -0.13345,0.0331 -0.13345,-0.33073 z m 62.79677,-0.42005 -0.79375,-0.68201 0.85989,0.56905 c 0.47295,0.31297 0.8599,0.62047 0.8599,0.68332 0,0.19806 -0.11204,0.12905 -0.92604,-0.57036 z m -62.57396,-0.47503 c 0,-0.28395 0.78724,-1.75075 0.93963,-1.75075 0.0728,0 -0.0645,0.38695 -0.30503,0.8599 -0.49113,0.9657 -0.6346,1.16711 -0.6346,0.89085 z m 57.91,-3.00752 c -0.32911,-0.41965 -0.31975,-0.429 0.0999,-0.0999 0.44072,0.34565 0.58088,0.56292 0.36312,0.56292 -0.0549,0 -0.2633,-0.20836 -0.46302,-0.46302 z m -56.3225,-0.33073 c 0.15576,-0.29104 0.34273,-0.52917 0.41549,-0.52917 0.0728,0 0.005,0.23813 -0.15091,0.52917 -0.15576,0.29104 -0.34273,0.52917 -0.41549,0.52917 -0.0728,0 -0.005,-0.23813 0.15091,-0.52917 z m 55.14049,-0.59531 -0.50403,-0.59532 0.59531,0.50403 c 0.32742,0.27722 0.59531,0.54511 0.59531,0.59532 0,0.21173 -0.21293,0.0554 -0.68659,-0.50403 z m -1.19924,-0.92604 c -0.32911,-0.41965 -0.31975,-0.42901 0.0999,-0.0999 0.44072,0.34564 0.58088,0.56292 0.36312,0.56292 -0.0549,0 -0.2633,-0.20836 -0.46302,-0.46302 z m -51.16313,-2.4474 c 0.26339,-0.29104 0.53842,-0.52917 0.61119,-0.52917 0.0728,0 -0.0832,0.23813 -0.3466,0.52917 -0.26339,0.29104 -0.53842,0.52917 -0.61118,0.52917 -0.0728,0 0.0832,-0.23813 0.34659,-0.52917 z m 44.73016,-2.25737 c -0.28247,-0.21366 -0.38635,-0.38846 -0.23083,-0.38846 0.15552,0 0.43098,0.17859 0.61213,0.39687 0.41201,0.49644 0.2824,0.49358 -0.3813,-0.008 z m -40.36453,-1.81128 c 0,-0.0549 0.20836,-0.2633 0.46302,-0.46302 0.41964,-0.3291 0.429,-0.31975 0.0999,0.0999 -0.34564,0.44073 -0.56291,0.58089 -0.56291,0.36312 z m 37.15838,-0.31157 c -0.49319,-0.39513 -0.48994,-0.40001 0.0817,-0.12298 0.32743,0.15866 0.59532,0.34383 0.59532,0.41147 0,0.20246 -0.13722,0.14399 -0.67704,-0.28849 z M 46.21789,64.992175 c 0.191,-0.07643 0.4192,-0.06703 0.50712,0.02089 0.0879,0.08792 -0.0684,0.150453 -0.34726,0.138964 -0.30823,-0.0127 -0.37092,-0.07539 -0.15986,-0.159852 z M 30.60748,64.727591 c 0.19099,-0.07643 0.4192,-0.06703 0.50711,0.02089 0.0879,0.08792 -0.0684,0.150453 -0.34726,0.138965 -0.30823,-0.0127 -0.37092,-0.07539 -0.15985,-0.159853 z m 1.32291,-0.264583 c 0.191,-0.07643 0.4192,-0.06703 0.50712,0.02089 0.0879,0.08792 -0.0684,0.150453 -0.34726,0.138964 -0.30823,-0.0127 -0.37092,-0.07539 -0.15986,-0.159852 z m 3.56038,-0.53178 c 0.25743,-0.06708 0.61462,-0.06267 0.79375,0.0098 0.17913,0.07248 -0.0315,0.127362 -0.46806,0.12197 -0.43656,-0.0054 -0.58312,-0.06469 -0.32569,-0.131774 z m 4.2283,9.7e-4 c 0.25466,-0.06655 0.67138,-0.06655 0.92604,0 0.25466,0.06655 0.0463,0.121 -0.46302,0.121 -0.50933,0 -0.71769,-0.05445 -0.46302,-0.121 z m 150.50265,-0.765706 c 0.0127,-0.308225 0.0754,-0.37092 0.15986,-0.159853 0.0764,0.190996 0.067,0.419199 -0.0209,0.507118 -0.0879,0.08792 -0.15045,-0.06835 -0.13897,-0.347265 z m 0,-7.672917 c 0.0127,-0.308225 0.0754,-0.370919 0.15986,-0.159853 0.0764,0.190997 0.067,0.4192 -0.0209,0.507119 -0.0879,0.08792 -0.15045,-0.06835 -0.13897,-0.347266 z"
       id="path6"
       sodipodi:nodetypes="scssssssssssssssssssssssssssssssssssssssssssssssssssssssssssssssssssscssscssscsssssssssssssssssssssssssssssscssssssssscsssccsssssscssssssssssssssssssssssssssscssssssssssssssssssssssssssssssssssssssssssscccscsssssssssssssssssssssssssssssssssssscssssssssssssssssssssssssssssssscssssssssssssssssssssssssssssssssssssssssssssssssssssssssssssssssssssssssssssssssssssssssssscsssssssssscssssssssssssssssssssssssssscsccccscccssssssscscscccssssssssssssssssssscssssssssssssssssscsssssssssssscssccssssssssssssssssssssssssssssssssssssssssssss" />
    <path
       style="fill:#1455aa;fill-opacity:1"
       d="m 117.95716,174.39402 c 1.5354,-2.60231 2.01426,-6.11762 1.1715,-8.59993 -0.72645,-2.13971 -2.08599,-3.9342 -6.16088,-8.13193 -4.97491,-5.12486 -5.71382,-6.4276 -5.71382,-10.07374 0,-3.38945 0.89137,-5.15644 4.34786,-8.61889 4.25087,-4.25821 9.30407,-7.20066 20.78756,-12.10448 16.12175,-6.8845 22.31832,-10.15792 30.21545,-15.9617 21.35688,-15.695661 31.67135,-40.270901 26.57823,-63.325227 -0.28934,-1.309687 -0.60209,-2.619375 -0.695,-2.910416 -0.39215,-1.228335 1.27136,2.181318 2.78623,5.710882 3.59168,8.36839 6.27784,18.49179 7.68022,28.94474 0.68156,5.08009 0.95907,15.6152 0.5333,20.24542 -0.92767,10.088341 -2.95802,19.073151 -6.24909,27.653641 -3.06302,7.98595 -7.64891,14.52393 -13.75935,19.61636 -7.34485,6.12118 -13.64482,9.28575 -36.33943,18.25384 -4.60312,1.81898 -12.06025,4.78005 -16.5714,6.58014 -4.51114,1.80009 -8.41496,3.35351 -8.67516,3.45204 -0.43243,0.16375 -0.42695,0.10097 0.0638,-0.73075 z"
       id="path24" />
    <path
       style="fill:#333333;fill-opacity:1"
       d="m 40.94209,175.04115 c -0.32911,-0.41965 -0.31975,-0.42901 0.0999,-0.0999 0.25466,0.19972 0.46302,0.40808 0.46302,0.46302 0,0.21776 -0.21727,0.0776 -0.56291,-0.36312 z"
       id="path23" />
    <path
       style="fill:#333333;fill-opacity:1"
       d="m 42.265,176.89323 c -0.3291,-0.41964 -0.31975,-0.429 0.0999,-0.0999 0.25466,0.19972 0.46302,0.40808 0.46302,0.46303 0,0.21776 -0.21727,0.0776 -0.56292,-0.36313 z"
       id="path22" />
    <path
       style="fill:#333333;fill-opacity:1"
       d="m 44.91084,180.5974 c -0.32911,-0.41965 -0.31975,-0.42901 0.0999,-0.0999 0.44073,0.34565 0.58089,0.56292 0.36313,0.56292 -0.0549,0 -0.2633,-0.20836 -0.46302,-0.46302 z"
       id="path20" />
    <path
       style="fill:#333333;fill-opacity:1"
       d="m 48.23528,185.11618 c -0.40748,-0.53423 -0.60575,-0.88782 -0.4406,-0.78575 0.33872,0.20934 1.48416,1.75707 1.30037,1.75707 -0.0654,0 -0.4523,-0.4371 -0.85977,-0.97132 z"
       id="path18" />
    <path
       style="fill:#333333;fill-opacity:1"
       d="m 49.40875,186.68281 c -0.3291,-0.41964 -0.31975,-0.429 0.0999,-0.0999 0.44073,0.34564 0.58089,0.56291 0.36312,0.56291 -0.0549,0 -0.2633,-0.20836 -0.46302,-0.46302 z"
       id="path17" />
    <path
       style="fill:#333333;fill-opacity:1"
       d="m 54.31216,193.1651 -0.50403,-0.59531 0.59531,0.50403 c 0.55945,0.47366 0.71576,0.6866 0.50403,0.6866 -0.0502,0 -0.3181,-0.26789 -0.59531,-0.59532 z"
       id="path14" />
    <path
       style="fill:#333333;fill-opacity:1"
       d="m 57.11011,196.79673 c -0.18407,-0.2218 -0.28344,-0.45451 -0.22082,-0.51713 0.0626,-0.0626 0.2592,0.11884 0.43682,0.40327 0.38413,0.61508 0.25602,0.68261 -0.216,0.11386 z"
       id="path13" />
    <path
       style="fill:#333333;fill-opacity:1"
       d="m 58.28091,198.19219 -0.50403,-0.59531 0.59531,0.50402 c 0.55945,0.47367 0.71576,0.6866 0.50403,0.6866 -0.0502,0 -0.3181,-0.26789 -0.59531,-0.59531 z"
       id="path12" />
    <path
       style="fill:#333333;fill-opacity:1"
       d="m 60.25667,200.70573 c -0.32911,-0.41964 -0.31975,-0.429 0.0999,-0.0999 0.25466,0.19972 0.46302,0.40808 0.46302,0.46303 0,0.21776 -0.21728,0.0776 -0.56292,-0.36313 z"
       id="path11" />
    <path
       style="fill:#333333;fill-opacity:1"
       d="m 63.04341,204.01302 -0.50403,-0.59531 0.59531,0.50403 c 0.55945,0.47366 0.71576,0.68659 0.50403,0.68659 -0.0502,0 -0.3181,-0.26789 -0.59531,-0.59531 z"
       id="path10" />
    <path
       style="fill:#333333;fill-opacity:1"
       d="m 67.16959,209.10625 c -0.15576,-0.29104 -0.22367,-0.52917 -0.15091,-0.52917 0.0728,0 0.25973,0.23813 0.41549,0.52917 0.15576,0.29104 0.22367,0.52917 0.15091,0.52917 -0.0728,0 -0.25973,-0.23813 -0.41549,-0.52917 z"
       id="path9" />
    <path
       style="fill:#d12b2a;fill-opacity:1"
       d="M 104.18772,248.09041 C 103.01467,247.77568 94.03866,237.1648 90.58698,232.01246 82.84813,220.46061 81.47464,212.261 85.85713,203.77569 c 4.40182,-8.52273 12.42118,-14.39587 29.46662,-21.58048 6.88239,-2.90091 14.19959,-5.85966 28.04584,-11.3405 19.67583,-7.78839 27.59774,-11.46931 34.14736,-15.86657 2.06438,-1.38598 3.57261,-2.25223 3.41784,-1.96304 -0.15236,0.28468 -0.94317,1.61917 -1.75736,2.96552 -11.80717,19.52439 -24.45867,36.35897 -49.06398,65.28646 -7.62257,8.96156 -18.03967,20.76945 -22.23318,25.20157 -1.70856,1.80577 -2.18855,2.01527 -3.69255,1.61176 z"
       id="path5" />
    <ellipse
       style="fill:#558d44;fill-opacity:1;stroke:none;stroke-width:4.9;stroke-linecap:round;stroke-linejoin:round;stroke-dasharray:none;stroke-opacity:1;paint-order:fill markers stroke"
       id="path52"
       cx="60.844723"
       cy="146.75584"
       rx="13.530426"
       ry="14.108649" />
    <circle
       style="fill:#f5bf39;fill-opacity:1;stroke:#ffffff;stroke-width:5.517;stroke-linecap:round;stroke-linejoin:round;stroke-dasharray:none;stroke-opacity:1;paint-order:fill markers stroke"
       id="circle43"
       cx="36.904476"
       cy="62.011906"
       r="8.1773129" />
    <circle
       style="fill:#558d44;fill-opacity:1;stroke:#ffffff;stroke-width:5.517;stroke-linecap:round;stroke-linejoin:round;stroke-dasharray:none;stroke-opacity:1;paint-order:fill markers stroke"
       id="circle44"
       cx="130.45294"
       cy="113.03834"
       r="8.1773129" />
    <circle
       style="fill:#1455aa;fill-opacity:1;stroke:#ffffff;stroke-width:6.34207;stroke-linecap:round;stroke-linejoin:round;stroke-dasharray:none;stroke-opacity:1;paint-order:fill markers stroke"
       id="circle45"
       cx="109.51898"
       cy="166.35442"
       r="9.400239" />
    <circle
       style="fill:#d12b2a;fill-opacity:1;stroke:#ffffff;stroke-width:7.08464;stroke-linecap:round;stroke-linejoin:round;stroke-dasharray:none;stroke-opacity:1;paint-order:fill markers stroke"
       id="circle46"
       cx="80.898438"
       cy="201.18977"
       r="10.500872" />
  </g>
</svg>
