<svg xmlns="http://www.w3.org/2000/svg" viewBox="0 0 48 48" fill="none">
  <defs>
    <linearGradient id="sun" x1="24" y1="14" x2="24" y2="26" gradientUnits="userSpaceOnUse">
      <stop stop-color="#F3D08F"/>
      <stop offset="0.55" stop-color="#EAB14E"/>
      <stop offset="1" stop-color="#C9922E"/>
    </linearGradient>
    <linearGradient id="plaque" x1="8" y1="4" x2="40" y2="44" gradientUnits="userSpaceOnUse">
      <stop stop-color="#1B3D6B"/>
      <stop offset="1" stop-color="#13294A"/>
    </linearGradient>
  </defs>
  <rect width="48" height="48" rx="12" fill="url(#plaque)"/>
  <rect x="3" y="3" width="42" height="42" rx="10" stroke="#4E7BB0" stroke-opacity="0.35" stroke-width="1"/>
  <circle cx="24" cy="24" r="16.5" stroke="#EAB14E" stroke-opacity="0.9" stroke-width="1.35"/>
  <circle cx="24" cy="24" r="14.25" stroke="#EAB14E" stroke-opacity="0.45" stroke-width="0.9"/>
  <path d="M15.5 31.5V22.5C15.5 17.8 19.2 14 24 14C28.8 14 32.5 17.8 32.5 22.5V31.5" stroke="#FCFBF8" stroke-opacity="0.92" stroke-width="1.65" stroke-linecap="round" stroke-linejoin="round"/>
  <path d="M15.5 31.5H32.5" stroke="#FCFBF8" stroke-opacity="0.35" stroke-width="1.2" stroke-linecap="round"/>
  <circle cx="24" cy="22.25" r="4.1" fill="url(#sun)"/>
  <circle cx="24" cy="22.25" r="5.6" stroke="#EAB14E" stroke-opacity="0.35" stroke-width="0.75"/>
  <path d="M18.5 36.5C20.2 34.2 21.6 33.2 24 33.2C26.4 33.2 27.8 34.2 29.5 36.5" stroke="#EAB14E" stroke-width="1.5" stroke-linecap="round" stroke-linejoin="round"/>
  <path d="M20.75 36.5C21.7 35.35 22.6 34.85 24 34.85C25.4 34.85 26.3 35.35 27.25 36.5" stroke="#EAB14E" stroke-opacity="0.45" stroke-width="1.1" stroke-linecap="round"/>
</svg>
