<?xml version="1.0" encoding="iso-8859-1"?>
<!-- Generator: Adobe Illustrator 29.6.1, SVG Export Plug-In . SVG Version: 9.03 Build 0)  -->
<svg version="1.1" id="Layer_1" xmlns="http://www.w3.org/2000/svg" xmlns:xlink="http://www.w3.org/1999/xlink" x="0px" y="0px"
	 viewBox="0 0 1018.723 1018.723" style="enable-background:new 0 0 1018.723 1018.723;" xml:space="preserve">
<g>
	
		<linearGradient id="path136_00000088113705606298597950000005351373392124164009_" gradientUnits="userSpaceOnUse" x1="500.0109" y1="717.659" x2="549.717" y2="717.659">
		<stop  offset="0" style="stop-color:#E60638"/>
		<stop  offset="1" style="stop-color:#A41034"/>
	</linearGradient>
	
		<path id="path136_00000029041281757638796490000004608473962962671282_" style="fill:url(#path136_00000088113705606298597950000005351373392124164009_);" d="
		M523.708,692.835c-0.156,0.006-0.306,0.008-0.46,0.014l-0.001,0.001c-1.513,0.12-3.019,0.338-4.49,0.718
		c-1.596,0.402-3.15,0.969-4.636,1.679c-1.467,0.703-2.864,1.551-4.166,2.527c-1.314,0.985-2.527,2.101-3.624,3.324
		c-1.081,1.215-2.046,2.533-2.875,3.933c-0.822,1.404-1.513,2.886-2.052,4.421c-0.542,1.55-0.924,3.153-1.159,4.778
		c-0.221,1.625-0.284,3.271-0.193,4.909c0.105,1.607,0.352,3.202,0.753,4.762c0.414,1.578,0.98,3.114,1.686,4.585
		c0.706,1.449,1.546,2.832,2.515,4.121c0.98,1.298,2.085,2.502,3.297,3.587c1.215,1.082,2.533,2.044,3.933,2.874
		c1.404,0.822,2.886,1.512,4.421,2.052c1.55,0.542,3.153,0.924,4.778,1.159c1.809,0.241,3.647,0.305,5.467,0.148
		c1.949-0.154,3.874-0.553,5.732-1.157c1.545-0.512,3.038-1.173,4.458-1.97c1.43-0.808,2.774-1.763,4.022-2.83
		c1.216-1.058,2.333-2.227,3.328-3.495c0.998-1.28,1.871-2.657,2.606-4.104c0.726-1.443,1.314-2.954,1.752-4.509
		c0.45-1.606,0.728-3.259,0.857-4.922c0.139-2.046,0.04-4.109-0.325-6.127c-0.286-1.659-0.757-3.285-1.378-4.85
		c-0.603-1.516-1.357-2.972-2.244-4.34c-0.9-1.387-1.944-2.68-3.098-3.864c-1.141-1.161-2.395-2.207-3.737-3.129
		c-1.358-0.926-2.809-1.711-4.319-2.358c-1.499-0.629-3.055-1.114-4.646-1.449c-2.036-0.414-4.123-0.589-6.199-0.486
		L523.708,692.835z"/>
	<linearGradient id="SVGID_1_" gradientUnits="userSpaceOnUse" x1="466.739" y1="712.1052" x2="785.7811" y2="712.1052">
		<stop  offset="0" style="stop-color:#E60638"/>
		<stop  offset="1" style="stop-color:#A41034"/>
	</linearGradient>
	<path style="fill:url(#SVGID_1_);" d="M749.034,679.23c0,0-55.14,64.09-83.56,95.37c-25.94,28.55-75.81,80.73-88.22,93.7
		c-1.84,1.92-2.86,2.98-2.86,2.98c16.34-54.32,2.71-95.4-15.83-126.43c0.13-0.17,0.27-0.33,0.4-0.5c0-0.01,0.03-0.02,0.03-0.03
		c0-0.01-0.01-0.01-0.01-0.01h0.01c1.73-2.22,3.23-4.6,4.5-7.1c0-0.02,0.03-0.04,0.03-0.05v-0.01c1.26-2.49,2.27-5.1,3.03-7.8v-0.01
		c0.8-2.87,1.27-5.71,1.48-8.47c0-0.06,0.03-0.12,0.03-0.18c0.24-3.45,0.07-7.01-0.57-10.59c-0.52-2.98-1.34-5.8-2.39-8.43v-0.02
		c-1.06-2.65-2.37-5.18-3.9-7.55c-1.6-2.46-3.4-4.69-5.36-6.7c-0.02-0.02-0.03-0.04-0.06-0.06c-2-2.03-4.16-3.83-6.44-5.4
		c-0.02-0.01-0.03-0.02-0.06-0.03c-2.4-1.64-4.89-2.99-7.43-4.07c-0.04-0.02-0.09-0.04-0.13-0.06c-2.58-1.08-5.25-1.91-7.99-2.49
		c-0.04-0.01-0.08-0.01-0.12-0.02c-3.46-0.71-7.07-1.02-10.79-0.84h-0.03c-0.08,0-0.04,0-0.22,0.01c-0.26,0.01-0.52,0.02-0.79,0.04
		c-2.28,0.18-4.82,0.54-7.56,1.24c-1.83,0.46-3.62,1.04-5.34,1.72c-12.91-17.84-20.69-31.01-26.76-44.92
		c-10.81-24.78-16.18-51.93-15.29-79.59h0.02c0.07,0.02,0.14,0.05,0.21,0.07l0.04,0.01c2.73,0.96,5.49,1.61,8.22,2.01
		c0.07,0.01,0.13,0.02,0.2,0.03c2.98,0.39,6.13,0.51,9.41,0.24c0.16-0.01,0.32-0.03,0.48-0.05c0.22-0.01,0.44-0.04,0.66-0.06
		c17.13,32,42.8,59.44,74.03,78.04c16.91,10.18,35.34,17.83,54.47,22.72c6.51,1.66,13.11,3.01,19.75,4.02
		c20.02,3.06,40.49,3.13,60.52-0.03c32.03-4.8,62.79-17.58,88.97-36.63C791.144,617.96,777.644,648,749.034,679.23z"/>
	
		<linearGradient id="path134_00000000205071266373578610000012396543917180425643_" gradientUnits="userSpaceOnUse" x1="456.5107" y1="512.1591" x2="506.2185" y2="512.1591">
		<stop  offset="0" style="stop-color:#607DC6"/>
		<stop  offset="1" style="stop-color:#3B2786"/>
	</linearGradient>
	
		<path id="path134_00000132774227178817346170000007357328765059729539_" style="fill:url(#path134_00000000205071266373578610000012396543917180425643_);" d="
		M480.208,487.335c-0.156,0.006-0.307,0.009-0.46,0.014l-0.001,0.001c-1.513,0.12-3.019,0.338-4.49,0.718
		c-1.596,0.402-3.151,0.969-4.636,1.679c-1.467,0.703-2.864,1.551-4.166,2.527c-1.314,0.985-2.527,2.101-3.624,3.324
		c-1.081,1.215-2.046,2.534-2.875,3.933c-0.822,1.404-1.513,2.886-2.052,4.421c-0.542,1.55-0.924,3.153-1.159,4.778
		c-0.221,1.625-0.284,3.271-0.193,4.909c0.105,1.607,0.352,3.202,0.753,4.762c0.414,1.578,0.981,3.116,1.688,4.586
		c0.706,1.448,1.545,2.831,2.513,4.119c0.98,1.298,2.086,2.502,3.298,3.587c1.215,1.082,2.533,2.046,3.933,2.875
		c1.404,0.822,2.886,1.511,4.421,2.051c1.55,0.542,3.153,0.924,4.778,1.159c1.809,0.241,3.647,0.305,5.467,0.148
		c1.949-0.154,3.874-0.553,5.732-1.157c1.545-0.512,3.038-1.173,4.457-1.97c1.43-0.808,2.775-1.763,4.023-2.83
		c1.216-1.058,2.333-2.227,3.328-3.495c0.998-1.28,1.871-2.657,2.606-4.104c0.726-1.443,1.314-2.954,1.752-4.509
		c0.45-1.606,0.729-3.259,0.859-4.922c0.139-2.046,0.04-4.109-0.327-6.127c-0.286-1.659-0.756-3.285-1.377-4.85
		c-0.603-1.516-1.358-2.972-2.246-4.34c-0.9-1.387-1.944-2.68-3.098-3.864c-1.141-1.161-2.396-2.207-3.737-3.129
		c-1.358-0.926-2.808-1.711-4.318-2.358c-1.499-0.629-3.054-1.114-4.645-1.449c-2.036-0.414-4.125-0.589-6.201-0.486
		L480.208,487.335z"/>
	
		<linearGradient id="path133_00000051379862519583228200000014930983011173528730_" gradientUnits="userSpaceOnUse" x1="624.4229" y1="437.8856" x2="674.129" y2="437.8856">
		<stop  offset="0" style="stop-color:#41B40B"/>
		<stop  offset="0.5857" style="stop-color:#87AE0B"/>
		<stop  offset="1" style="stop-color:#F9ED32"/>
	</linearGradient>
	
		<path id="path133_00000000909106532234260810000018339943333909941426_" style="fill:url(#path133_00000051379862519583228200000014930983011173528730_);" d="
		M648.12,413.061c-0.156,0.006-0.306,0.009-0.46,0.014h-0.001c-1.513,0.12-3.019,0.338-4.49,0.718
		c-1.596,0.402-3.151,0.97-4.636,1.68c-1.467,0.703-2.864,1.55-4.166,2.525c-1.314,0.985-2.527,2.103-3.624,3.325
		c-1.081,1.215-2.046,2.533-2.876,3.933c-0.822,1.404-1.513,2.884-2.052,4.419c-0.542,1.55-0.924,3.155-1.159,4.78
		c-0.221,1.625-0.284,3.269-0.193,4.907c0.105,1.607,0.352,3.203,0.753,4.764c0.414,1.578,0.98,3.114,1.686,4.585
		c0.706,1.449,1.546,2.831,2.515,4.119c0.98,1.298,2.085,2.502,3.297,3.587c1.215,1.082,2.535,2.046,3.935,2.876
		c1.404,0.822,2.884,1.512,4.419,2.052c1.55,0.542,3.153,0.924,4.778,1.159c1.809,0.241,3.647,0.305,5.467,0.148
		c1.949-0.154,3.874-0.553,5.732-1.157c1.545-0.512,3.038-1.173,4.458-1.97c1.43-0.808,2.774-1.763,4.022-2.83
		c1.216-1.058,2.333-2.227,3.328-3.495c0.998-1.28,1.873-2.657,2.608-4.104c0.726-1.443,1.311-2.955,1.749-4.51
		c0.45-1.606,0.729-3.258,0.858-4.92c0.139-2.046,0.04-4.109-0.325-6.127c-0.286-1.659-0.757-3.285-1.378-4.85
		c-0.603-1.516-1.357-2.972-2.244-4.34c-0.9-1.387-1.944-2.68-3.098-3.864c-1.141-1.161-2.396-2.207-3.737-3.129
		c-1.357-0.926-2.808-1.711-4.318-2.358c-1.499-0.629-3.057-1.116-4.648-1.45c-2.036-0.414-4.122-0.588-6.198-0.485L648.12,413.061z
		"/>
	
		<linearGradient id="SVGID_00000004506338378680489410000007376157762262166950_" gradientUnits="userSpaceOnUse" x1="503.3042" y1="503.7918" x2="836.5341" y2="503.7918">
		<stop  offset="0" style="stop-color:#607DC6"/>
		<stop  offset="1" style="stop-color:#3B2786"/>
	</linearGradient>
	<path style="fill:url(#SVGID_00000004506338378680489410000007376157762262166950_);" d="M836.534,450.18
		c0,8.59-0.35,17.17-1.06,25.73c-1.07,12.8-2.93,25.53-5.57,38.1c-4,19.06-9.79,37.69-17.28,55.66
		c-20.26,27.37-47.71,48.59-79.31,61.31c-27.66,11.14-57.62,15.4-87.29,12.42c-6.56-0.66-13.08-1.67-19.53-3.03
		c-52.65-11.08-97.44-44.5-123.19-90.9c2.29-1.34,4.38-2.86,6.29-4.49c0.04-0.04,0.08-0.07,0.12-0.11c2.07-1.8,4-3.81,5.73-6.02
		c0-0.01,0.03-0.02,0.03-0.03v-0.01c0.98-1.26,1.88-2.56,2.72-3.91c0.45,0.27,0.9,0.54,1.36,0.79
		c32.05,18.76,69.25,28.77,106.42,27.82c11.63-0.24,23.24-1.5,34.66-3.74c6.4-1.25,12.74-2.81,18.99-4.67
		c27.38-8.15,53.06-22.01,74.58-40.84c19.75-17.01,36.04-37.96,47.9-61.16c3.12-6.12,5.94-12.39,8.43-18.79
		c6.21-15.97,10.39-32.73,12.26-49.8c0.65-5.59,1.06-11.21,1.24-16.83c0.03-1.11,0.07-2.21,0.08-3.33c0.01-0.36,0.01-0.73,0.01-1.09
		c0.87,3,1.7,6.01,2.49,9.03C833.204,397.73,836.534,423.9,836.534,450.18z"/>
	
		<linearGradient id="SVGID_00000004505214680724111630000011686642217909109416_" gradientUnits="userSpaceOnUse" x1="238.8642" y1="615.6602" x2="627.0441" y2="615.6602">
		<stop  offset="0" style="stop-color:#41B40B"/>
		<stop  offset="0.5857" style="stop-color:#87AE0B"/>
		<stop  offset="1" style="stop-color:#F9ED32"/>
	</linearGradient>
	<path style="fill:url(#SVGID_00000004505214680724111630000011686642217909109416_);" d="M627.044,400.75
		c-1.28,0.77-2.52,1.6-3.72,2.5v0.01c-2.3,1.72-4.4,3.66-6.29,5.76c-0.02,0.02-0.02,0.04-0.05,0.06c-1.86,2.09-3.52,4.36-4.96,6.78
		c-0.02,0.03-0.02,0.06-0.05,0.09c-1.4,2.39-2.59,4.94-3.53,7.61v0.03c-0.96,2.74-1.61,5.5-2.01,8.24c0,0.04-0.02,0.09-0.02,0.14
		c-0.39,2.8-0.49,5.63-0.34,8.43v0.16c0.18,2.7,0.6,5.43,1.29,8.15c0,0.03,0.03,0.06,0.03,0.1c0.71,2.71,1.68,5.35,2.9,7.88
		c0.02,0.03,0.02,0.06,0.05,0.1c0.24,0.48,0.48,0.96,0.74,1.44c-32.85,18.24-68.12,24.42-99.62,22.79c-1.77-1.7-3.65-3.22-5.62-4.58
		c-0.02-0.01-0.03-0.02-0.06-0.04c-2.4-1.63-4.9-2.98-7.43-4.07c-0.05-0.01-0.09-0.03-0.13-0.05c-2.58-1.08-5.26-1.92-7.99-2.49
		c-0.04-0.01-0.08-0.02-0.12-0.02c-3.46-0.71-7.08-1.03-10.79-0.84h-0.03c-0.08,0-0.04,0-0.22,0c-0.26,0.01-0.53,0.03-0.79,0.05
		c-2.28,0.18-4.83,0.53-7.56,1.23c-2.81,0.71-5.51,1.69-8.05,2.91l-0.03,0.01c-2.55,1.23-4.98,2.7-7.24,4.4
		c-2.3,1.73-4.41,3.66-6.29,5.76c-0.02,0.02-0.03,0.04-0.05,0.06c-1.87,2.09-3.53,4.36-4.96,6.79c-0.02,0.02-0.03,0.05-0.06,0.08
		c-1.4,2.4-2.59,4.94-3.53,7.62v0.03c-0.95,2.74-1.61,5.5-2,8.23c0,0.05-0.03,0.1-0.03,0.14c-0.38,2.81-0.49,5.63-0.33,8.43v0.17
		c0.18,2.7,0.59,5.42,1.29,8.14c0,0.03,0.03,0.07,0.03,0.1c0.71,2.72,1.68,5.36,2.89,7.88c0.02,0.04,0.03,0.07,0.05,0.1
		c1.21,2.47,2.66,4.86,4.36,7.12c0,0.01,0.03,0.01,0.03,0.02v0.01c0.2,0.26,0.4,0.52,0.6,0.78c-2.15,10.15-3.13,19.95-3.13,29.45
		c0,45.42,22.48,84.05,47.97,120.78c-1.73,1.99-3.28,4.14-4.64,6.42c-0.01,0.03-0.02,0.05-0.05,0.08c-1.4,2.4-2.59,4.94-3.53,7.62
		v0.03c-0.96,2.74-1.61,5.5-2,8.23c0,0.05-0.03,0.1-0.03,0.14c-0.38,2.81-0.49,5.63-0.33,8.43v0.17c0.17,2.7,0.59,5.43,1.29,8.14
		c0,0.03,0.02,0.07,0.02,0.1c0.72,2.72,1.68,5.36,2.9,7.89c0.02,0.03,0.02,0.06,0.05,0.09c1.21,2.47,2.65,4.86,4.35,7.12
		c0,0.01,0.03,0.02,0.03,0.02h0.01v0.01c1.69,2.24,3.6,4.32,5.71,6.2c0.01,0.02,0.01,0.03,0.04,0.04c2.1,1.88,4.37,3.54,6.79,4.97
		c0.03,0.02,0.06,0.03,0.09,0.05c2.4,1.41,4.94,2.59,7.61,3.53l0.04,0.01c2.74,0.96,5.5,1.61,8.23,2.01
		c0.06,0.01,0.13,0.02,0.19,0.03c2.98,0.39,6.13,0.51,9.42,0.23c3.47-0.28,6.79-0.97,9.91-1.99c0.03-0.01,0.06-0.02,0.09-0.03
		c0.4-0.13,0.79-0.26,1.18-0.4c29.15,49.35,40.96,100.94-13.55,167.06c-6.67-7.88-13.62-15.79-20.78-23.72
		c-101.79-112.79-247.02-231.74-266.42-382.91c0-67.73,32.23-131.42,86.8-171.53c5.13-3.77,10.42-7.31,15.86-10.6
		c26.08-15.78,55.24-25.78,85.52-29.32c6.32-0.73,12.67-1.19,19.03-1.36c1.89-0.05,3.78-0.07,5.67-0.07v-0.01
		c9.93,0,19.67,0.68,29.18,2.01C540.374,316.2,591.104,349.79,627.044,400.75z"/>
	<path id="path130_00000175285850734188782470000013211358687774899613_" style="fill:#1A1A1A;" d="M621.577,362.47
		c-0.999-1.087-2.008-2.166-3.028-3.233c0,0-0.001,0-0.001,0C619.568,360.305,620.578,361.383,621.577,362.47z"/>
	<path id="path129_00000031918943456994981410000002484915142774138765_" style="fill:#1A1A1A;" d="M621.577,362.467
		c-0.938-1.021-1.886-2.033-2.843-3.037c0.957,1.004,1.903,2.016,2.842,3.037H621.577z"/>
	
		<linearGradient id="path128_00000008108010895283240570000017778957186753105542_" gradientUnits="userSpaceOnUse" x1="215.5742" y1="342.6692" x2="806.2183" y2="342.6692">
		<stop  offset="0" style="stop-color:#E87D1D"/>
		<stop  offset="1" style="stop-color:#ECCD00"/>
	</linearGradient>
	
		<path id="path128_00000119800140674895948750000007060802275029426320_" style="fill:url(#path128_00000008108010895283240570000017778957186753105542_);" d="
		M805.074,340.81c-1.21-10.84-3.39-21.56-6.5-32.02c-1.97-6.63-4.31-13.14-7.01-19.51c-1.58-3.72-3.32-7.39-5.21-11.02
		c-0.88-1.7-1.79-3.38-2.74-5.06c-2.97-5.25-6.25-10.4-9.83-15.43c-3.57-5.03-7.43-9.95-11.55-14.74
		c-7.51-8.73-15.88-17.04-24.97-24.87c-0.03-0.03-0.06-0.06-0.09-0.08c-37.66-32.46-87.52-56.83-138.38-69.22
		c-24.44-5.97-49.11-9.16-72.77-9.16v-0.01c-49.27,0.01-97.82,11.73-141.66,34.22c-13.54,6.94-26.55,14.87-38.92,23.72
		c-81.51,58.29-129.87,152.34-129.87,252.55c0,19.63,1.86,39.21,5.56,58.49c2.18-49.03,20.43-97.29,51.49-135.34
		c13.97-17.46,30.61-32.64,49.08-45.16c5.41-3.67,10.99-7.11,16.69-10.31c29.04-16.31,61.58-26.44,94.77-29.15
		c3.02-0.24,6.04-0.43,9.07-0.55l-41.77-24.2l0.03-15.48l55.78,39.18c1.44-2.03,2.96-4.01,4.57-5.91l-60.32-50.77l0.03-20.27
		l20.27,0.03l50.59,60.47c1.91-1.6,3.89-3.12,5.93-4.55l-39.01-55.9l15.47,0.03l29.84,51.85c6.41-3.7,13.34-6.6,20.66-8.56
		l-15.39-57.78l10.97-10.93l11.72,67.09c2.44-0.43,4.91-0.75,7.42-0.97l-6.75-78.47l14.36-14.31l14.31,14.35l-6.98,78.41
		c2.51,0.21,4.98,0.53,7.42,0.95l11.92-66.96l10.93,10.96l-15.53,57.6c7.34,1.95,14.3,4.84,20.73,8.54l29.86-51.55l15.49,0.02
		l-39.03,55.55c2.05,1.43,4.04,2.95,5.96,4.55l50.56-60.07l20.28,0.03l-0.04,20.27l-60.18,50.34c1.62,1.91,3.15,3.89,4.59,5.94
		l55.57-38.78l-0.03,15.48l-51.49,29.62c3.74,6.44,6.68,13.4,8.66,20.75l57.31-15.26l10.93,10.96l-66.6,11.64
		c0.43,2.45,0.76,4.94,0.98,7.46l77.98-6.71l14.31,14.36l-14.36,14.31l-77.91-6.93c-0.22,2.52-0.54,5.01-0.97,7.46
		c-1.21-1.15-2.42-2.29-3.65-3.41c1.23,1.12,2.44,2.26,3.65,3.42l66.48,11.82l-10.96,10.93l-45.14-12.17
		c3.79,4.14,7.43,8.41,10.91,12.81c4.89,6.19,9.47,12.64,13.71,19.3c0,0,0,0,0,0.01c0.29-0.02,0.59-0.04,0.88-0.05h0.03
		c0.49-0.03,0.98-0.04,1.47-0.05c0.59-0.01,1.16,0.06,1.74,0.07c1.3,0.03,2.59,0.11,3.87,0.26c0.58,0.06,1.15,0.16,1.72,0.25
		c1.23,0.19,2.46,0.44,3.67,0.73c0.47,0.12,0.94,0.24,1.4,0.37c1.53,0.42,3.04,0.94,4.51,1.53c0.1,0.04,0.19,0.06,0.28,0.1
		c1.62,0.68,3.19,1.45,4.71,2.32c0.34,0.19,0.67,0.42,1.01,0.62c1.18,0.71,2.33,1.48,3.44,2.3c0.34,0.25,0.68,0.51,1.01,0.77
		c1.29,1,2.51,2.08,3.67,3.22c0.06,0.05,0.12,0.1,0.18,0.16c1.26,1.27,2.44,2.62,3.54,4.03c0.18,0.23,0.34,0.48,0.51,0.71
		c0.89,1.19,1.71,2.42,2.47,3.69c0.19,0.33,0.38,0.66,0.57,0.99c0.77,1.37,1.47,2.79,2.09,4.23c0.06,0.16,0.14,0.31,0.21,0.46
		c0.67,1.64,1.24,3.32,1.71,5.03c0.08,0.33,0.14,0.67,0.22,1c0.33,1.3,0.59,2.61,0.79,3.93c0.11,0.75,0.18,1.49,0.25,2.23
		c0.13,1.15,0.2,2.31,0.23,3.46c0,0.61,0,1.2-0.03,1.8c-0.02,1.32-0.11,2.64-0.25,3.95c-0.05,0.41-0.1,0.82-0.16,1.23
		c-0.22,1.59-0.53,3.17-0.93,4.72c-0.03,0.12-0.05,0.24-0.08,0.36c-0.48,1.76-1.07,3.48-1.76,5.17c-0.05,0.13-0.11,0.25-0.16,0.37
		c-0.65,1.54-1.39,3.03-2.21,4.48c-0.11,0.2-0.23,0.41-0.35,0.61c-1.84,3.16-4.09,6.07-6.67,8.66l-0.08,0.08
		c-1.27,1.26-2.61,2.43-4.02,3.52c-0.11,0.09-0.22,0.18-0.34,0.27c-4.36,3.31-9.31,5.76-14.58,7.23c-0.29,0.07-0.57,0.15-0.86,0.22
		c-1.48,0.38-2.97,0.67-4.48,0.89c-0.35,0.05-0.7,0.11-1.06,0.15c-1.64,0.2-3.3,0.31-4.95,0.33c-0.11,0-0.23,0.01-0.34,0.01
		c-5.66-0.01-11.26-1.14-16.49-3.31c0,0-0.03,0-0.03-0.01c-3.5-1.45-6.79-3.36-9.79-5.67c-0.03,0.01-0.03,0.01-0.05,0.02
		c-0.76,0.44-1.59,0.74-2.35,1.17c-6.54,3.66-13.22,7.07-20.13,9.98c-2.74,1.15-5.62,1.92-8.41,2.95
		c-5.07,1.87-10.1,3.86-15.31,5.33c-3.2,0.9-6.5,1.39-9.74,2.13c-4.93,1.13-9.82,2.42-14.81,3.19c-3.53,0.54-7.11,0.64-10.67,1
		c-4.8,0.48-9.58,1.14-14.4,1.28l-0.9,0.02l-2.75,0.08c0,0,0,0-0.03,0c-0.21,0-0.44,0-0.65,0.01c0.53,1.7,0.96,3.48,1.28,5.31
		c0.65,3.59,0.81,7.14,0.58,10.59c0,0.07-0.03,0.13-0.03,0.19c-0.06,0.76-0.14,1.53-0.24,2.3c0.29,0.18,0.58,0.35,0.87,0.53
		c5.15,3.18,10.42,6.08,15.81,8.72c5.39,2.63,10.9,5,16.49,7.08c11.19,4.18,22.74,7.25,34.49,9.19c11.75,1.93,23.7,2.73,35.68,2.36
		c11.97-0.37,23.98-1.92,35.85-4.66c6.23-1.44,12.38-3.21,18.42-5.29c35.94-12.37,67.18-35.55,89.44-66.36
		c7.2-9.97,13.39-20.64,18.47-31.84c2.75-6.07,5.17-12.28,7.24-18.6c2.07-6.28,3.78-12.65,5.15-19.09
		c1.37-6.44,2.4-12.94,3.08-19.48C806.594,367.17,806.544,353.95,805.074,340.81z M462.604,189.98l-6.59,12.77l-2.17-14.2
		l-14.18-2.32l12.84-6.46l-2.18-14.19l10.11,10.2l12.83-6.45l-6.59,12.76l10.11,10.21L462.604,189.98z M597.284,187.31l-0.49,14.36
		l-8.04-11.91l-13.81,3.96l8.85-11.32l-8.04-11.91l13.5,4.91l8.85-11.32l-0.51,14.36l13.5,4.91L597.284,187.31z M693.504,286.29
		l-12.65-6.81l-10.39,9.92l2.58-14.13l-12.65-6.82l14.24-1.92l2.57-14.13l6.23,12.95l14.23-1.92l-10.39,9.92L693.504,286.29z"/>
	<path style="opacity:0.26;fill:#FFFFFF;" d="M805.244,380.24c-0.68,6.54-1.71,13.04-3.08,19.48c-1.37,6.44-3.08,12.81-5.15,19.09
		c-2.07,6.32-4.49,12.53-7.24,18.6c-5.08,11.2-11.27,21.87-18.47,31.84c-22.26,30.81-53.5,53.99-89.44,66.36
		c-6.04,2.08-12.19,3.85-18.42,5.29c-11.87,2.74-23.88,4.29-35.85,4.66c-11.98,0.37-23.93-0.43-35.68-2.36
		c-11.75-1.94-23.3-5.01-34.49-9.19c-5.59-2.08-11.1-4.45-16.49-7.08c-5.39-2.64-10.66-5.54-15.81-8.72
		c-0.29-0.18-0.58-0.35-0.87-0.53c17.022,5.288,47.824,12.304,84.864,5.915c7.522-1.297,92.268-17.359,130.043-94.638
		c42.647-87.245-12.841-174.231-21.787-188.255c-39.121-61.329-97.839-84.675-118.579-91.842
		c20.304,4.831,46.023,13.105,74.14,27.084c23.53,11.699,45.41,25.906,64.24,42.136c0.03,0.02,0.06,0.05,0.09,0.08
		c22.52,20.62,38.23,41.69,49.09,60.1c1.89,3.63,3.63,7.3,5.21,11.02c2.7,6.37,5.04,12.88,7.01,19.51
		c3.11,10.46,5.29,21.18,6.5,32.02C806.544,353.95,806.594,367.17,805.244,380.24z"/>
	<path style="opacity:0.59;fill:#FCFF80;" d="M505.284,901.7c-101.79-112.79-247.02-231.74-266.42-382.91
		c0-67.73,32.23-131.42,86.8-171.53c5.13-3.77,10.42-7.31,15.86-10.6c26.08-15.78,55.24-25.78,85.52-29.32
		c6.32-0.73,12.67-1.19,19.03-1.36c1.89-0.05,3.78-0.07,5.67-0.07v-0.01c9.93,0,19.67,0.68,29.18,2.01
		c-18.18-1.7-43.73-1.35-72.02,7.94c-6.9,2.27-29.42,10.14-53.08,28.3c-2.65,2.04-64.66,51.11-75.02,130.44
		c-3.91,29.92-0.61,65.17,40.92,149.2C393.004,768.01,489.604,879.36,505.284,901.7z"/>
	<path style="opacity:0.26;fill:#FFFFFF;" d="M836.534,450.18c0,8.59-0.35,17.17-1.06,25.73c-1.07,12.8-2.93,25.53-5.57,38.1
		c-4,19.06-9.79,37.69-17.28,55.66c-20.26,27.37-47.71,48.59-79.31,61.31c-27.66,11.14-57.62,15.4-87.29,12.42
		c-6.56-0.66-13.08-1.67-19.53-3.03c-52.65-11.08-97.44-44.5-123.19-90.9c13.962,11.182,35.793,26.341,65.3,38.13
		c24.588,9.824,70.516,28.7,125.28,14.97c10.57-2.65,49.99-13.56,83.06-46.63c64.51-64.52,52.82-161.29,47.17-191.59
		c0.01-0.36,0.01-0.73,0.01-1.09c0.87,3,1.7,6.01,2.49,9.03C833.204,397.73,836.534,423.9,836.534,450.18z"/>
	<path style="opacity:0.26;fill:#FFFFFF;" d="M749.034,679.23c0,0-55.14,64.09-83.56,95.37c-25.94,28.55-75.81,80.73-88.22,93.7
		c7.85-19.26,18.68-43.83,32.97-71.51c29.1-56.4,42.71-67.93,37.28-85.79c-9.919-32.625-66.609-20.553-119.49-72
		c-24.84-24.166-33.719-47.644-36.513-55.915c-3.795-11.232-5.365-21.039-6.087-27.845c0.22-0.01,0.44-0.04,0.66-0.06
		c17.13,32,42.8,59.44,74.03,78.04c16.91,10.18,35.34,17.83,54.47,22.72c6.51,1.66,13.11,3.01,19.75,4.02
		c20.02,3.06,40.49,3.13,60.52-0.03c32.03-4.8,62.79-17.58,88.97-36.63C791.144,617.96,777.644,648,749.034,679.23z"/>
</g>
<g>
</g>
<g>
</g>
<g>
</g>
<g>
</g>
<g>
</g>
<g>
</g>
<g>
</g>
<g>
</g>
</svg>
