<?xml version="1.0" encoding="iso-8859-1"?>
<!-- Generator: Adobe Illustrator 29.6.1, SVG Export Plug-In . SVG Version: 9.03 Build 0)  -->
<svg version="1.1" id="Layer_1" xmlns="http://www.w3.org/2000/svg" xmlns:xlink="http://www.w3.org/1999/xlink" x="0px" y="0px"
	 viewBox="0 0 723.064 723.096" style="enable-background:new 0 0 723.064 723.096;" xml:space="preserve">
<g>
	<path style="opacity:0.26;fill:#FFFFFF;" d="M327.389,357.109c0.081-0.013,0.188-0.034,0.316-0.054
		C327.591,357.076,327.49,357.096,327.389,357.109z"/>
	<g>
		
			<linearGradient id="path136_00000069358672855678201040000001774011333113290152_" gradientUnits="userSpaceOnUse" x1="337.5645" y1="389.0381" x2="361.6426" y2="389.0381">
			<stop  offset="0" style="stop-color:#D81D39"/>
			<stop  offset="1" style="stop-color:#9D1A35"/>
		</linearGradient>
		
			<path id="path136_00000036227704377730748180000008159340346833304249_" style="fill:url(#path136_00000069358672855678201040000001774011333113290152_);" d="
			M349.044,377.013c-0.076,0.003-0.148,0.004-0.223,0.007l-0.001,0.001c-0.733,0.058-1.463,0.164-2.175,0.348
			c-0.773,0.195-1.526,0.469-2.246,0.813c-0.711,0.341-1.387,0.751-2.018,1.224c-0.636,0.477-1.224,1.018-1.756,1.61
			c-0.524,0.589-0.991,1.227-1.393,1.905c-0.398,0.68-0.733,1.398-0.994,2.142c-0.263,0.751-0.448,1.527-0.561,2.315
			c-0.107,0.787-0.138,1.584-0.093,2.378c0.051,0.778,0.171,1.551,0.365,2.307c0.201,0.764,0.475,1.509,0.817,2.221
			c0.342,0.702,0.749,1.372,1.218,1.996c0.475,0.629,1.01,1.212,1.597,1.738c0.589,0.524,1.227,0.99,1.905,1.392
			c0.68,0.398,1.398,0.733,2.142,0.994c0.751,0.262,1.527,0.448,2.315,0.561c0.876,0.117,1.767,0.148,2.648,0.072
			c0.944-0.074,1.876-0.268,2.777-0.561c0.748-0.248,1.472-0.568,2.159-0.954c0.693-0.391,1.344-0.854,1.948-1.371
			c0.589-0.513,1.13-1.079,1.612-1.693c0.484-0.62,0.906-1.287,1.262-1.988c0.352-0.699,0.637-1.431,0.849-2.184
			c0.218-0.778,0.352-1.579,0.415-2.384c0.067-0.991,0.019-1.99-0.158-2.968c-0.139-0.804-0.367-1.591-0.668-2.349
			c-0.292-0.734-0.657-1.439-1.087-2.103c-0.436-0.672-0.942-1.298-1.501-1.872c-0.553-0.562-1.16-1.069-1.81-1.516
			c-0.658-0.448-1.361-0.829-2.092-1.142c-0.726-0.305-1.48-0.54-2.251-0.702C351.062,377.048,350.05,376.963,349.044,377.013
			L349.044,377.013z"/>
		<linearGradient id="SVGID_1_" gradientUnits="userSpaceOnUse" x1="321.4473" y1="386.3478" x2="475.9944" y2="386.3478">
			<stop  offset="0" style="stop-color:#D81D39"/>
			<stop  offset="1" style="stop-color:#9D1A35"/>
		</linearGradient>
		<path style="fill:url(#SVGID_1_);" d="M458.194,370.423c0,0-26.71,31.046-40.477,46.198
			c-12.566,13.83-36.723,39.106-42.735,45.389c-0.891,0.93-1.385,1.444-1.385,1.444c7.915-26.313,1.313-46.213-7.668-61.244
			c0.063-0.082,0.131-0.16,0.194-0.242c0-0.005,0.015-0.01,0.015-0.015s-0.005-0.005-0.005-0.005h0.005
			c0.838-1.075,1.565-2.228,2.18-3.439c0-0.01,0.015-0.019,0.015-0.024v-0.005c0.61-1.206,1.1-2.47,1.468-3.778v-0.005
			c0.388-1.39,0.615-2.766,0.717-4.103c0-0.029,0.015-0.058,0.015-0.087c0.116-1.671,0.034-3.396-0.276-5.13
			c-0.252-1.444-0.649-2.81-1.158-4.084v-0.01c-0.513-1.284-1.148-2.509-1.889-3.657c-0.775-1.192-1.647-2.272-2.596-3.246
			c-0.01-0.01-0.014-0.019-0.029-0.029c-0.969-0.983-2.015-1.855-3.12-2.616c-0.01-0.005-0.015-0.01-0.029-0.015
			c-1.163-0.794-2.369-1.448-3.599-1.972c-0.019-0.01-0.044-0.019-0.063-0.029c-1.25-0.523-2.543-0.925-3.87-1.206
			c-0.019-0.005-0.039-0.005-0.058-0.01c-1.676-0.344-3.425-0.494-5.227-0.407h-0.015c-0.039,0-0.019,0-0.107,0.005
			c-0.126,0.005-0.252,0.01-0.383,0.019c-1.104,0.087-2.335,0.262-3.662,0.601c-0.886,0.223-1.754,0.504-2.587,0.833
			c-6.254-8.642-10.022-15.022-12.963-21.76c-5.236-12.004-7.838-25.155-7.407-38.554h0.01c0.034,0.01,0.068,0.024,0.102,0.034
			l0.019,0.005c1.322,0.465,2.659,0.78,3.982,0.974c0.034,0.005,0.063,0.01,0.097,0.015c1.444,0.189,2.969,0.247,4.558,0.116
			c0.077-0.005,0.155-0.014,0.233-0.024c0.107-0.005,0.213-0.019,0.32-0.029c8.298,15.501,20.733,28.793,35.861,37.803
			c8.191,4.931,17.119,8.637,26.386,11.006c3.154,0.804,6.351,1.458,9.567,1.947c9.698,1.482,19.614,1.516,29.316-0.015
			c15.516-2.325,30.416-8.516,43.098-17.744C478.592,340.743,472.053,355.295,458.194,370.423z"/>
		
			<linearGradient id="path134_00000109722148075394030740000003288527744249062304_" gradientUnits="userSpaceOnUse" x1="316.4926" y1="289.492" x2="340.5716" y2="289.492">
			<stop  offset="0" style="stop-color:#5D78BB"/>
			<stop  offset="1" style="stop-color:#392D7D"/>
		</linearGradient>
		
			<path id="path134_00000170269699528450813770000018429396906592689062_" style="fill:url(#path134_00000109722148075394030740000003288527744249062304_);" d="
			M327.972,277.467c-0.076,0.003-0.149,0.004-0.223,0.007l-0.001,0.001c-0.733,0.058-1.463,0.164-2.175,0.348
			c-0.773,0.195-1.526,0.469-2.246,0.813c-0.711,0.341-1.387,0.751-2.018,1.224c-0.636,0.477-1.224,1.018-1.756,1.61
			c-0.524,0.589-0.991,1.227-1.393,1.905c-0.398,0.68-0.733,1.398-0.994,2.142c-0.263,0.751-0.448,1.527-0.561,2.315
			c-0.107,0.787-0.138,1.584-0.093,2.378c0.051,0.778,0.171,1.551,0.365,2.307c0.201,0.764,0.475,1.509,0.818,2.222
			c0.342,0.702,0.748,1.371,1.218,1.995c0.475,0.629,1.01,1.212,1.597,1.738c0.589,0.524,1.227,0.991,1.905,1.393
			c0.68,0.398,1.398,0.732,2.142,0.993c0.751,0.262,1.527,0.448,2.315,0.561c0.876,0.117,1.767,0.148,2.648,0.072
			c0.944-0.074,1.877-0.268,2.777-0.561c0.748-0.248,1.472-0.568,2.159-0.954c0.693-0.391,1.344-0.854,1.949-1.371
			c0.589-0.513,1.13-1.079,1.612-1.693c0.484-0.62,0.906-1.287,1.262-1.988c0.352-0.699,0.637-1.431,0.849-2.184
			c0.218-0.778,0.353-1.579,0.416-2.384c0.067-0.991,0.019-1.99-0.158-2.968c-0.139-0.804-0.366-1.591-0.667-2.349
			c-0.292-0.734-0.658-1.439-1.088-2.103c-0.436-0.672-0.942-1.298-1.501-1.872c-0.553-0.562-1.16-1.069-1.81-1.516
			c-0.658-0.448-1.36-0.829-2.092-1.142c-0.726-0.305-1.479-0.54-2.25-0.702C329.991,277.502,328.978,277.417,327.972,277.467
			L327.972,277.467z"/>
		
			<linearGradient id="path133_00000060737827723034293310000016970342434216514488_" gradientUnits="userSpaceOnUse" x1="397.8309" y1="253.5132" x2="421.909" y2="253.5132">
			<stop  offset="0" style="stop-color:#4AAD48"/>
			<stop  offset="0.5857" style="stop-color:#84A93E"/>
			<stop  offset="1" style="stop-color:#F1E644"/>
		</linearGradient>
		
			<path id="path133_00000158711429128476386490000000631507516312847551_" style="fill:url(#path133_00000060737827723034293310000016970342434216514488_);" d="
			M409.31,241.488c-0.076,0.003-0.148,0.004-0.223,0.007h-0.001c-0.733,0.058-1.463,0.164-2.175,0.348
			c-0.773,0.195-1.526,0.47-2.246,0.814c-0.711,0.341-1.387,0.751-2.018,1.223c-0.636,0.477-1.224,1.018-1.755,1.611
			c-0.524,0.589-0.991,1.227-1.393,1.905c-0.398,0.68-0.733,1.397-0.994,2.141c-0.263,0.751-0.448,1.528-0.561,2.315
			c-0.107,0.787-0.138,1.584-0.093,2.377c0.051,0.778,0.171,1.552,0.365,2.308c0.201,0.764,0.475,1.509,0.817,2.221
			c0.342,0.702,0.749,1.371,1.218,1.995c0.475,0.629,1.01,1.212,1.597,1.738c0.589,0.524,1.228,0.991,1.906,1.393
			c0.68,0.398,1.397,0.733,2.141,0.994c0.751,0.262,1.527,0.448,2.315,0.561c0.876,0.117,1.767,0.148,2.648,0.072
			c0.944-0.074,1.877-0.268,2.777-0.561c0.748-0.248,1.472-0.568,2.159-0.954c0.693-0.391,1.344-0.854,1.948-1.371
			c0.589-0.512,1.13-1.079,1.612-1.693c0.484-0.62,0.907-1.287,1.263-1.988c0.352-0.699,0.635-1.431,0.847-2.185
			c0.218-0.778,0.353-1.578,0.416-2.383c0.067-0.991,0.019-1.99-0.158-2.968c-0.139-0.804-0.367-1.591-0.668-2.349
			c-0.292-0.734-0.657-1.439-1.087-2.103c-0.436-0.672-0.942-1.298-1.501-1.872c-0.553-0.562-1.16-1.069-1.81-1.516
			c-0.658-0.448-1.36-0.829-2.092-1.142c-0.726-0.305-1.481-0.54-2.252-0.702C411.327,241.522,410.317,241.438,409.31,241.488
			L409.31,241.488z"/>
		
			<linearGradient id="SVGID_00000119097977328102144940000012342407784354225036_" gradientUnits="userSpaceOnUse" x1="339.1598" y1="285.4388" x2="500.5796" y2="285.4388">
			<stop  offset="0" style="stop-color:#5D78BB"/>
			<stop  offset="1" style="stop-color:#392D7D"/>
		</linearGradient>
		<path style="fill:url(#SVGID_00000119097977328102144940000012342407784354225036_);" d="M500.58,259.469
			c0,4.161-0.17,8.317-0.514,12.464c-0.518,6.2-1.419,12.367-2.698,18.456c-1.938,9.233-4.742,18.257-8.371,26.962
			c-9.814,13.258-23.111,23.538-38.419,29.699c-13.399,5.396-27.912,7.46-42.284,6.016c-3.178-0.32-6.336-0.809-9.461-1.468
			c-25.504-5.367-47.201-21.556-59.674-44.033c1.109-0.649,2.122-1.385,3.047-2.175c0.019-0.019,0.039-0.034,0.058-0.053
			c1.003-0.872,1.938-1.846,2.776-2.916c0-0.005,0.015-0.01,0.015-0.014v-0.005c0.475-0.61,0.911-1.24,1.318-1.894
			c0.218,0.131,0.436,0.262,0.659,0.383c15.525,9.088,33.545,13.936,51.551,13.476c5.634-0.116,11.258-0.727,16.79-1.812
			c3.1-0.605,6.171-1.361,9.199-2.262c13.263-3.948,25.703-10.662,36.127-19.783c9.567-8.24,17.458-18.388,23.203-29.627
			c1.511-2.965,2.877-6.002,4.084-9.102c3.008-7.736,5.033-15.855,5.939-24.124c0.315-2.708,0.514-5.43,0.601-8.153
			c0.015-0.538,0.034-1.071,0.039-1.613c0.005-0.174,0.005-0.354,0.005-0.528c0.421,1.453,0.823,2.911,1.206,4.374
			C498.967,234.062,500.58,246.739,500.58,259.469z"/>
		
			<linearGradient id="SVGID_00000113343194012417506410000015909062340573600156_" gradientUnits="userSpaceOnUse" x1="211.0626" y1="339.6289" x2="399.1006" y2="339.6289">
			<stop  offset="0" style="stop-color:#4AAD48"/>
			<stop  offset="0.5857" style="stop-color:#84A93E"/>
			<stop  offset="1" style="stop-color:#F1E644"/>
		</linearGradient>
		<path style="fill:url(#SVGID_00000113343194012417506410000015909062340573600156_);" d="M399.101,235.525
			c-0.62,0.373-1.221,0.775-1.802,1.211v0.005c-1.114,0.833-2.131,1.773-3.047,2.79c-0.01,0.01-0.01,0.019-0.024,0.029
			c-0.901,1.012-1.705,2.112-2.403,3.284c-0.01,0.015-0.01,0.029-0.024,0.044c-0.678,1.158-1.255,2.393-1.71,3.686v0.014
			c-0.465,1.327-0.78,2.664-0.974,3.992c0,0.019-0.01,0.044-0.01,0.068c-0.189,1.356-0.237,2.727-0.165,4.084v0.078
			c0.087,1.308,0.291,2.63,0.625,3.948c0,0.015,0.015,0.029,0.015,0.048c0.344,1.313,0.814,2.592,1.405,3.817
			c0.01,0.015,0.01,0.029,0.024,0.048c0.116,0.233,0.233,0.465,0.358,0.698c-15.913,8.836-32.998,11.829-48.257,11.04
			c-0.857-0.823-1.768-1.56-2.722-2.219c-0.01-0.005-0.015-0.01-0.029-0.019c-1.163-0.79-2.374-1.444-3.599-1.972
			c-0.024-0.005-0.044-0.014-0.063-0.024c-1.25-0.523-2.548-0.93-3.87-1.206c-0.019-0.005-0.039-0.01-0.058-0.01
			c-1.676-0.344-3.43-0.499-5.227-0.407h-0.015c-0.039,0-0.019,0-0.107,0c-0.126,0.005-0.257,0.015-0.383,0.024
			c-1.104,0.087-2.34,0.257-3.662,0.596c-1.361,0.344-2.669,0.819-3.899,1.41l-0.015,0.005c-1.235,0.596-2.412,1.308-3.507,2.131
			c-1.114,0.838-2.136,1.773-3.047,2.79c-0.01,0.01-0.015,0.019-0.024,0.029c-0.906,1.012-1.71,2.112-2.403,3.289
			c-0.01,0.01-0.015,0.024-0.029,0.039c-0.678,1.163-1.255,2.393-1.71,3.691v0.015c-0.46,1.327-0.78,2.664-0.969,3.987
			c0,0.024-0.015,0.048-0.015,0.068c-0.184,1.361-0.237,2.727-0.16,4.084v0.082c0.087,1.308,0.286,2.626,0.625,3.943
			c0,0.015,0.015,0.034,0.015,0.048c0.344,1.318,0.814,2.596,1.4,3.817c0.01,0.019,0.015,0.034,0.024,0.048
			c0.586,1.196,1.289,2.354,2.112,3.449c0,0.005,0.015,0.005,0.015,0.01v0.005c0.097,0.126,0.194,0.252,0.291,0.378
			c-1.041,4.917-1.516,9.664-1.516,14.266c0,22.002,10.89,40.715,23.237,58.507c-0.838,0.964-1.589,2.005-2.248,3.11
			c-0.005,0.015-0.01,0.024-0.024,0.039c-0.678,1.163-1.255,2.393-1.71,3.691v0.015c-0.465,1.327-0.78,2.664-0.969,3.987
			c0,0.024-0.015,0.048-0.015,0.068c-0.184,1.361-0.237,2.727-0.16,4.084v0.082c0.082,1.308,0.286,2.63,0.625,3.943
			c0,0.015,0.01,0.034,0.01,0.048c0.349,1.318,0.814,2.596,1.405,3.822c0.01,0.015,0.01,0.029,0.024,0.044
			c0.586,1.196,1.284,2.354,2.107,3.449c0,0.005,0.015,0.01,0.015,0.01h0.005v0.005c0.819,1.085,1.744,2.093,2.766,3.003
			c0.005,0.01,0.005,0.015,0.019,0.019c1.017,0.911,2.117,1.715,3.289,2.408c0.015,0.01,0.029,0.015,0.044,0.024
			c1.163,0.683,2.393,1.255,3.686,1.71l0.019,0.005c1.327,0.465,2.664,0.78,3.987,0.974c0.029,0.005,0.063,0.01,0.092,0.015
			c1.444,0.189,2.969,0.247,4.563,0.111c1.681-0.136,3.289-0.47,4.8-0.964c0.015-0.005,0.029-0.01,0.044-0.014
			c0.194-0.063,0.383-0.126,0.572-0.194c14.121,23.906,19.841,48.896-6.564,80.925c-3.231-3.817-6.598-7.649-10.066-11.49
			c-49.308-54.637-119.659-112.257-129.056-185.485c0-32.809,15.613-63.661,42.047-83.091c2.485-1.826,5.048-3.541,7.683-5.135
			c12.633-7.644,26.759-12.488,41.427-14.203c3.061-0.354,6.137-0.576,9.218-0.659c0.916-0.024,1.831-0.034,2.747-0.034v-0.005
			c4.81,0,9.528,0.329,14.135,0.974C357.117,194.568,381.691,210.839,399.101,235.525z"/>
		<path id="path130_00000103969394055029749040000017399018514705124251_" style="fill:#191919;" d="M396.452,216.981
			c-0.484-0.527-0.973-1.049-1.467-1.566c0,0-0.001,0-0.001,0C395.479,215.932,395.968,216.455,396.452,216.981z"/>
		<path id="path129_00000130638022713897925620000011275334794728715438_" style="fill:#191919;" d="M396.452,216.98
			c-0.455-0.495-0.914-0.985-1.377-1.471C395.539,215.995,395.997,216.485,396.452,216.98L396.452,216.98z"/>
		
			<linearGradient id="path128_00000070824062357456333520000009569941465482843552_" gradientUnits="userSpaceOnUse" x1="199.7807" y1="207.3895" x2="485.8943" y2="207.3895">
			<stop  offset="0" style="stop-color:#E07C27"/>
			<stop  offset="1" style="stop-color:#E3C722"/>
		</linearGradient>
		
			<path id="path128_00000115504365077949885030000009935105139786611846_" style="fill:url(#path128_00000070824062357456333520000009569941465482843552_);" d="
			M485.34,206.489c-0.586-5.251-1.642-10.444-3.149-15.511c-0.954-3.212-2.088-6.365-3.396-9.451
			c-0.765-1.802-1.608-3.58-2.524-5.338c-0.426-0.824-0.867-1.637-1.327-2.451c-1.439-2.543-3.028-5.038-4.762-7.474
			c-1.729-2.437-3.599-4.82-5.595-7.14c-3.638-4.229-7.692-8.254-12.096-12.047c-0.015-0.015-0.029-0.029-0.044-0.039
			c-18.243-15.724-42.396-27.529-67.033-33.531c-11.839-2.892-23.789-4.437-35.251-4.437v-0.005
			c-23.867,0.005-47.385,5.682-68.621,16.576c-6.559,3.362-12.861,7.203-18.853,11.49c-39.484,28.236-62.91,73.795-62.91,122.338
			c0,9.509,0.901,18.994,2.693,28.333c1.056-23.751,9.896-47.128,24.942-65.56c6.767-8.458,14.828-15.811,23.775-21.876
			c2.621-1.778,5.324-3.444,8.085-4.994c14.067-7.901,29.83-12.808,45.907-14.12c1.463-0.116,2.926-0.208,4.394-0.266
			l-20.234-11.723l0.015-7.499l27.02,18.979c0.698-0.983,1.434-1.942,2.214-2.863l-29.22-24.593l0.015-9.819l9.819,0.015
			l24.506,29.292c0.925-0.775,1.884-1.511,2.873-2.204l-18.897-27.078l7.494,0.014l14.455,25.117
			c3.105-1.792,6.462-3.197,10.008-4.147l-7.455-27.989l5.314-5.295l5.677,32.499c1.182-0.208,2.378-0.363,3.594-0.47l-3.27-38.012
			l6.956-6.932l6.932,6.951l-3.381,37.983c1.216,0.102,2.412,0.257,3.594,0.46l5.774-32.436l5.295,5.309l-7.523,27.902
			c3.556,0.945,6.927,2.345,10.042,4.137l14.464-24.971l7.504,0.01l-18.906,26.909c0.993,0.693,1.957,1.429,2.887,2.204
			l24.492-29.098l9.824,0.014l-0.019,9.819l-29.152,24.385c0.785,0.925,1.526,1.884,2.223,2.877l26.919-18.785l-0.015,7.499
			l-24.942,14.348c1.812,3.12,3.236,6.491,4.195,10.051l27.762-7.392l5.295,5.309l-32.262,5.639
			c0.208,1.187,0.368,2.393,0.475,3.614l37.774-3.25l6.932,6.956l-6.956,6.932l-37.74-3.357c-0.107,1.221-0.262,2.427-0.47,3.614
			c-0.586-0.557-1.172-1.109-1.768-1.652c0.596,0.543,1.182,1.095,1.768,1.657l32.204,5.726l-5.309,5.295l-21.866-5.895
			c1.836,2.006,3.599,4.074,5.285,6.205c2.369,2.998,4.587,6.123,6.641,9.349c0,0,0,0,0,0.005c0.14-0.01,0.286-0.019,0.426-0.024
			h0.014c0.237-0.015,0.475-0.019,0.712-0.024c0.286-0.005,0.562,0.029,0.843,0.034c0.63,0.015,1.255,0.053,1.875,0.126
			c0.281,0.029,0.557,0.077,0.833,0.121c0.596,0.092,1.192,0.213,1.778,0.354c0.228,0.058,0.455,0.116,0.678,0.179
			c0.741,0.203,1.473,0.455,2.185,0.741c0.048,0.019,0.092,0.029,0.136,0.048c0.785,0.329,1.545,0.702,2.282,1.124
			c0.165,0.092,0.325,0.203,0.489,0.3c0.572,0.344,1.129,0.717,1.666,1.114c0.165,0.121,0.329,0.247,0.489,0.373
			c0.625,0.484,1.216,1.008,1.778,1.56c0.029,0.024,0.058,0.048,0.087,0.078c0.61,0.615,1.182,1.269,1.715,1.952
			c0.087,0.111,0.165,0.233,0.247,0.344c0.431,0.576,0.828,1.172,1.196,1.788c0.092,0.16,0.184,0.32,0.276,0.48
			c0.373,0.664,0.712,1.351,1.012,2.049c0.029,0.077,0.068,0.15,0.102,0.223c0.325,0.794,0.601,1.608,0.828,2.437
			c0.039,0.16,0.068,0.325,0.107,0.484c0.16,0.63,0.286,1.264,0.383,1.904c0.053,0.363,0.087,0.722,0.121,1.08
			c0.063,0.557,0.097,1.119,0.111,1.676c0,0.295,0,0.581-0.014,0.872c-0.01,0.639-0.053,1.279-0.121,1.913
			c-0.024,0.199-0.048,0.397-0.078,0.596c-0.107,0.77-0.257,1.536-0.451,2.286c-0.014,0.058-0.024,0.116-0.039,0.174
			c-0.233,0.853-0.518,1.686-0.853,2.504c-0.024,0.063-0.053,0.121-0.077,0.179c-0.315,0.746-0.673,1.468-1.071,2.17
			c-0.053,0.097-0.111,0.199-0.17,0.296c-0.891,1.531-1.981,2.94-3.231,4.195l-0.039,0.039c-0.615,0.61-1.264,1.177-1.947,1.705
			c-0.053,0.044-0.107,0.087-0.165,0.131c-2.112,1.603-4.51,2.79-7.063,3.502c-0.14,0.034-0.276,0.073-0.417,0.107
			c-0.717,0.184-1.439,0.325-2.17,0.431c-0.17,0.024-0.339,0.053-0.513,0.073c-0.794,0.097-1.599,0.15-2.398,0.16
			c-0.053,0-0.111,0.005-0.165,0.005c-2.742-0.005-5.454-0.552-7.988-1.603c0,0-0.015,0-0.015-0.005
			c-1.695-0.702-3.289-1.628-4.742-2.747c-0.015,0.005-0.015,0.005-0.024,0.01c-0.368,0.213-0.77,0.358-1.138,0.567
			c-3.168,1.773-6.404,3.425-9.751,4.834c-1.327,0.557-2.722,0.93-4.074,1.429c-2.456,0.906-4.893,1.87-7.416,2.582
			c-1.55,0.436-3.149,0.673-4.718,1.032c-2.388,0.547-4.757,1.172-7.174,1.545c-1.71,0.262-3.444,0.31-5.169,0.484
			c-2.325,0.233-4.641,0.552-6.975,0.62l-0.436,0.01l-1.332,0.039c0,0,0,0-0.014,0c-0.102,0-0.213,0-0.315,0.005
			c0.257,0.824,0.465,1.686,0.62,2.572c0.315,1.739,0.392,3.459,0.281,5.13c0,0.034-0.015,0.063-0.015,0.092
			c-0.029,0.368-0.068,0.741-0.116,1.114c0.14,0.087,0.281,0.17,0.421,0.257c2.495,1.54,5.048,2.945,7.659,4.224
			c2.611,1.274,5.28,2.422,7.988,3.43c5.421,2.025,11.015,3.512,16.707,4.452c5.692,0.935,11.481,1.322,17.284,1.143
			c5.798-0.179,11.616-0.93,17.366-2.257c3.018-0.698,5.997-1.555,8.923-2.563c17.41-5.992,32.543-17.221,43.326-32.145
			c3.488-4.83,6.486-9.998,8.947-15.424c1.332-2.94,2.504-5.949,3.507-9.01c1.003-3.042,1.831-6.128,2.495-9.247
			c0.664-3.12,1.163-6.268,1.492-9.436C486.076,219.258,486.052,212.854,485.34,206.489z M319.444,133.425l-3.192,6.186
			l-1.051-6.879l-6.869-1.124l6.22-3.129l-1.056-6.874l4.897,4.941l6.215-3.124l-3.192,6.181l4.897,4.946L319.444,133.425z
			 M384.685,132.132l-0.237,6.956l-3.895-5.769l-6.69,1.918l4.287-5.484l-3.895-5.769l6.54,2.378l4.287-5.484l-0.247,6.956
			l6.54,2.378L384.685,132.132z M431.295,180.079l-6.128-3.299l-5.033,4.805l1.25-6.845l-6.128-3.304l6.898-0.93l1.245-6.845
			l3.018,6.273l6.893-0.93l-5.033,4.805L431.295,180.079z"/>
		<path style="opacity:0.26;fill:#FFFFFF;" d="M485.422,225.589c-0.329,3.168-0.828,6.317-1.492,9.436
			c-0.664,3.12-1.492,6.205-2.495,9.247c-1.003,3.061-2.175,6.07-3.507,9.01c-2.461,5.425-5.459,10.594-8.947,15.424
			c-10.783,14.925-25.916,26.153-43.326,32.145c-2.926,1.008-5.905,1.865-8.923,2.563c-5.75,1.327-11.568,2.078-17.366,2.257
			c-5.803,0.179-11.592-0.208-17.284-1.143c-5.692-0.94-11.287-2.427-16.707-4.452c-2.708-1.008-5.377-2.156-7.988-3.43
			c-2.611-1.279-5.164-2.684-7.659-4.224c-0.14-0.087-0.281-0.17-0.421-0.257c8.246,2.562,23.166,5.96,41.109,2.865
			c3.644-0.629,44.695-8.409,62.994-45.844c20.658-42.262-6.22-84.399-10.554-91.193c-18.951-29.708-47.394-41.017-57.441-44.489
			c9.836,2.34,22.294,6.348,35.914,13.12c11.398,5.667,21.997,12.549,31.118,20.411c0.015,0.01,0.029,0.024,0.044,0.039
			c10.909,9.989,18.519,20.195,23.78,29.113c0.915,1.758,1.758,3.536,2.524,5.338c1.308,3.086,2.441,6.239,3.396,9.451
			c1.507,5.067,2.563,10.26,3.149,15.511C486.052,212.854,486.076,219.258,485.422,225.589z"/>
		<path style="opacity:0.59;fill:#F2EF89;" d="M340.119,478.189c-49.308-54.637-119.659-112.257-129.056-185.485
			c0-32.809,15.613-63.661,42.047-83.091c2.485-1.826,5.048-3.541,7.683-5.135c12.633-7.644,26.759-12.488,41.427-14.203
			c3.061-0.354,6.137-0.576,9.218-0.659c0.916-0.024,1.831-0.034,2.747-0.034v-0.005c4.81,0,9.528,0.329,14.135,0.974
			c-8.807-0.823-21.183-0.654-34.887,3.846c-3.342,1.1-14.251,4.912-25.712,13.709c-1.284,0.988-31.322,24.758-36.34,63.186
			c-1.894,14.494-0.295,31.569,19.822,72.274C285.729,413.429,332.523,467.368,340.119,478.189z"/>
		<path style="opacity:0.26;fill:#FFFFFF;" d="M500.58,259.469c0,4.161-0.17,8.317-0.514,12.464
			c-0.518,6.2-1.419,12.367-2.698,18.456c-1.938,9.233-4.742,18.257-8.371,26.962c-9.814,13.258-23.111,23.538-38.419,29.699
			c-13.399,5.396-27.912,7.46-42.284,6.016c-3.178-0.32-6.336-0.809-9.461-1.468c-25.504-5.367-47.201-21.556-59.674-44.033
			c6.764,5.417,17.339,12.76,31.632,18.47c11.911,4.759,34.158,13.903,60.687,7.252c5.12-1.284,24.216-6.569,40.235-22.588
			c31.249-31.254,25.586-78.13,22.85-92.808c0.005-0.174,0.005-0.354,0.005-0.528c0.421,1.453,0.823,2.911,1.206,4.374
			C498.967,234.062,500.58,246.739,500.58,259.469z"/>
		<path style="opacity:0.26;fill:#FFFFFF;" d="M458.194,370.423c0,0-26.71,31.046-40.477,46.198
			c-12.566,13.83-36.723,39.106-42.735,45.389c3.803-9.33,9.049-21.232,15.971-34.64c14.096-27.321,20.689-32.906,18.059-41.557
			c-4.805-15.804-32.266-9.956-57.882-34.877c-12.033-11.706-16.334-23.079-17.687-27.086c-1.838-5.441-2.599-10.191-2.948-13.488
			c0.107-0.005,0.213-0.019,0.32-0.029c8.298,15.501,20.733,28.793,35.861,37.803c8.191,4.931,17.119,8.637,26.386,11.006
			c3.154,0.804,6.351,1.458,9.567,1.947c9.698,1.482,19.614,1.516,29.316-0.015c15.516-2.325,30.416-8.516,43.098-17.744
			C478.592,340.743,472.053,355.295,458.194,370.423z"/>
	</g>
	<path style="fill:#283987;" d="M155.821,570.915H143.04v-54.752h19.586h5.663c2.873,0,5.511,0.481,7.93,1.429
		c2.419,0.948,4.507,2.268,6.267,3.958c1.759,1.69,3.12,3.697,4.109,6.02c0.976,2.323,1.456,4.851,1.456,7.614
		c0,2.79-0.481,5.346-1.443,7.669c-0.961,2.323-2.308,4.315-4.04,5.978c-1.732,1.663-3.806,2.955-6.212,3.876
		c-2.391,0.921-5.016,1.388-7.86,1.388h-5.87h-6.805V570.915z M170.708,542.508c0.906-0.412,1.703-0.976,2.391-1.69
		c0.687-0.701,1.223-1.539,1.608-2.501c0.398-0.962,0.591-2.007,0.591-3.133c0-1.086-0.193-2.13-0.591-3.106
		c-0.385-0.976-0.921-1.828-1.608-2.556c-0.688-0.742-1.485-1.32-2.391-1.745c-0.921-0.426-1.897-0.646-2.941-0.646h-5.141h-6.805
		v15.997h6.805h5.141C168.811,543.126,169.788,542.92,170.708,542.508z M191.73,570.915v-54.752h12.781v21.899h23.087v-21.899
		h12.781v54.752h-12.781v-21.899h-23.087v21.899H191.73z"/>
	<path style="fill:#283987;" d="M281.37,516.163v33.67c0,1.635,0.247,3.161,0.742,4.563c0.495,1.415,1.223,2.625,2.185,3.656
		c0.949,1.017,2.131,1.828,3.532,2.418c1.416,0.591,3.051,0.88,4.893,0.88c1.8,0,3.394-0.289,4.796-0.866
		c1.401-0.577,2.57-1.388,3.546-2.418c0.961-1.031,1.69-2.24,2.185-3.642c0.508-1.402,0.756-2.913,0.756-4.549v-33.711h12.753
		v33.629c0,3.257-0.563,6.253-1.704,8.988c-1.141,2.735-2.762,5.112-4.851,7.105c-2.102,2.007-4.618,3.559-7.572,4.673
		c-2.954,1.114-6.253,1.677-9.909,1.677c-3.381,0-6.542-0.522-9.483-1.553c-2.927-1.031-5.483-2.529-7.64-4.466
		c-2.158-1.951-3.862-4.301-5.099-7.077c-1.237-2.763-1.855-5.882-1.855-9.345v-33.629H281.37z M333.2,570.915h-12.781v-54.752
		h11.131l26.084,32.735v-32.735h12.726v54.752h-11.035L333.2,538.11V570.915z M386.749,538.062h22.14v10.953h-22.14v10.933h26.167
		v10.967h-38.948v-54.752h38.59v10.967h-25.809V538.062z M424.004,519.558c1.842-1.526,4.179-2.694,7.009-3.505
		s6.212-1.209,10.128-1.209c3.216,0,6.075,0.413,8.562,1.237c2.474,0.811,4.577,1.979,6.281,3.477
		c1.704,1.497,2.996,3.326,3.876,5.456c0.893,2.13,1.333,4.521,1.333,7.146h-12.808c0-0.811-0.138-1.594-0.44-2.35
		c-0.289-0.769-0.784-1.443-1.443-2.02c-0.673-0.577-1.54-1.044-2.598-1.388c-1.058-0.344-2.378-0.522-3.931-0.522
		c-1.718,0-3.133,0.151-4.246,0.439c-1.113,0.302-1.993,0.701-2.639,1.21c-0.646,0.508-1.099,1.085-1.346,1.731
		c-0.262,0.646-0.385,1.305-0.385,1.979c0,0.934,0.301,1.745,0.906,2.432s1.43,1.278,2.474,1.773
		c1.044,0.495,2.281,0.921,3.71,1.264c1.415,0.344,2.968,0.673,4.631,0.962c1.896,0.467,3.724,0.948,5.456,1.457
		c1.732,0.508,3.326,1.099,4.81,1.773c1.47,0.674,2.804,1.43,3.999,2.295c1.196,0.852,2.212,1.869,3.065,3.037
		c0.839,1.168,1.498,2.501,1.952,3.999c0.453,1.512,0.687,3.23,0.687,5.154c0,2.776-0.591,5.208-1.758,7.311
		c-1.168,2.102-2.791,3.862-4.865,5.305c-2.089,1.429-4.549,2.501-7.408,3.229c-2.858,0.728-5.965,1.085-9.318,1.085
		c-4.191,0-7.751-0.536-10.678-1.621c-2.927-1.086-5.305-2.502-7.146-4.247c-1.842-1.732-3.175-3.697-4.027-5.882
		c-0.839-2.185-1.264-4.398-1.264-6.624h12.726c0,1.127,0.23,2.141,0.692,3.041s1.156,1.687,2.084,2.36
		c1.855,1.333,4.467,2.006,7.847,2.006c1.855,0,3.422-0.137,4.714-0.426c1.292-0.275,2.337-0.673,3.134-1.182
		c0.81-0.509,1.401-1.141,1.773-1.869c0.385-0.742,0.563-1.581,0.563-2.529c0-1.306-0.302-2.363-0.921-3.174
		c-0.618-0.811-1.498-1.471-2.652-2.007c-1.154-0.536-2.556-1.03-4.219-1.456c-1.649-0.426-3.518-0.935-5.607-1.526
		c-1.017-0.275-2.186-0.563-3.491-0.893c-1.292-0.317-2.625-0.715-3.958-1.21c-1.346-0.481-2.652-1.059-3.93-1.745
		c-1.278-0.687-2.419-1.526-3.422-2.515c-1.003-0.99-1.814-2.172-2.419-3.532c-0.605-1.347-0.907-2.941-0.907-4.769
		c0-2.734,0.454-5.194,1.334-7.38C420.803,522.952,422.177,521.083,424.004,519.558z M518.088,523.433l-8.342,8.452
		c-1.47-1.828-3.339-3.312-5.594-4.453c-2.253-1.14-4.782-1.704-7.572-1.704c-2.363,0-4.59,0.453-6.679,1.347
		c-2.089,0.907-3.917,2.144-5.47,3.725c-1.566,1.594-2.79,3.463-3.697,5.621c-0.893,2.171-1.346,4.508-1.346,7.036
		c0,0.009,0,0.018,0,0.028c0.003,2.518,0.456,4.845,1.346,7.009c0.907,2.158,2.131,4.027,3.697,5.621
		c1.553,1.58,3.381,2.817,5.47,3.724c2.089,0.893,4.315,1.347,6.679,1.347c2.79,0,5.319-0.564,7.572-1.705
		c2.255-1.14,4.123-2.625,5.594-4.453l8.342,8.452c-2.845,2.804-6.102,4.962-9.744,6.445c-3.655,1.485-7.572,2.227-11.764,2.227
		c-2.762,0-5.415-0.33-7.971-1.004c-2.543-0.673-4.934-1.635-7.146-2.886c-2.212-1.251-4.219-2.735-6.033-4.467
		c-1.814-1.732-3.367-3.669-4.673-5.799c-1.306-2.131-2.308-4.425-3.024-6.872c-0.714-2.446-1.058-4.989-1.058-7.641
		c0-0.019,0-0.037,0-0.055c0-2.652,0.344-5.195,1.058-7.641c0.715-2.446,1.718-4.742,3.024-6.871c1.306-2.13,2.858-4.068,4.673-5.8
		c1.814-1.731,3.821-3.216,6.033-4.466c2.212-1.251,4.603-2.213,7.146-2.886c2.556-0.673,5.208-1.003,7.971-1.003
		c4.192,0,8.109,0.742,11.764,2.226C511.986,518.472,515.243,520.629,518.088,523.433z M543.669,571.121
		c-2.556-0.687-4.934-1.635-7.146-2.872c-2.226-1.237-4.232-2.734-6.046-4.48c-1.814-1.745-3.367-3.683-4.673-5.813
		c-1.292-2.13-2.309-4.426-3.009-6.872c-0.715-2.432-1.072-4.989-1.072-7.655c0-2.652,0.357-5.195,1.072-7.641
		c0.7-2.446,1.718-4.742,3.009-6.871c1.306-2.13,2.858-4.068,4.673-5.8c1.814-1.731,3.821-3.216,6.046-4.466
		c2.212-1.251,4.591-2.213,7.146-2.886c2.543-0.673,5.195-1.003,7.972-1.003c2.734,0,5.374,0.33,7.929,1.003
		c2.543,0.673,4.934,1.635,7.16,2.886c2.226,1.251,4.26,2.735,6.074,4.466c1.828,1.732,3.395,3.669,4.7,5.8
		c1.292,2.13,2.309,4.425,3.009,6.871c0.715,2.446,1.072,4.989,1.072,7.641c0,2.666-0.357,5.222-1.072,7.655
		c-0.7,2.446-1.718,4.742-3.009,6.872c-1.305,2.13-2.872,4.068-4.7,5.813c-1.814,1.745-3.848,3.243-6.074,4.48
		c-2.227,1.237-4.618,2.186-7.16,2.872c-2.555,0.687-5.195,1.031-7.929,1.031C548.864,572.152,546.212,571.808,543.669,571.121z
		 M551.641,561.185c2.419,0,4.673-0.454,6.762-1.347c2.102-0.907,3.917-2.144,5.469-3.724c1.54-1.594,2.762-3.463,3.67-5.621
		c0.893-2.172,1.346-4.507,1.346-7.036c0-2.528-0.453-4.865-1.346-7.036c-0.908-2.158-2.131-4.027-3.67-5.621
		c-1.552-1.581-3.367-2.817-5.469-3.725c-2.089-0.893-4.343-1.347-6.762-1.347c-2.378,0-4.604,0.453-6.693,1.347
		c-2.103,0.907-3.931,2.144-5.484,3.725c-1.567,1.594-2.789,3.463-3.696,5.621c-0.894,2.171-1.347,4.508-1.347,7.036
		c0,2.529,0.453,4.865,1.347,7.036c0.907,2.158,2.13,4.027,3.696,5.621c1.553,1.58,3.381,2.817,5.484,3.724
		C547.036,560.731,549.263,561.185,551.641,561.185z"/>
	<path style="fill:#D81D39;" d="M141.478,606.207v-24.109h5.628v9.643h10.166v-9.643h5.628v24.109h-5.628v-9.643h-10.166v9.643
		H141.478z M184.263,600.652c-0.494,1.172-1.181,2.193-2.055,3.061l0.003,0.003c-0.018,0.018-0.036,0.035-0.054,0.053
		c-0.901,0.89-1.991,1.586-3.256,2.094c-1.264,0.508-2.657,0.763-4.182,0.763c-1.488,0-2.862-0.26-4.115-0.775
		c-1.253-0.515-2.324-1.21-3.226-2.094c-0.895-0.878-1.598-1.913-2.1-3.105c-0.502-1.186-0.756-2.457-0.756-3.806
		c0-1.343,0.248-2.614,0.744-3.8c0.502-1.192,1.198-2.227,2.106-3.117c0.902-0.889,1.979-1.585,3.232-2.1
		c1.252-0.514,2.638-0.774,4.151-0.774c1.513,0,2.899,0.26,4.157,0.774c1.259,0.515,2.343,1.21,3.244,2.1
		c0.902,0.89,1.61,1.925,2.112,3.117c0.201,0.475,0.362,0.963,0.481,1.464c0.18,0.751,0.269,1.53,0.269,2.336
		c0,0.596-0.048,1.177-0.146,1.741h-5.564h-9.056c0.036,0.116,0.077,0.229,0.121,0.34c0.249,0.623,0.593,1.162,1.029,1.61
		c0.435,0.448,0.944,0.799,1.525,1.041c0.581,0.242,1.198,0.363,1.864,0.363c0.671,0,1.301-0.121,1.876-0.363
		c0.58-0.242,1.083-0.587,1.506-1.034c0.065-0.068,0.129-0.137,0.191-0.209h6.026C184.351,600.441,184.308,600.546,184.263,600.652z
		 M178.17,593.172c-0.43-0.448-0.938-0.793-1.52-1.035c-0.574-0.242-1.204-0.363-1.876-0.363c-0.665,0-1.282,0.121-1.863,0.363
		c-0.581,0.242-1.084,0.587-1.513,1.035c-0.374,0.379-0.676,0.825-0.912,1.337h8.588C178.84,593.997,178.538,593.551,178.17,593.172
		z M192.254,596.188v9.856h-5.632v-9.489c0-5.226,4.275-9.501,9.501-9.501v5.265C193.995,592.319,192.254,594.06,192.254,596.188z
		 M203.746,583.488c0,1.66-1.345,3.006-3.006,3.006c-1.66,0-3.006-1.346-3.006-3.006c0-1.66,1.345-3.006,3.006-3.006
		C202.4,580.482,203.746,581.828,203.746,583.488z M203.505,606.044h-5.531v-18.384h5.531V606.044z M212.88,601.384h1.876v4.66
		h-2.71c-0.417,0-0.827-0.039-1.223-0.113c-3.107-0.579-5.477-3.32-5.477-6.588v-17.409h5.531v5.725h3.879v4.66h-3.879v7.062
		C210.878,600.483,211.779,601.384,212.88,601.384z M231.34,606.044v-0.958c-1.454,0.953-3.096,1.524-4.945,1.538
		c-1.572,0.012-2.95-0.228-4.241-0.773c-1.217-0.515-2.251-1.21-3.111-2.094c-1.788-1.826-2.669-4.32-2.669-6.911
		c0-4.064,2.32-7.472,6.082-9.017c2.529-1.038,5.777-1.034,8.309,0c3.752,1.533,6.106,4.938,6.106,9.017v9.198H231.34z
		 M231.34,597.81c0.487-3.131-1.423-6.036-4.714-6.036c-2.003,0-3.661,1.138-4.4,2.996c-0.496,1.246-0.493,2.918,0,4.157
		c1.372,3.448,5.654,3.884,7.8,1.616C230.724,599.826,231.182,598.833,231.34,597.81z M248.494,606.626
		c-1.572,0.012-2.95-0.228-4.241-0.774c-1.217-0.514-2.251-1.21-3.111-2.094c-1.788-1.825-2.669-4.32-2.669-6.911
		c0-4.064,2.32-7.472,6.082-9.017c2.528-1.038,5.777-1.035,8.308,0c0.161,0.065,0.319,0.135,0.475,0.207
		c3.475,1.619,5.632,4.906,5.632,8.81v6.935c0,0.777-0.088,1.534-0.254,2.263c-1.037,4.557-5.136,7.985-9.995,7.985
		c-4.543,0-8.421-2.996-9.754-7.111l6.06,0c0.844,1.125,2.188,1.856,3.694,1.856c2.17,0,4.003-1.517,4.49-3.543
		C251.814,606.099,250.248,606.613,248.494,606.626z M253.339,598.307c0.041-0.163,0.075-0.329,0.1-0.495
		c0.129-0.832,0.089-1.648-0.1-2.397c-0.525-2.072-2.197-3.638-4.614-3.638c-2.002,0-3.66,1.138-4.399,2.996
		c-0.496,1.246-0.493,2.918,0,4.158c1.372,3.448,5.654,3.884,7.8,1.616C252.71,599.945,253.126,599.151,253.339,598.307z
		 M280.313,600.652c-0.494,1.172-1.181,2.193-2.055,3.061l0.003,0.003c-0.018,0.018-0.036,0.035-0.054,0.053
		c-0.901,0.89-1.991,1.586-3.256,2.094c-1.264,0.508-2.657,0.763-4.182,0.763c-1.488,0-2.862-0.26-4.115-0.775
		c-1.253-0.515-2.324-1.21-3.226-2.094c-0.895-0.878-1.598-1.913-2.1-3.105c-0.502-1.186-0.756-2.457-0.756-3.806
		c0-1.343,0.248-2.614,0.744-3.8c0.502-1.192,1.198-2.227,2.106-3.117c0.902-0.889,1.979-1.585,3.232-2.1
		c1.252-0.514,2.638-0.774,4.151-0.774c1.513,0,2.899,0.26,4.157,0.774c1.259,0.515,2.343,1.21,3.244,2.1
		c0.902,0.89,1.61,1.925,2.112,3.117c0.202,0.475,0.362,0.963,0.481,1.464c0.18,0.751,0.269,1.53,0.269,2.336
		c0,0.596-0.048,1.177-0.146,1.741h-5.564h-9.056c0.036,0.116,0.077,0.229,0.121,0.34c0.249,0.623,0.593,1.162,1.029,1.61
		c0.435,0.448,0.944,0.799,1.525,1.041c0.581,0.242,1.198,0.363,1.864,0.363c0.671,0,1.301-0.121,1.876-0.363
		c0.58-0.242,1.083-0.587,1.506-1.034c0.065-0.068,0.129-0.137,0.191-0.209h6.026C280.4,600.441,280.358,600.546,280.313,600.652z
		 M274.219,593.172c-0.429-0.448-0.938-0.793-1.519-1.035c-0.574-0.242-1.204-0.363-1.876-0.363c-0.665,0-1.283,0.121-1.863,0.363
		c-0.581,0.242-1.083,0.587-1.513,1.035c-0.374,0.379-0.676,0.825-0.912,1.337h8.589
		C274.889,593.997,274.588,593.551,274.219,593.172z"/>
	
		<linearGradient id="SVGID_00000121989138809767446850000007259395020081712062_" gradientUnits="userSpaceOnUse" x1="268.5648" y1="594.2791" x2="367.1739" y2="594.2791">
		<stop  offset="0" style="stop-color:#E07C27"/>
		<stop  offset="1" style="stop-color:#E3C722"/>
	</linearGradient>
	<path style="fill:url(#SVGID_00000121989138809767446850000007259395020081712062_);" d="M308.46,606.044v-0.958
		c-1.454,0.953-3.096,1.524-4.945,1.538c-1.572,0.012-2.95-0.228-4.241-0.773c-1.217-0.515-2.251-1.21-3.111-2.094
		c-1.788-1.826-2.669-4.32-2.669-6.911c0-4.064,2.32-7.472,6.082-9.017c2.529-1.038,5.777-1.034,8.309,0
		c3.752,1.533,6.106,4.938,6.106,9.017v9.198H308.46z M308.46,597.81c0.487-3.131-1.423-6.036-4.714-6.036
		c-2.003,0-3.661,1.138-4.4,2.996c-0.496,1.246-0.493,2.918,0,4.157c1.372,3.448,5.654,3.884,7.8,1.616
		C307.844,599.826,308.302,598.833,308.46,597.81z M325.095,587.054c5.226,0,9.501,4.275,9.501,9.501v9.489h-5.632v-9.856
		c0-2.128-1.741-3.869-3.869-3.869s-3.869,1.741-3.869,3.869v9.856h-5.632v-9.489C315.594,591.329,319.869,587.054,325.095,587.054z
		 M356.708,596.83c0,4.079-2.354,7.483-6.107,9.017c-2.531,1.034-5.78,1.038-8.308,0c-3.763-1.545-6.082-4.953-6.082-9.017
		c0-2.591,0.881-5.085,2.669-6.911c0.86-0.884,1.894-1.579,3.111-2.094c1.291-0.546,2.669-0.786,4.241-0.774
		c1.849,0.014,3.491,0.585,4.945,1.538v-0.958v-5.697h5.531v5.697v5.403V596.83z M342.064,594.748c-0.493,1.239-0.496,2.911,0,4.157
		c0.739,1.858,2.397,2.995,4.399,2.995c3.291,0,5.201-2.904,4.714-6.036c-0.159-1.023-0.616-2.016-1.313-2.733
		C347.718,590.864,343.436,591.3,342.064,594.748z"/>
	
		<linearGradient id="SVGID_00000101820915865868132210000010469077519315510952_" gradientUnits="userSpaceOnUse" x1="362.2669" y1="593.5715" x2="624.7359" y2="593.5715">
		<stop  offset="0" style="stop-color:#4AAD48"/>
		<stop  offset="0.5857" style="stop-color:#84A93E"/>
		<stop  offset="1" style="stop-color:#F1E644"/>
	</linearGradient>
	<path style="fill:url(#SVGID_00000101820915865868132210000010469077519315510952_);" d="M374.762,606.207h-5.628v-24.109h4.902
		l11.486,14.415v-14.415h5.604v24.109h-4.859l-11.503-14.445V606.207z M407.68,606.044v-0.958c-1.454,0.953-3.096,1.524-4.945,1.538
		c-1.572,0.012-2.95-0.228-4.241-0.773c-1.217-0.515-2.251-1.21-3.111-2.094c-1.788-1.826-2.669-4.32-2.669-6.911
		c0-4.064,2.32-7.472,6.082-9.017c2.529-1.038,5.777-1.034,8.309,0c3.752,1.533,6.106,4.938,6.106,9.017v9.198H407.68z
		 M407.68,597.81c0.487-3.131-1.423-6.036-4.714-6.036c-2.003,0-3.661,1.138-4.4,2.996c-0.496,1.246-0.493,2.918,0,4.157
		c1.372,3.448,5.654,3.884,7.8,1.616C407.063,599.826,407.521,598.833,407.68,597.81z M422.347,601.384h1.876v4.66h-2.71
		c-0.417,0-0.827-0.039-1.223-0.113c-3.107-0.579-5.477-3.32-5.477-6.588v-17.409h5.531v5.725h3.879v4.66h-3.879v7.062
		C420.345,600.483,421.246,601.384,422.347,601.384z M425.842,587.659h5.632v9.856c0,2.128,1.741,3.869,3.869,3.869
		s3.869-1.741,3.869-3.869v-9.856h5.632v9.489c0,5.226-4.275,9.501-9.501,9.501s-9.501-4.275-9.501-9.501V587.659z M452.092,596.188
		v9.856h-5.632v-9.489c0-5.226,4.275-9.501,9.501-9.501v5.265C453.832,592.319,452.092,594.06,452.092,596.188z M477.311,600.652
		c-0.494,1.172-1.181,2.193-2.055,3.061l0.003,0.003c-0.018,0.018-0.036,0.035-0.054,0.053c-0.901,0.89-1.991,1.586-3.256,2.094
		c-1.264,0.508-2.657,0.763-4.181,0.763c-1.488,0-2.862-0.26-4.115-0.775c-1.253-0.515-2.324-1.21-3.226-2.094
		c-0.895-0.878-1.598-1.913-2.1-3.105c-0.502-1.186-0.756-2.457-0.756-3.806c0-1.343,0.248-2.614,0.744-3.8
		c0.502-1.192,1.198-2.227,2.106-3.117c0.902-0.889,1.979-1.585,3.232-2.1c1.252-0.514,2.638-0.774,4.151-0.774
		c1.513,0,2.899,0.26,4.157,0.774c1.259,0.515,2.343,1.21,3.244,2.1c0.902,0.89,1.61,1.925,2.112,3.117
		c0.201,0.475,0.362,0.963,0.481,1.464c0.18,0.751,0.269,1.53,0.269,2.336c0,0.596-0.048,1.177-0.146,1.741h-5.564h-9.056
		c0.036,0.116,0.077,0.229,0.121,0.34c0.249,0.623,0.593,1.162,1.029,1.61c0.435,0.448,0.944,0.799,1.525,1.041
		c0.581,0.242,1.198,0.363,1.864,0.363c0.671,0,1.301-0.121,1.876-0.363c0.58-0.242,1.083-0.587,1.506-1.034
		c0.065-0.068,0.129-0.137,0.191-0.209h6.026C477.399,600.441,477.356,600.546,477.311,600.652z M471.218,593.172
		c-0.43-0.448-0.938-0.793-1.52-1.035c-0.574-0.242-1.204-0.363-1.876-0.363c-0.665,0-1.282,0.121-1.863,0.363
		c-0.581,0.242-1.084,0.587-1.513,1.035c-0.374,0.379-0.676,0.825-0.912,1.337h8.589
		C471.888,593.997,471.586,593.551,471.218,593.172z M490.493,586.927v-4.829h19.062v4.829h-6.736v19.28h-5.591v-19.28H490.493z
		 M516.784,596.188v9.856h-5.632v-9.489c0-5.226,4.275-9.501,9.501-9.501v5.265C518.524,592.319,516.784,594.06,516.784,596.188z
		 M537.227,606.044v-0.958c-1.454,0.953-3.096,1.524-4.945,1.538c-1.572,0.012-2.95-0.228-4.241-0.773
		c-1.217-0.515-2.251-1.21-3.111-2.094c-1.788-1.826-2.669-4.32-2.669-6.911c0-4.064,2.32-7.472,6.082-9.017
		c2.529-1.038,5.777-1.034,8.309,0c3.752,1.533,6.106,4.938,6.106,9.017v9.198H537.227z M537.227,597.81
		c0.487-3.131-1.423-6.036-4.714-6.036c-2.003,0-3.661,1.138-4.4,2.996c-0.496,1.246-0.493,2.918,0,4.157
		c1.372,3.448,5.654,3.884,7.8,1.616C536.611,599.826,537.069,598.833,537.227,597.81z M550.374,583.488
		c0,1.66-1.345,3.006-3.006,3.006c-1.66,0-3.006-1.346-3.006-3.006c0-1.66,1.345-3.006,3.006-3.006
		C549.029,580.482,550.374,581.828,550.374,583.488z M550.134,606.044h-5.531v-18.384h5.531V606.044z M557.505,581.934v17.447
		c0,1.102,0.902,2.003,2.003,2.003h1.876v4.66h-2.71c-0.418,0-0.827-0.039-1.224-0.113c-3.106-0.579-5.476-3.32-5.476-6.588v-17.409
		H557.505z M568.389,600.295c0.049,0.557,0.339,1.005,0.859,1.35c0.527,0.339,1.192,0.515,1.997,0.515
		c1.04,0,1.791-0.139,2.251-0.412c0.46-0.266,0.69-0.653,0.69-1.15c0-0.297-0.103-0.533-0.315-0.72
		c-0.218-0.181-0.526-0.345-0.944-0.484c-0.411-0.145-0.92-0.272-1.525-0.393c-0.599-0.115-1.295-0.266-2.087-0.442
		c-0.357-0.073-0.745-0.157-1.174-0.254c-0.423-0.103-0.847-0.236-1.265-0.412c-0.417-0.169-0.822-0.381-1.216-0.635
		c-0.387-0.254-0.732-0.569-1.035-0.95c-0.302-0.375-0.544-0.829-0.72-1.356c-0.176-0.526-0.266-1.144-0.266-1.852
		c0-0.938,0.169-1.779,0.508-2.53c0.333-0.756,0.848-1.392,1.531-1.906c0.684-0.515,1.549-0.914,2.59-1.192
		c1.041-0.279,2.263-0.417,3.667-0.417c1.15,0,2.178,0.145,3.098,0.442c0.914,0.297,1.689,0.72,2.33,1.265
		c0.635,0.545,1.125,1.198,1.459,1.948c0.339,0.757,0.508,1.579,0.508,2.475l-5.495-0.018c-0.036-0.448-0.248-0.835-0.641-1.156
		c-0.387-0.327-0.938-0.49-1.646-0.49c-0.841,0-1.458,0.151-1.863,0.46c-0.4,0.308-0.593,0.666-0.581,1.065
		c0,0.236,0.066,0.435,0.199,0.593c0.139,0.157,0.351,0.296,0.641,0.405c0.291,0.115,0.66,0.212,1.108,0.297
		c0.447,0.085,0.986,0.163,1.61,0.248c0.974,0.163,1.894,0.363,2.765,0.593c0.877,0.23,1.646,0.551,2.318,0.956
		c0.665,0.412,1.191,0.938,1.585,1.598c0.387,0.653,0.587,1.482,0.587,2.487c0,1.101-0.218,2.057-0.66,2.868
		c-0.435,0.805-1.046,1.477-1.833,2.009c-0.787,0.532-1.725,0.926-2.809,1.18c-1.089,0.254-2.282,0.381-3.582,0.381
		c-1.416,0-2.632-0.188-3.643-0.569c-1.011-0.375-1.84-0.871-2.494-1.476c-0.647-0.611-1.125-1.295-1.434-2.058
		c-0.308-0.762-0.46-1.525-0.46-2.281L568.389,600.295z"/>
</g>
<g>
</g>
<g>
</g>
<g>
</g>
<g>
</g>
<g>
</g>
<g>
</g>
<g>
</g>
<g>
</g>
</svg>
