<?xml version="1.0" encoding="iso-8859-1"?>
<!-- Generator: Adobe Illustrator 29.6.1, SVG Export Plug-In . SVG Version: 9.03 Build 0)  -->
<svg version="1.1" id="Layer_1" xmlns="http://www.w3.org/2000/svg" xmlns:xlink="http://www.w3.org/1999/xlink" x="0px" y="0px"
	 viewBox="0 0 1018.723 424.34" style="enable-background:new 0 0 1018.723 424.34;" xml:space="preserve">
<g>
	<path style="fill:#ECCD00;" d="M402.797,232.216h-16.772v-71.85h25.702h7.432c3.77,0,7.232,0.631,10.406,1.875
		c3.174,1.245,5.915,2.976,8.224,5.194s4.094,4.852,5.393,7.899c1.28,3.048,1.911,6.366,1.911,9.991
		c0,3.661-0.631,7.016-1.894,10.063c-1.262,3.048-3.029,5.662-5.302,7.845c-2.272,2.182-4.995,3.877-8.152,5.086
		c-3.138,1.208-6.582,1.821-10.314,1.821h-7.703h-8.93V232.216z M422.334,194.938c1.189-0.541,2.235-1.281,3.138-2.218
		c0.901-0.919,1.605-2.02,2.11-3.282c0.522-1.262,0.775-2.633,0.775-4.112c0-1.425-0.253-2.795-0.775-4.076
		c-0.505-1.28-1.209-2.398-2.11-3.354c-0.902-0.974-1.948-1.732-3.138-2.291c-1.208-0.559-2.489-0.848-3.859-0.848h-6.747h-8.93
		v20.992h8.93h6.747C419.844,195.75,421.126,195.479,422.334,194.938z"/>
	<path style="fill:#ECCD00;" d="M449.92,232.216v-71.85h16.772v28.738h30.297v-28.738h16.772v71.85H496.99v-28.738h-30.297v28.738
		H449.92z"/>
	<path style="fill:#ECCD00;" d="M567.552,160.366v44.185c0,2.146,0.324,4.148,0.974,5.987c0.649,1.857,1.605,3.445,2.867,4.798
		c1.245,1.334,2.796,2.398,4.635,3.173c1.858,0.775,4.004,1.154,6.421,1.154c2.362,0,4.454-0.379,6.294-1.136
		c1.839-0.757,3.372-1.821,4.653-3.173c1.262-1.353,2.218-2.94,2.867-4.78c0.667-1.839,0.992-3.823,0.992-5.969v-44.239h16.735
		v44.13c0,4.274-0.739,8.206-2.236,11.795c-1.497,3.589-3.625,6.709-6.366,9.323c-2.759,2.634-6.06,4.671-9.937,6.132
		c-3.877,1.461-8.206,2.201-13.003,2.201c-4.437,0-8.585-0.685-12.444-2.038c-3.841-1.353-7.195-3.318-10.026-5.861
		c-2.832-2.561-5.068-5.645-6.691-9.288c-1.623-3.625-2.435-7.719-2.435-12.264v-44.13H567.552z"/>
	<path style="fill:#ECCD00;" d="M635.568,232.216h-16.772v-71.85h14.607l34.229,42.958v-42.958h16.7v71.85h-14.481l-34.283-43.048
		V232.216z"/>
	<path style="fill:#ECCD00;" d="M705.839,189.104h29.054v14.374h-29.054v14.347h34.339v14.391h-51.11v-71.85h50.641v14.392h-33.869
		V189.104z"/>
	<path style="fill:#ECCD00;" d="M754.729,164.821c2.417-2.002,5.483-3.536,9.198-4.6s8.151-1.587,13.291-1.587
		c4.22,0,7.972,0.542,11.235,1.624c3.246,1.064,6.006,2.597,8.242,4.563c2.236,1.965,3.932,4.364,5.086,7.16
		c1.172,2.795,1.749,5.933,1.749,9.377h-16.808c0-1.064-0.181-2.092-0.577-3.084c-0.379-1.01-1.028-1.894-1.894-2.651
		c-0.884-0.757-2.021-1.371-3.409-1.821c-1.389-0.451-3.12-0.686-5.158-0.686c-2.254,0-4.111,0.199-5.572,0.577
		c-1.461,0.397-2.615,0.92-3.463,1.588c-0.848,0.667-1.442,1.424-1.767,2.272c-0.344,0.848-0.505,1.713-0.505,2.597
		c0,1.226,0.396,2.29,1.189,3.192s1.876,1.677,3.247,2.326c1.37,0.649,2.993,1.208,4.869,1.659c1.856,0.451,3.895,0.884,6.077,1.263
		c2.488,0.613,4.887,1.245,7.159,1.912c2.273,0.667,4.365,1.442,6.312,2.326c1.93,0.884,3.68,1.876,5.248,3.012
		c1.569,1.118,2.903,2.453,4.021,3.986c1.101,1.532,1.966,3.282,2.562,5.248c0.595,1.984,0.901,4.238,0.901,6.763
		c0,3.643-0.775,6.835-2.308,9.595c-1.533,2.759-3.662,5.067-6.385,6.961c-2.741,1.875-5.97,3.282-9.721,4.238
		c-3.751,0.955-7.827,1.424-12.228,1.424c-5.5,0-10.171-0.703-14.013-2.127c-3.841-1.425-6.962-3.283-9.378-5.573
		c-2.417-2.273-4.166-4.852-5.284-7.719c-1.101-2.867-1.659-5.771-1.659-8.692h16.7c0,1.479,0.302,2.809,0.908,3.99
		s1.518,2.214,2.734,3.097c2.435,1.749,5.861,2.633,10.298,2.633c2.435,0,4.49-0.18,6.186-0.559c1.695-0.36,3.066-0.883,4.112-1.551
		c1.063-0.667,1.839-1.497,2.326-2.453c0.505-0.974,0.739-2.074,0.739-3.318c0-1.713-0.396-3.102-1.208-4.166
		c-0.812-1.064-1.966-1.93-3.48-2.634c-1.515-0.703-3.354-1.352-5.536-1.911c-2.164-0.56-4.617-1.227-7.358-2.002
		c-1.335-0.36-2.868-0.739-4.581-1.172c-1.695-0.416-3.444-0.938-5.194-1.587c-1.767-0.631-3.48-1.389-5.157-2.291
		c-1.678-0.902-3.174-2.002-4.491-3.3c-1.316-1.299-2.38-2.85-3.174-4.635c-0.794-1.768-1.19-3.859-1.19-6.258
		c0-3.588,0.596-6.816,1.75-9.685C750.528,169.275,752.331,166.822,754.729,164.821z"/>
	<path style="fill:#ECCD00;" d="M878.193,169.907l-10.947,11.091c-1.93-2.399-4.382-4.347-7.341-5.844
		c-2.957-1.497-6.275-2.236-9.937-2.236c-3.102,0-6.023,0.595-8.765,1.767c-2.741,1.19-5.14,2.813-7.178,4.888
		c-2.056,2.092-3.661,4.544-4.852,7.376c-1.172,2.849-1.767,5.916-1.767,9.233c0,0.012,0,0.024,0,0.037
		c0.004,3.304,0.599,6.358,1.767,9.197c1.19,2.832,2.796,5.284,4.852,7.376c2.038,2.074,4.437,3.697,7.178,4.887
		c2.741,1.172,5.663,1.768,8.765,1.768c3.661,0,6.979-0.74,9.937-2.237c2.959-1.497,5.411-3.445,7.341-5.843l10.947,11.091
		c-3.733,3.679-8.008,6.511-12.787,8.458c-4.797,1.948-9.937,2.922-15.438,2.922c-3.625,0-7.105-0.433-10.46-1.317
		c-3.337-0.884-6.475-2.146-9.378-3.787c-2.903-1.642-5.537-3.589-7.917-5.862c-2.381-2.272-4.418-4.814-6.132-7.61
		c-1.714-2.796-3.029-5.807-3.968-9.018c-0.938-3.21-1.389-6.546-1.389-10.027c0-0.024,0-0.048,0-0.072
		c0-3.48,0.451-6.817,1.389-10.027c0.938-3.21,2.254-6.222,3.968-9.017c1.714-2.795,3.751-5.338,6.132-7.611
		c2.38-2.272,5.014-4.22,7.917-5.861c2.903-1.642,6.041-2.904,9.378-3.788c3.354-0.884,6.835-1.316,10.46-1.316
		c5.501,0,10.641,0.974,15.438,2.921C870.185,163.396,874.46,166.227,878.193,169.907z"/>
	<path style="fill:#ECCD00;" d="M911.762,232.486c-3.354-0.901-6.475-2.146-9.378-3.77c-2.921-1.623-5.554-3.588-7.935-5.879
		s-4.418-4.833-6.132-7.628c-1.695-2.795-3.03-5.808-3.949-9.018c-0.938-3.192-1.407-6.546-1.407-10.045
		c0-3.48,0.469-6.817,1.407-10.027c0.919-3.21,2.254-6.222,3.949-9.017c1.714-2.795,3.751-5.338,6.132-7.611
		c2.381-2.272,5.014-4.22,7.935-5.861c2.903-1.642,6.024-2.904,9.378-3.788c3.337-0.884,6.817-1.316,10.461-1.316
		c3.588,0,7.052,0.433,10.405,1.316c3.337,0.883,6.475,2.146,9.396,3.788c2.921,1.641,5.591,3.589,7.971,5.861
		c2.399,2.272,4.455,4.815,6.168,7.611c1.695,2.795,3.03,5.807,3.949,9.017c0.938,3.21,1.407,6.547,1.407,10.027
		c0,3.499-0.469,6.853-1.407,10.045c-0.919,3.21-2.254,6.222-3.949,9.018c-1.713,2.795-3.769,5.338-6.168,7.628
		c-2.38,2.291-5.05,4.256-7.971,5.879c-2.922,1.624-6.06,2.868-9.396,3.77c-3.354,0.901-6.817,1.353-10.405,1.353
		C918.58,233.839,915.099,233.387,911.762,232.486z M922.223,219.447c3.174,0,6.132-0.596,8.873-1.768
		c2.759-1.19,5.14-2.813,7.177-4.887c2.021-2.092,3.625-4.545,4.816-7.376c1.172-2.85,1.767-5.915,1.767-9.234
		c0-3.318-0.595-6.384-1.767-9.233c-1.191-2.832-2.796-5.284-4.816-7.376c-2.037-2.074-4.418-3.697-7.177-4.888
		c-2.741-1.172-5.699-1.767-8.873-1.767c-3.12,0-6.042,0.595-8.783,1.767c-2.76,1.19-5.158,2.813-7.196,4.888
		c-2.056,2.092-3.66,4.544-4.851,7.376c-1.173,2.849-1.768,5.916-1.768,9.233c0,3.319,0.595,6.384,1.768,9.234
		c1.19,2.832,2.795,5.284,4.851,7.376c2.038,2.074,4.437,3.697,7.196,4.887C916.181,218.852,919.103,219.447,922.223,219.447z"/>
</g>
<path style="fill:#ECCD00;" d="M383.975,278.529v-31.638h7.386v12.654h13.341v-12.654h7.386v31.638h-7.386v-12.654h-13.341v12.654
	H383.975z M440.122,271.239c-0.648,1.539-1.55,2.877-2.697,4.017l0.004,0.003c-0.023,0.023-0.047,0.046-0.07,0.069
	c-1.183,1.167-2.612,2.081-4.272,2.748c-1.659,0.667-3.486,1.001-5.487,1.001c-1.953,0-3.756-0.342-5.399-1.017
	c-1.645-0.675-3.05-1.588-4.233-2.748c-1.175-1.152-2.097-2.51-2.756-4.074c-0.658-1.557-0.992-3.224-0.992-4.995
	c0-1.763,0.325-3.431,0.977-4.987c0.659-1.564,1.572-2.922,2.764-4.09c1.184-1.167,2.597-2.08,4.241-2.755
	c1.644-0.675,3.462-1.016,5.447-1.016s3.804,0.341,5.455,1.016c1.652,0.675,3.074,1.588,4.257,2.755
	c1.184,1.168,2.112,2.526,2.771,4.09c0.264,0.623,0.475,1.264,0.632,1.921c0.236,0.985,0.354,2.008,0.354,3.065
	c0,0.782-0.063,1.544-0.191,2.285h-7.302h-11.884c0.048,0.152,0.101,0.301,0.158,0.447c0.326,0.818,0.778,1.525,1.351,2.112
	c0.571,0.588,1.239,1.048,2.001,1.366c0.763,0.318,1.572,0.477,2.446,0.477c0.881,0,1.707-0.159,2.462-0.477
	c0.762-0.317,1.421-0.77,1.977-1.357c0.086-0.089,0.169-0.18,0.25-0.274h7.907C440.237,270.962,440.18,271.101,440.122,271.239z
	 M432.126,261.424c-0.564-0.587-1.231-1.041-1.994-1.358c-0.754-0.317-1.58-0.477-2.462-0.477c-0.873,0-1.683,0.159-2.445,0.477
	s-1.422,0.771-1.985,1.358c-0.491,0.498-0.888,1.083-1.196,1.755h11.271C433.004,262.506,432.609,261.921,432.126,261.424z
	 M450.608,265.381v12.934h-7.391v-12.452c0-6.858,5.61-12.468,12.468-12.468v6.909C452.892,260.304,450.608,262.589,450.608,265.381
	z M465.688,248.716c0,2.179-1.766,3.945-3.945,3.945c-2.179,0-3.944-1.766-3.944-3.945s1.766-3.945,3.944-3.945
	C463.922,244.771,465.688,246.537,465.688,248.716z M465.373,278.315h-7.259v-24.125h7.259V278.315z M477.675,272.2h2.462v6.115
	h-3.556c-0.548,0-1.085-0.051-1.605-0.148c-4.077-0.76-7.188-4.357-7.188-8.645v-22.845h7.259v7.513h5.09v6.115h-5.09v9.268
	C475.047,271.017,476.23,272.2,477.675,272.2z M501.9,278.315v-1.258c-1.908,1.25-4.063,2-6.489,2.019
	c-2.062,0.016-3.871-0.299-5.565-1.015c-1.597-0.675-2.954-1.588-4.082-2.748c-2.346-2.396-3.502-5.669-3.502-9.069
	c0-5.333,3.044-9.805,7.981-11.833c3.318-1.362,7.581-1.357,10.903,0c4.924,2.012,8.013,6.48,8.013,11.833v12.071H501.9z
	 M501.9,267.509c0.639-4.109-1.867-7.92-6.186-7.92c-2.628,0-4.804,1.493-5.773,3.931c-0.651,1.635-0.647,3.83,0,5.456
	c1.801,4.524,7.42,5.097,10.236,2.121C501.091,270.155,501.692,268.852,501.9,267.509z M524.411,279.079
	c-2.063,0.016-3.871-0.299-5.565-1.015c-1.597-0.675-2.954-1.588-4.082-2.748c-2.347-2.396-3.502-5.669-3.502-9.069
	c0-5.333,3.044-9.806,7.981-11.833c3.317-1.363,7.581-1.358,10.902,0c0.212,0.086,0.419,0.177,0.623,0.272
	c4.561,2.124,7.391,6.437,7.391,11.561v9.101c0,1.02-0.115,2.014-0.333,2.97c-1.361,5.98-6.739,10.478-13.116,10.478
	c-5.962,0-11.051-3.932-12.8-9.332l7.952,0c1.107,1.477,2.871,2.436,4.848,2.436c2.848,0,5.253-1.991,5.892-4.649
	C528.767,278.387,526.712,279.062,524.411,279.079z M530.768,268.162c0.054-0.214,0.099-0.431,0.132-0.649
	c0.17-1.091,0.117-2.162-0.132-3.146c-0.689-2.719-2.883-4.774-6.055-4.774c-2.627,0-4.803,1.493-5.772,3.931
	c-0.651,1.636-0.647,3.83,0,5.456c1.801,4.524,7.42,5.097,10.235,2.12C529.943,270.312,530.489,269.269,530.768,268.162z
	 M566.166,271.239c-0.648,1.539-1.55,2.877-2.697,4.017l0.004,0.003c-0.023,0.023-0.047,0.046-0.07,0.069
	c-1.183,1.167-2.612,2.081-4.272,2.748c-1.659,0.667-3.486,1.001-5.487,1.001c-1.953,0-3.756-0.342-5.399-1.017
	c-1.645-0.675-3.05-1.588-4.233-2.748c-1.175-1.152-2.097-2.51-2.756-4.074c-0.658-1.557-0.992-3.224-0.992-4.995
	c0-1.763,0.325-3.431,0.977-4.987c0.659-1.564,1.572-2.922,2.764-4.09c1.184-1.167,2.597-2.08,4.241-2.755
	c1.644-0.675,3.462-1.016,5.447-1.016s3.804,0.341,5.455,1.016c1.652,0.675,3.074,1.588,4.257,2.755
	c1.184,1.168,2.112,2.526,2.771,4.09c0.265,0.623,0.475,1.264,0.632,1.921c0.236,0.985,0.354,2.008,0.354,3.065
	c0,0.782-0.063,1.544-0.191,2.285h-7.302h-11.884c0.048,0.152,0.101,0.301,0.158,0.447c0.326,0.818,0.778,1.525,1.351,2.112
	c0.571,0.588,1.239,1.048,2.001,1.366c0.763,0.318,1.572,0.477,2.446,0.477c0.881,0,1.707-0.159,2.462-0.477
	c0.762-0.317,1.421-0.77,1.977-1.357c0.086-0.089,0.17-0.18,0.25-0.274h7.907C566.28,270.962,566.224,271.101,566.166,271.239z
	 M558.169,261.424c-0.563-0.587-1.23-1.041-1.993-1.358c-0.754-0.317-1.58-0.477-2.462-0.477c-0.873,0-1.684,0.159-2.445,0.477
	c-0.763,0.317-1.422,0.771-1.985,1.358c-0.491,0.498-0.888,1.083-1.196,1.755h11.271
	C559.048,262.506,558.653,261.921,558.169,261.424z"/>
<g>
	<path style="fill:#ECCD00;" d="M603.103,278.315v-1.258c-1.908,1.25-4.063,2-6.489,2.019c-2.062,0.016-3.871-0.299-5.565-1.015
		c-1.597-0.675-2.954-1.588-4.082-2.748c-2.346-2.396-3.502-5.669-3.502-9.069c0-5.333,3.044-9.805,7.981-11.833
		c3.318-1.362,7.581-1.357,10.903,0c4.924,2.012,8.013,6.48,8.013,11.833v12.071H603.103z M603.103,267.509
		c0.639-4.109-1.867-7.92-6.186-7.92c-2.628,0-4.804,1.493-5.773,3.931c-0.651,1.635-0.647,3.83,0,5.456
		c1.801,4.524,7.42,5.097,10.236,2.121C602.295,270.155,602.895,268.852,603.103,267.509z"/>
	<path style="fill:#ECCD00;" d="M624.932,253.395c6.857,0,12.468,5.61,12.468,12.468v12.452h-7.391v-12.934
		c0-2.792-2.284-5.077-5.077-5.077s-5.077,2.285-5.077,5.077v12.934h-7.391v-12.452
		C612.464,259.005,618.075,253.395,624.932,253.395z"/>
	<path style="fill:#ECCD00;" d="M666.418,266.223c0,5.353-3.089,9.82-8.014,11.833c-3.321,1.357-7.585,1.362-10.902,0
		c-4.938-2.027-7.981-6.5-7.981-11.833c0-3.4,1.156-6.673,3.502-9.069c1.128-1.16,2.485-2.073,4.082-2.748
		c1.694-0.716,3.503-1.031,5.565-1.015c2.426,0.019,4.581,0.768,6.489,2.019v-1.258v-7.476h7.259v7.476v7.091V266.223z
		 M647.2,263.492c-0.647,1.626-0.651,3.82,0,5.456c0.97,2.438,3.146,3.931,5.772,3.931c4.319,0,6.825-3.812,6.187-7.92
		c-0.208-1.342-0.809-2.646-1.724-3.586C654.62,258.394,649.001,258.967,647.2,263.492z"/>
</g>
<path style="fill:#ECCD00;" d="M690.109,278.529h-7.386v-31.638h6.433l15.072,18.916v-18.916h7.354v31.638h-6.377l-15.096-18.956
	V278.529z M733.306,278.315v-1.258c-1.908,1.25-4.063,2-6.489,2.019c-2.062,0.016-3.871-0.299-5.565-1.015
	c-1.597-0.675-2.954-1.588-4.082-2.748c-2.346-2.396-3.502-5.669-3.502-9.069c0-5.333,3.044-9.805,7.981-11.833
	c3.318-1.362,7.581-1.357,10.903,0c4.924,2.012,8.013,6.48,8.013,11.833v12.071H733.306z M733.306,267.509
	c0.639-4.109-1.867-7.92-6.186-7.92c-2.628,0-4.804,1.493-5.773,3.931c-0.651,1.635-0.647,3.83,0,5.456
	c1.801,4.524,7.42,5.097,10.236,2.121C732.498,270.155,733.098,268.852,733.306,267.509z M752.554,272.2h2.462v6.115h-3.556
	c-0.548,0-1.085-0.051-1.605-0.148c-4.077-0.76-7.188-4.357-7.188-8.645v-22.845h7.259v7.513h5.09v6.115h-5.09v9.268
	C749.926,271.017,751.109,272.2,752.554,272.2z M757.14,254.189h7.391v12.934c0,2.792,2.284,5.077,5.077,5.077
	s5.077-2.285,5.077-5.077v-12.934h7.391v12.452c0,6.858-5.61,12.468-12.468,12.468s-12.468-5.61-12.468-12.468V254.189z
	 M791.588,265.381v12.934h-7.391v-12.452c0-6.858,5.61-12.468,12.468-12.468v6.909C793.872,260.304,791.588,262.589,791.588,265.381
	z M824.682,271.239c-0.648,1.539-1.55,2.877-2.697,4.017l0.004,0.003c-0.023,0.023-0.047,0.046-0.07,0.069
	c-1.183,1.167-2.612,2.081-4.272,2.748c-1.659,0.667-3.486,1.001-5.487,1.001c-1.953,0-3.756-0.342-5.399-1.017
	c-1.645-0.675-3.05-1.588-4.233-2.748c-1.175-1.152-2.097-2.51-2.756-4.074c-0.658-1.557-0.992-3.224-0.992-4.995
	c0-1.763,0.325-3.431,0.977-4.987c0.659-1.564,1.572-2.922,2.764-4.09c1.184-1.167,2.597-2.08,4.241-2.755
	c1.644-0.675,3.462-1.016,5.447-1.016s3.804,0.341,5.455,1.016c1.652,0.675,3.074,1.588,4.257,2.755
	c1.184,1.168,2.112,2.526,2.771,4.09c0.264,0.623,0.475,1.264,0.632,1.921c0.236,0.985,0.354,2.008,0.354,3.065
	c0,0.782-0.063,1.544-0.191,2.285h-7.302h-11.884c0.048,0.152,0.101,0.301,0.158,0.447c0.326,0.818,0.778,1.525,1.351,2.112
	c0.571,0.588,1.239,1.048,2.001,1.366c0.763,0.318,1.572,0.477,2.446,0.477c0.881,0,1.707-0.159,2.462-0.477
	c0.762-0.317,1.421-0.77,1.977-1.357c0.086-0.089,0.169-0.18,0.25-0.274h7.907C824.797,270.962,824.741,271.101,824.682,271.239z
	 M816.686,261.424c-0.564-0.587-1.231-1.041-1.994-1.358c-0.754-0.317-1.58-0.477-2.462-0.477c-0.873,0-1.683,0.159-2.445,0.477
	s-1.422,0.771-1.985,1.358c-0.491,0.498-0.888,1.083-1.196,1.755h11.271C817.565,262.506,817.17,261.921,816.686,261.424z
	 M841.98,253.229v-6.337h25.015v6.337h-8.839v25.301h-7.337v-25.301H841.98z M876.481,265.381v12.934h-7.391v-12.452
	c0-6.858,5.61-12.468,12.468-12.468v6.909C878.765,260.304,876.481,262.589,876.481,265.381z M903.309,278.315v-1.258
	c-1.908,1.25-4.063,2-6.489,2.019c-2.062,0.016-3.871-0.299-5.565-1.015c-1.597-0.675-2.954-1.588-4.082-2.748
	c-2.346-2.396-3.502-5.669-3.502-9.069c0-5.333,3.044-9.805,7.981-11.833c3.318-1.362,7.581-1.357,10.903,0
	c4.924,2.012,8.013,6.48,8.013,11.833v12.071H903.309z M903.309,267.509c0.639-4.109-1.867-7.92-6.186-7.92
	c-2.628,0-4.804,1.493-5.773,3.931c-0.651,1.635-0.647,3.83,0,5.456c1.801,4.524,7.42,5.097,10.236,2.121
	C902.501,270.155,903.101,268.852,903.309,267.509z M920.561,248.716c0,2.179-1.766,3.945-3.945,3.945
	c-2.179,0-3.944-1.766-3.944-3.945s1.766-3.945,3.944-3.945C918.796,244.771,920.561,246.537,920.561,248.716z M920.246,278.315
	h-7.259v-24.125h7.259V278.315z M929.92,246.676v22.895c0,1.446,1.184,2.628,2.629,2.628h2.462v6.115h-3.556
	c-0.549,0-1.085-0.051-1.606-0.148c-4.076-0.76-7.187-4.357-7.187-8.645v-22.845H929.92z M944.202,270.77
	c0.064,0.731,0.445,1.318,1.128,1.771c0.691,0.445,1.564,0.675,2.621,0.675c1.365,0,2.351-0.183,2.954-0.54
	c0.604-0.35,0.905-0.857,0.905-1.509c0-0.389-0.135-0.699-0.413-0.945c-0.286-0.238-0.69-0.453-1.239-0.635
	c-0.539-0.19-1.207-0.357-2.001-0.516c-0.786-0.151-1.699-0.349-2.739-0.58c-0.469-0.095-0.978-0.207-1.541-0.333
	c-0.556-0.135-1.111-0.31-1.66-0.54c-0.548-0.222-1.079-0.5-1.596-0.834c-0.508-0.333-0.961-0.747-1.358-1.247
	c-0.396-0.493-0.714-1.088-0.944-1.779c-0.23-0.691-0.35-1.501-0.35-2.43c0-1.231,0.222-2.335,0.667-3.32
	c0.437-0.992,1.112-1.826,2.009-2.501c0.897-0.675,2.033-1.199,3.399-1.564c1.366-0.366,2.97-0.548,4.812-0.548
	c1.509,0,2.858,0.19,4.065,0.58c1.199,0.389,2.216,0.945,3.058,1.66c0.834,0.715,1.477,1.572,1.914,2.557
	c0.444,0.993,0.667,2.073,0.667,3.249l-7.211-0.024c-0.048-0.588-0.325-1.096-0.842-1.517c-0.508-0.429-1.23-0.643-2.16-0.643
	c-1.104,0-1.913,0.198-2.445,0.604c-0.524,0.405-0.778,0.874-0.763,1.398c0,0.31,0.087,0.571,0.262,0.778
	c0.183,0.206,0.461,0.389,0.842,0.532c0.382,0.151,0.866,0.278,1.454,0.389c0.587,0.111,1.294,0.214,2.112,0.326
	c1.278,0.214,2.485,0.477,3.629,0.778c1.151,0.302,2.16,0.723,3.042,1.254c0.873,0.54,1.563,1.231,2.08,2.097
	c0.508,0.857,0.771,1.945,0.771,3.264c0,1.445-0.286,2.7-0.866,3.764c-0.571,1.057-1.373,1.938-2.405,2.637
	c-1.033,0.699-2.264,1.215-3.686,1.549c-1.43,0.333-2.994,0.5-4.701,0.5c-1.858,0-3.454-0.246-4.78-0.747
	c-1.326-0.492-2.414-1.144-3.272-1.938c-0.85-0.802-1.477-1.7-1.882-2.7c-0.404-1-0.604-2.001-0.604-2.994L944.202,270.77z"/>
<g>
	<path style="fill:#ECCD00;" d="M203.257,290.928c0.26,0.533,0.569,1.042,0.925,1.516c0.361,0.478,0.767,0.921,1.213,1.32
		c0.447,0.398,0.932,0.752,1.447,1.057c0.516,0.302,1.062,0.557,1.627,0.755c0.57,0.199,1.16,0.34,1.758,0.426
		c0.666,0.089,1.342,0.112,2.012,0.054c0.717-0.057,1.425-0.203,2.109-0.426c0.568-0.188,1.118-0.432,1.64-0.725
		c0.526-0.297,1.021-0.649,1.48-1.041c0.447-0.389,0.859-0.819,1.225-1.286c0.367-0.471,0.688-0.977,0.959-1.51
		c0.267-0.531,0.484-1.087,0.645-1.659c0.166-0.591,0.268-1.199,0.315-1.811c0.051-0.753,0.015-1.512-0.12-2.255
		c-0.105-0.61-0.279-1.209-0.507-1.785c-0.222-0.558-0.499-1.093-0.826-1.597c-0.331-0.51-0.715-0.986-1.14-1.422
		c-0.42-0.427-0.881-0.812-1.375-1.151c-0.5-0.341-1.033-0.629-1.589-0.868c-0.552-0.232-1.124-0.41-1.71-0.533
		c-0.749-0.152-1.517-0.217-2.281-0.179l-0.001,0c-0.057,0.002-0.113,0.003-0.169,0.005l0,0c-0.557,0.044-1.111,0.124-1.652,0.264
		c-0.588,0.148-1.159,0.357-1.706,0.618c-0.54,0.259-1.054,0.571-1.533,0.93c-0.484,0.362-0.93,0.773-1.333,1.223
		c-0.398,0.447-0.753,0.932-1.058,1.447c-0.302,0.517-0.557,1.062-0.755,1.627c-0.199,0.57-0.34,1.16-0.426,1.758
		c-0.081,0.598-0.105,1.203-0.071,1.806c0.039,0.591,0.13,1.178,0.277,1.752C202.789,289.821,202.997,290.386,203.257,290.928z"/>
	<path style="fill:#ECCD00;" d="M306.772,252.224c-9.633,7.01-20.951,11.712-32.737,13.478c-7.37,1.163-14.902,1.137-22.269,0.011
		c-2.443-0.372-4.872-0.868-7.267-1.479c-7.039-1.799-13.821-4.614-20.043-8.36c-11.491-6.844-20.937-16.941-27.24-28.715
		c-0.081,0.007-0.162,0.018-0.243,0.022c-0.059,0.007-0.118,0.015-0.177,0.018c-1.207,0.099-2.366,0.055-3.462-0.088
		c-0.026-0.004-0.048-0.007-0.074-0.011c-1.005-0.147-2.02-0.386-3.025-0.74l-0.015-0.004c-0.026-0.007-0.052-0.018-0.077-0.026
		h-0.007c-0.328,10.178,1.648,20.168,5.626,29.286c2.233,5.118,5.096,9.964,9.846,16.529c0.633-0.25,1.292-0.464,1.965-0.633
		c1.008-0.258,1.943-0.39,2.782-0.456c0.099-0.007,0.195-0.011,0.291-0.015c0.066-0.004,0.052-0.004,0.081-0.004h0.011
		c1.369-0.066,2.697,0.048,3.97,0.309c0.015,0.004,0.03,0.004,0.044,0.007c1.008,0.213,1.991,0.519,2.94,0.916
		c0.015,0.007,0.033,0.015,0.048,0.022c0.935,0.397,1.851,0.894,2.734,1.498c0.011,0.004,0.015,0.007,0.022,0.011
		c0.839,0.578,1.634,1.24,2.37,1.987c0.011,0.007,0.015,0.015,0.022,0.022c0.721,0.74,1.384,1.56,1.972,2.465
		c0.563,0.872,1.045,1.803,1.435,2.778v0.007c0.386,0.968,0.688,2.005,0.879,3.102c0.236,1.317,0.298,2.627,0.21,3.897
		c0,0.022-0.011,0.044-0.011,0.066c-0.077,1.016-0.25,2.061-0.545,3.117v0.004c-0.28,0.993-0.651,1.954-1.115,2.87v0.004
		c0,0.004-0.011,0.011-0.011,0.018c-0.467,0.92-1.019,1.796-1.656,2.612h-0.004c0,0,0.004,0,0.004,0.004s-0.011,0.007-0.011,0.011
		c-0.048,0.063-0.099,0.121-0.147,0.184c6.822,11.418,11.837,26.533,5.825,46.521c0,0,0.375-0.39,1.052-1.096
		c4.566-4.772,22.916-23.972,32.461-34.477c10.457-11.51,30.746-35.092,30.746-35.092
		C304.502,261.312,309.469,250.259,306.772,252.224z"/>
	<path style="fill:#ECCD00;" d="M203.98,207.945c-0.222-0.558-0.5-1.093-0.826-1.597c-0.331-0.511-0.715-0.986-1.14-1.422
		c-0.42-0.427-0.881-0.812-1.375-1.151c-0.5-0.341-1.033-0.629-1.589-0.868c-0.551-0.232-1.124-0.41-1.709-0.533
		c-0.749-0.152-1.518-0.217-2.282-0.179l-0.001,0c-0.057,0.002-0.113,0.003-0.169,0.005l0,0.001
		c-0.557,0.044-1.111,0.124-1.652,0.264c-0.587,0.148-1.159,0.357-1.706,0.618c-0.54,0.259-1.054,0.571-1.533,0.93
		c-0.484,0.362-0.93,0.773-1.333,1.223c-0.398,0.447-0.753,0.932-1.058,1.447c-0.302,0.517-0.557,1.062-0.755,1.627
		c-0.199,0.57-0.34,1.16-0.427,1.758c-0.081,0.598-0.104,1.203-0.071,1.806c0.039,0.591,0.13,1.178,0.277,1.752
		c0.152,0.581,0.361,1.146,0.621,1.688c0.26,0.533,0.568,1.042,0.925,1.516c0.36,0.478,0.767,0.921,1.213,1.32
		c0.447,0.398,0.932,0.753,1.447,1.058c0.516,0.302,1.062,0.556,1.627,0.755c0.57,0.199,1.16,0.34,1.758,0.426
		c0.666,0.089,1.342,0.112,2.011,0.054c0.717-0.057,1.425-0.203,2.109-0.426c0.568-0.188,1.118-0.432,1.64-0.725
		c0.526-0.297,1.021-0.649,1.48-1.041c0.448-0.389,0.859-0.819,1.225-1.286c0.367-0.471,0.688-0.978,0.959-1.51
		c0.267-0.531,0.484-1.087,0.645-1.659c0.166-0.591,0.268-1.199,0.316-1.811c0.051-0.753,0.015-1.512-0.12-2.255
		C204.381,209.119,204.209,208.52,203.98,207.945z"/>
	<path style="fill:#ECCD00;" d="M249.035,187.983c0.26,0.533,0.569,1.042,0.926,1.516c0.361,0.478,0.767,0.92,1.213,1.32
		c0.447,0.398,0.933,0.753,1.448,1.058c0.516,0.302,1.061,0.557,1.626,0.755c0.57,0.199,1.16,0.34,1.758,0.426
		c0.666,0.089,1.342,0.112,2.011,0.055c0.717-0.057,1.426-0.203,2.109-0.426c0.568-0.188,1.118-0.432,1.64-0.725
		c0.526-0.297,1.021-0.649,1.48-1.041c0.447-0.389,0.858-0.82,1.225-1.286c0.367-0.471,0.689-0.977,0.959-1.51
		c0.267-0.531,0.482-1.087,0.644-1.66c0.166-0.591,0.268-1.199,0.316-1.811c0.051-0.753,0.015-1.512-0.12-2.255
		c-0.105-0.61-0.279-1.209-0.507-1.785c-0.222-0.558-0.499-1.093-0.826-1.597c-0.331-0.51-0.715-0.986-1.14-1.422
		c-0.42-0.427-0.881-0.812-1.375-1.151c-0.5-0.341-1.033-0.629-1.589-0.868c-0.552-0.232-1.125-0.411-1.71-0.534
		c-0.749-0.153-1.517-0.216-2.281-0.178l-0.001,0c-0.057,0.002-0.113,0.003-0.169,0.005h-0.001
		c-0.557,0.044-1.111,0.124-1.652,0.264c-0.587,0.148-1.159,0.357-1.706,0.618c-0.54,0.259-1.054,0.57-1.533,0.929
		c-0.483,0.362-0.93,0.774-1.333,1.224c-0.398,0.447-0.753,0.932-1.058,1.447c-0.302,0.517-0.557,1.061-0.755,1.626
		c-0.199,0.57-0.34,1.161-0.426,1.759c-0.081,0.598-0.105,1.203-0.071,1.806c0.039,0.591,0.13,1.179,0.277,1.753
		C248.568,186.877,248.776,187.442,249.035,187.983z"/>
	<path style="fill:#ECCD00;" d="M322.521,159.863c-0.291-1.111-0.596-2.219-0.916-3.323c0,0.132,0,0.269-0.004,0.401
		c-0.004,0.412-0.018,0.817-0.03,1.225c-0.066,2.068-0.217,4.136-0.456,6.193c-0.688,6.281-2.226,12.448-4.511,18.324
		c-0.916,2.355-1.954,4.662-3.102,6.914c-4.364,8.537-10.358,16.245-17.625,22.504c-7.918,6.929-17.368,12.028-27.442,15.027
		c-2.3,0.684-4.633,1.258-6.988,1.718c-4.202,0.824-8.474,1.288-12.753,1.376c-13.677,0.35-27.365-3.334-39.158-10.237
		c-0.169-0.092-0.335-0.191-0.5-0.291c-0.309,0.497-0.64,0.975-1.001,1.439v0.004c0,0.004-0.011,0.007-0.011,0.011
		c-0.636,0.813-1.347,1.553-2.108,2.215c-0.015,0.015-0.029,0.026-0.044,0.041c-0.703,0.6-1.472,1.159-2.314,1.652
		c9.475,17.073,25.956,29.37,45.329,33.447c2.373,0.5,4.772,0.872,7.186,1.115c10.917,1.096,21.941-0.471,32.119-4.57
		c11.627-4.68,21.728-12.488,29.183-22.559c2.756-6.612,4.886-13.467,6.358-20.48c0.971-4.625,1.656-9.309,2.05-14.019
		c0.261-3.15,0.39-6.307,0.39-9.468C326.171,178.853,324.946,169.224,322.521,159.863z"/>
	<path style="fill:#ECCD00;" d="M216.483,302.067c-0.011,0.004-0.022,0.007-0.033,0.011c-1.148,0.375-2.37,0.629-3.646,0.732
		c-1.211,0.103-2.37,0.059-3.466-0.085c-0.022-0.004-0.048-0.007-0.07-0.011c-1.004-0.147-2.02-0.386-3.028-0.74l-0.015-0.004
		c-0.982-0.346-1.917-0.78-2.8-1.299c-0.011-0.007-0.022-0.011-0.033-0.018c-0.89-0.526-1.726-1.137-2.498-1.829
		c-0.011-0.004-0.011-0.007-0.015-0.015c-0.776-0.692-1.479-1.457-2.101-2.281v-0.004h-0.004c0,0-0.011-0.004-0.011-0.007
		c-0.625-0.832-1.155-1.711-1.601-2.62c-0.011-0.011-0.011-0.022-0.018-0.033c-0.449-0.931-0.802-1.902-1.067-2.903
		c0-0.011-0.007-0.026-0.007-0.037c-0.258-0.997-0.412-2.002-0.475-2.995v-0.063c-0.059-1.03-0.019-2.068,0.121-3.102
		c0-0.015,0.011-0.033,0.011-0.052c0.144-1.005,0.383-2.02,0.736-3.028v-0.011c0.346-0.986,0.784-1.921,1.299-2.804
		c0.011-0.011,0.015-0.018,0.018-0.029c0.5-0.839,1.071-1.63,1.707-2.362c-9.379-13.515-17.651-27.729-17.651-44.442
		c0-3.496,0.361-7.102,1.152-10.836c-0.074-0.096-0.147-0.191-0.221-0.287v-0.004c0-0.004-0.011-0.004-0.011-0.007
		c-0.625-0.832-1.159-1.711-1.604-2.62c-0.007-0.011-0.011-0.022-0.018-0.037c-0.445-0.927-0.802-1.899-1.063-2.9
		c0-0.011-0.011-0.026-0.011-0.037c-0.258-1.001-0.408-2.002-0.475-2.995v-0.063c-0.059-1.03-0.018-2.068,0.121-3.102
		c0-0.015,0.011-0.033,0.011-0.052c0.144-1.005,0.386-2.02,0.736-3.028v-0.011c0.346-0.986,0.784-1.921,1.299-2.804
		c0.011-0.011,0.015-0.022,0.022-0.029c0.526-0.894,1.137-1.729,1.825-2.498c0.007-0.007,0.011-0.015,0.018-0.022
		c0.692-0.773,1.468-1.483,2.314-2.119c0.832-0.626,1.726-1.166,2.664-1.619l0.011-0.004c0.935-0.449,1.928-0.81,2.962-1.071
		c1.005-0.258,1.943-0.386,2.782-0.453c0.096-0.007,0.195-0.015,0.291-0.018c0.066,0,0.052,0,0.081,0h0.011
		c1.365-0.07,2.697,0.048,3.97,0.309c0.015,0,0.03,0.004,0.044,0.007c1.005,0.21,1.991,0.519,2.94,0.916
		c0.015,0.007,0.03,0.015,0.048,0.018c0.931,0.401,1.851,0.898,2.734,1.498c0.011,0.007,0.015,0.011,0.022,0.015
		c0.725,0.5,1.417,1.06,2.068,1.685c11.591,0.6,24.568-1.674,36.656-8.386c-0.096-0.177-0.184-0.353-0.272-0.53
		c-0.011-0.015-0.011-0.026-0.018-0.037c-0.449-0.931-0.806-1.902-1.067-2.899c0-0.015-0.011-0.026-0.011-0.037
		c-0.254-1.001-0.408-2.005-0.475-2.999v-0.059c-0.055-1.03-0.018-2.072,0.125-3.102c0-0.018,0.007-0.037,0.007-0.052
		c0.147-1.008,0.386-2.024,0.74-3.032v-0.011c0.346-0.982,0.784-1.921,1.299-2.8c0.011-0.011,0.011-0.022,0.018-0.033
		c0.53-0.89,1.141-1.726,1.825-2.495c0.011-0.007,0.011-0.015,0.018-0.022c0.696-0.773,1.468-1.487,2.315-2.119v-0.004
		c0.442-0.331,0.898-0.637,1.369-0.92c-13.224-18.751-31.891-31.111-53.766-34.161c-3.499-0.489-7.083-0.74-10.737-0.74v0.004
		c-0.696,0-1.391,0.007-2.086,0.026c-2.34,0.062-4.677,0.232-7.002,0.5c-11.142,1.303-21.871,4.982-31.468,10.789
		c-2.002,1.211-3.948,2.513-5.836,3.9c-20.079,14.759-31.939,38.194-31.939,63.115c7.138,55.624,60.577,99.392,98.031,140.894
		c2.635,2.918,5.192,5.828,7.646,8.728c20.057-24.329,15.712-43.312,4.986-61.471C216.774,301.972,216.63,302.019,216.483,302.067z"
		/>
	<path style="fill:#ECCD00;" d="M245.961,155.06c0.375,0.393,0.747,0.789,1.115,1.19C246.708,155.85,246.337,155.453,245.961,155.06
		C245.962,155.06,245.961,155.06,245.961,155.06z"/>
	<path style="fill:#ECCD00;" d="M246.03,155.132c0.352,0.369,0.7,0.742,1.046,1.117h0.001
		C246.731,155.873,246.382,155.501,246.03,155.132z"/>
	<path style="fill:#ECCD00;" d="M136.736,143.629c1.991-1.35,4.044-2.616,6.141-3.794c10.685-6.001,22.659-9.729,34.871-10.726
		c1.111-0.088,2.222-0.158,3.337-0.202l-15.37-8.905l0.011-5.696l20.525,14.417c0.53-0.747,1.089-1.476,1.682-2.175l-22.195-18.681
		l0.011-7.458l7.458,0.011l18.615,22.25c0.703-0.589,1.431-1.148,2.182-1.674l-14.354-20.569l5.692,0.011l10.98,19.078
		c2.359-1.361,4.908-2.428,7.602-3.15l-5.663-21.26l4.036-4.022l4.312,24.686c0.898-0.158,1.807-0.276,2.73-0.357l-2.484-28.874
		l5.284-5.265l5.266,5.28l-2.568,28.851c0.924,0.077,1.832,0.195,2.73,0.35l4.386-24.638l4.022,4.033l-5.714,21.194
		c2.701,0.718,5.262,1.781,7.628,3.142l10.987-18.968l5.7,0.007l-14.361,20.44c0.754,0.526,1.487,1.086,2.193,1.674l18.604-22.103
		l7.462,0.011l-0.015,7.458l-22.144,18.523c0.596,0.703,1.159,1.431,1.689,2.186l20.447-14.269l-0.011,5.696l-18.946,10.899
		c1.376,2.37,2.458,4.931,3.187,7.635l21.088-5.615l4.022,4.033l-24.506,4.283c0.158,0.902,0.28,1.818,0.361,2.745l28.693-2.469
		l5.265,5.284l-5.284,5.266l-28.667-2.55c-0.081,0.927-0.199,1.844-0.357,2.745c-0.445-0.423-0.891-0.843-1.343-1.255
		c0.453,0.412,0.898,0.832,1.343,1.258l24.462,4.349l-4.033,4.022l-16.609-4.478c1.395,1.523,2.734,3.095,4.014,4.714
		c1.799,2.278,3.484,4.651,5.045,7.102c0,0,0,0,0,0.004c0.107-0.007,0.217-0.015,0.324-0.018h0.011
		c0.18-0.011,0.361-0.015,0.541-0.018c0.217-0.004,0.427,0.022,0.64,0.026c0.478,0.011,0.953,0.04,1.424,0.096
		c0.213,0.022,0.423,0.059,0.633,0.092c0.453,0.07,0.905,0.162,1.35,0.269c0.173,0.044,0.346,0.088,0.515,0.136
		c0.563,0.155,1.119,0.346,1.66,0.563c0.037,0.015,0.07,0.022,0.103,0.037c0.596,0.25,1.174,0.534,1.733,0.854
		c0.125,0.07,0.247,0.155,0.372,0.228c0.434,0.261,0.857,0.545,1.266,0.846c0.125,0.092,0.25,0.188,0.372,0.283
		c0.475,0.368,0.924,0.765,1.35,1.185c0.022,0.018,0.044,0.037,0.066,0.059c0.464,0.467,0.898,0.964,1.302,1.483
		c0.066,0.085,0.125,0.177,0.188,0.261c0.327,0.438,0.629,0.89,0.909,1.358c0.07,0.121,0.14,0.243,0.21,0.364
		c0.283,0.504,0.541,1.027,0.769,1.556c0.022,0.059,0.051,0.114,0.077,0.169c0.247,0.603,0.456,1.222,0.629,1.851
		c0.03,0.121,0.052,0.246,0.081,0.368c0.121,0.478,0.217,0.96,0.291,1.446c0.041,0.276,0.066,0.548,0.092,0.821
		c0.048,0.423,0.074,0.85,0.085,1.273c0,0.224,0,0.442-0.011,0.662c-0.007,0.486-0.04,0.971-0.092,1.453
		c-0.018,0.151-0.037,0.302-0.059,0.453c-0.081,0.585-0.195,1.166-0.342,1.737c-0.011,0.044-0.018,0.088-0.029,0.132
		c-0.177,0.648-0.394,1.28-0.648,1.902c-0.018,0.048-0.041,0.092-0.059,0.136c-0.239,0.567-0.511,1.115-0.813,1.648
		c-0.041,0.074-0.085,0.151-0.129,0.225c-0.677,1.163-1.505,2.233-2.454,3.186l-0.03,0.029c-0.467,0.464-0.96,0.894-1.479,1.295
		c-0.04,0.033-0.081,0.066-0.125,0.099c-1.604,1.218-3.426,2.119-5.365,2.66c-0.107,0.026-0.21,0.055-0.317,0.081
		c-0.545,0.14-1.093,0.246-1.648,0.327c-0.129,0.018-0.258,0.04-0.39,0.055c-0.604,0.074-1.214,0.114-1.821,0.121
		c-0.041,0-0.085,0.004-0.125,0.004c-2.083-0.004-4.143-0.419-6.068-1.218c0,0-0.011,0-0.011-0.004
		c-1.288-0.534-2.498-1.236-3.602-2.086c-0.011,0.004-0.011,0.004-0.018,0.007c-0.28,0.162-0.585,0.272-0.865,0.431
		c-2.406,1.347-4.864,2.601-7.407,3.672c-1.008,0.423-2.068,0.706-3.094,1.086c-1.865,0.688-3.716,1.42-5.633,1.961
		c-1.177,0.331-2.392,0.512-3.584,0.784c-1.814,0.416-3.613,0.89-5.449,1.174c-1.299,0.199-2.616,0.235-3.926,0.368
		c-1.766,0.177-3.525,0.419-5.299,0.471l-0.331,0.007l-1.012,0.029c0,0,0,0-0.011,0c-0.077,0-0.162,0-0.239,0.004
		c0.195,0.626,0.353,1.281,0.471,1.954c0.239,1.321,0.298,2.627,0.213,3.897c0,0.026-0.011,0.048-0.011,0.07
		c-0.022,0.28-0.052,0.563-0.088,0.846c0.107,0.066,0.213,0.129,0.32,0.195c1.895,1.17,3.834,2.237,5.818,3.209
		c1.983,0.968,4.011,1.84,6.068,2.605c4.117,1.538,8.367,2.668,12.691,3.381c4.323,0.71,8.72,1.005,13.129,0.868
		c4.404-0.136,8.823-0.707,13.191-1.715c2.292-0.53,4.555-1.181,6.778-1.946c13.224-4.552,24.719-13.081,32.91-24.418
		c2.649-3.669,4.927-7.595,6.796-11.716c1.012-2.234,1.902-4.519,2.664-6.844c0.762-2.311,1.391-4.655,1.895-7.024
		c0.504-2.37,0.883-4.761,1.133-7.168c0.497-4.809,0.478-9.674-0.062-14.509c-0.445-3.989-1.247-7.933-2.392-11.782
		c-0.725-2.44-1.586-4.835-2.579-7.179c-0.581-1.369-1.222-2.719-1.917-4.055c-0.324-0.626-0.659-1.244-1.008-1.862
		c-1.093-1.932-2.3-3.827-3.617-5.678c-1.314-1.851-2.734-3.661-4.25-5.424c-2.763-3.212-5.843-6.27-9.188-9.151
		c-0.011-0.011-0.022-0.022-0.033-0.029c-13.857-11.944-32.203-20.911-50.918-25.47c-8.993-2.197-18.07-3.37-26.776-3.37v-0.004
		c-18.129,0.004-35.994,4.316-52.125,12.591c-4.982,2.554-9.769,5.471-14.321,8.728c-29.992,21.448-47.786,56.055-47.786,92.927
		c0,7.223,0.684,14.428,2.046,21.522c0.802-18.041,7.517-35.799,18.946-49.799C123.817,153.821,129.94,148.236,136.736,143.629z
		 M266.599,120.948l0.946-5.199l2.292,4.765l5.236-0.706l-3.823,3.65l2.292,4.761l-4.655-2.506l-3.823,3.65l0.949-5.199
		l-4.655-2.509L266.599,120.948z M230.215,85.61l4.968,1.807l3.256-4.165l-0.188,5.284l4.967,1.807l-5.082,1.457l-0.18,5.284
		l-2.958-4.382l-5.081,1.457l3.256-4.165L230.215,85.61z M184.063,83.803l3.72,3.753l4.721-2.373l-2.425,4.695l3.72,3.757
		l-5.218-0.854l-2.425,4.699l-0.798-5.225l-5.218-0.854l4.724-2.377L184.063,83.803z"/>
</g>
<g>
</g>
<g>
</g>
<g>
</g>
<g>
</g>
<g>
</g>
<g>
</g>
<g>
</g>
<g>
</g>
</svg>
