<?xml version="1.0" encoding="iso-8859-1"?>
<!-- Generator: Adobe Illustrator 29.6.1, SVG Export Plug-In . SVG Version: 9.03 Build 0)  -->
<svg version="1.1" id="Layer_1" xmlns="http://www.w3.org/2000/svg" xmlns:xlink="http://www.w3.org/1999/xlink" x="0px" y="0px"
	 viewBox="0 0 1410.957 364.596" style="enable-background:new 0 0 1410.957 364.596;" xml:space="preserve">
<g>
	<path style="fill:#FFFFFF;" d="M223.115,197.63h-30.062V68.849h46.068h13.32c6.756,0,12.963,1.132,18.652,3.362
		c5.689,2.231,10.602,5.333,14.74,9.309c4.138,3.976,7.337,8.696,9.665,14.159c2.295,5.464,3.425,11.411,3.425,17.908
		c0,6.561-1.131,12.575-3.394,18.037c-2.261,5.463-5.43,10.149-9.503,14.061c-4.073,3.911-8.953,6.95-14.612,9.116
		c-5.624,2.165-11.797,3.264-18.487,3.264h-13.807h-16.005V197.63z M258.131,130.815c2.132-0.969,4.007-2.296,5.624-3.976
		c1.616-1.648,2.878-3.621,3.783-5.883c0.936-2.262,1.39-4.72,1.39-7.37c0-2.554-0.453-5.01-1.39-7.306
		c-0.905-2.295-2.167-4.299-3.783-6.012c-1.617-1.746-3.492-3.104-5.624-4.105c-2.165-1.002-4.462-1.519-6.917-1.519h-12.093
		h-16.005v37.626h16.005h12.093C253.669,132.27,255.966,131.785,258.131,130.815z M307.577,197.63V68.849h30.062v51.509h54.303
		V68.849h30.062V197.63h-30.062v-51.509h-54.303v51.509H307.577z"/>
	<path style="fill:#FFFFFF;" d="M518.416,68.849v79.195c0,3.846,0.581,7.435,1.745,10.731c1.164,3.329,2.878,6.174,5.139,8.599
		c2.232,2.391,5.011,4.299,8.307,5.688c3.331,1.39,7.176,2.069,11.509,2.069c4.234,0,7.983-0.679,11.281-2.037
		c3.296-1.357,6.044-3.264,8.34-5.688c2.261-2.425,3.975-5.269,5.139-8.567c1.195-3.297,1.778-6.853,1.778-10.699V68.849h29.996
		v79.098c0,7.661-1.325,14.707-4.008,21.141c-2.683,6.433-6.497,12.025-11.411,16.711c-4.945,4.721-10.861,8.372-17.81,10.99
		c-6.949,2.619-14.708,3.944-23.306,3.944c-7.952,0-15.387-1.228-22.305-3.653c-6.884-2.424-12.897-5.948-17.971-10.506
		c-5.076-4.589-9.084-10.117-11.993-16.647c-2.909-6.498-4.364-13.835-4.364-21.981V68.849H518.416z M640.324,197.63h-30.062V68.849
		h26.182l61.352,76.996V68.849h29.933V197.63h-25.956l-61.448-77.158V197.63z M766.276,120.358h52.075v25.763h-52.075v25.714h61.548
		v25.794h-91.608V68.849h90.766v25.795h-60.706V120.358z M853.904,76.834c4.332-3.589,9.828-6.337,16.487-8.244
		c6.658-1.907,14.61-2.844,23.822-2.844c7.563,0,14.288,0.971,20.138,2.91c5.818,1.907,10.765,4.654,14.773,8.179
		c4.008,3.522,7.047,7.822,9.116,12.833c2.1,5.01,3.135,10.634,3.135,16.808h-30.125c0-1.907-0.324-3.75-1.034-5.528
		c-0.679-1.81-1.843-3.394-3.394-4.751c-1.584-1.357-3.621-2.457-6.11-3.264c-2.489-0.809-5.592-1.229-9.245-1.229
		c-4.04,0-7.369,0.356-9.988,1.034c-2.619,0.712-4.687,1.65-6.207,2.846c-1.519,1.195-2.585,2.553-3.166,4.072
		c-0.616,1.519-0.905,3.07-0.905,4.655c0,2.198,0.709,4.105,2.132,5.721c1.423,1.616,3.362,3.006,5.82,4.169
		c2.456,1.164,5.365,2.166,8.727,2.974c3.327,0.809,6.98,1.584,10.892,2.263c4.46,1.098,8.759,2.231,12.832,3.426
		c4.075,1.195,7.824,2.585,11.314,4.169c3.459,1.584,6.595,3.362,9.406,5.399c2.813,2.003,5.204,4.396,7.208,7.144
		c1.973,2.746,3.523,5.883,4.591,9.406c1.066,3.556,1.616,7.597,1.616,12.122c0,6.529-1.39,12.251-4.136,17.197
		c-2.748,4.945-6.564,9.083-11.444,12.477c-4.913,3.361-10.7,5.882-17.423,7.596c-6.723,1.712-14.029,2.553-21.916,2.553
		c-9.858,0-18.23-1.26-25.116-3.813c-6.884-2.555-12.478-5.885-16.809-9.988c-4.332-4.074-7.467-8.697-9.471-13.836
		c-1.973-5.139-2.974-10.344-2.974-15.58h29.933c0,2.65,0.541,5.035,1.628,7.152s2.72,3.968,4.901,5.551
		c4.364,3.135,10.506,4.719,18.458,4.719c4.364,0,8.048-0.323,11.087-1.002c3.039-0.646,5.496-1.583,7.371-2.78
		c1.906-1.196,3.296-2.683,4.169-4.396c0.905-1.745,1.325-3.718,1.325-5.948c0-3.071-0.711-5.559-2.165-7.466
		c-1.455-1.908-3.523-3.46-6.238-4.721c-2.715-1.26-6.012-2.423-9.923-3.425c-3.879-1.003-8.276-2.198-13.189-3.588
		c-2.393-0.646-5.141-1.325-8.211-2.1c-3.039-0.745-6.173-1.682-9.31-2.845c-3.166-1.131-6.238-2.49-9.244-4.105
		c-3.007-1.616-5.689-3.588-8.05-5.915c-2.359-2.328-4.266-5.108-5.689-8.307c-1.423-3.168-2.134-6.917-2.134-11.217
		c0-6.432,1.068-12.217,3.137-17.358C846.374,84.817,849.605,80.422,853.904,76.834z M1075.196,85.95l-19.621,19.879
		c-3.459-4.3-7.854-7.791-13.157-10.474c-5.3-2.682-11.248-4.007-17.81-4.007c-5.559,0-10.796,1.066-15.709,3.167
		c-4.913,2.134-9.212,5.043-12.865,8.761c-3.685,3.749-6.562,8.145-8.696,13.22c-2.1,5.107-3.166,10.603-3.166,16.55
		c0,0.022,0,0.043,0,0.066c0.007,5.922,1.073,11.397,3.166,16.485c2.134,5.075,5.011,9.471,8.696,13.221
		c3.653,3.717,7.952,6.627,12.865,8.76c4.913,2.1,10.15,3.168,15.709,3.168c6.562,0,12.51-1.327,17.81-4.009
		c5.304-2.682,9.699-6.174,13.157-10.473l19.621,19.88c-6.692,6.594-14.353,11.67-22.919,15.16
		c-8.598,3.492-17.81,5.238-27.67,5.238c-6.497,0-12.736-0.775-18.748-2.36c-5.981-1.584-11.605-3.846-16.809-6.788
		c-5.204-2.942-9.924-6.433-14.19-10.507c-4.267-4.073-7.919-8.629-10.99-13.64c-3.072-5.011-5.43-10.408-7.112-16.163
		c-1.68-5.753-2.489-11.733-2.489-17.972c0-0.044,0-0.087,0-0.13c0-6.238,0.809-12.218,2.489-17.973
		c1.682-5.753,4.04-11.152,7.112-16.162c3.072-5.01,6.723-9.568,10.99-13.641c4.266-4.072,8.986-7.563,14.19-10.505
		c5.204-2.942,10.828-5.206,16.809-6.789c6.012-1.584,12.251-2.359,18.748-2.359c9.86,0,19.072,1.746,27.67,5.236
		C1060.843,74.28,1068.505,79.355,1075.196,85.95z M1135.365,198.115c-6.011-1.616-11.605-3.846-16.809-6.756
		c-5.235-2.909-9.954-6.432-14.222-10.537s-7.919-8.663-10.99-13.673c-3.039-5.01-5.431-10.409-7.078-16.163
		c-1.682-5.721-2.522-11.733-2.522-18.004c0-6.238,0.84-12.218,2.522-17.973c1.647-5.753,4.04-11.152,7.078-16.162
		c3.072-5.01,6.723-9.568,10.99-13.641c4.267-4.072,8.986-7.563,14.222-10.505c5.204-2.942,10.798-5.206,16.809-6.789
		c5.981-1.584,12.219-2.359,18.75-2.359c6.431,0,12.639,0.775,18.65,2.359c5.981,1.583,11.605,3.846,16.842,6.789
		c5.235,2.941,10.021,6.433,14.286,10.505c4.301,4.073,7.985,8.631,11.055,13.641c3.039,5.01,5.431,10.408,7.078,16.162
		c1.682,5.754,2.522,11.734,2.522,17.973c0,6.271-0.84,12.283-2.522,18.004c-1.647,5.753-4.04,11.152-7.078,16.163
		c-3.07,5.01-6.755,9.567-11.055,13.673c-4.266,4.105-9.051,7.628-14.286,10.537c-5.237,2.91-10.861,5.141-16.842,6.756
		c-6.011,1.616-12.219,2.425-18.65,2.425C1147.584,200.54,1141.346,199.73,1135.365,198.115z M1154.114,174.745
		c5.689,0,10.99-1.068,15.904-3.168c4.945-2.133,9.212-5.043,12.863-8.76c3.621-3.75,6.497-8.146,8.633-13.221
		c2.1-5.108,3.166-10.602,3.166-16.55c0-5.947-1.066-11.443-3.166-16.55c-2.135-5.075-5.011-9.471-8.633-13.22
		c-3.651-3.718-7.919-6.627-12.863-8.761c-4.913-2.101-10.215-3.167-15.904-3.167c-5.592,0-10.829,1.066-15.743,3.167
		c-4.947,2.134-9.245,5.043-12.898,8.761c-3.685,3.749-6.56,8.145-8.694,13.22c-2.102,5.107-3.168,10.603-3.168,16.55
		c0,5.949,1.066,11.443,3.168,16.55c2.134,5.075,5.01,9.471,8.694,13.221c3.653,3.717,7.952,6.627,12.898,8.76
		C1143.285,173.677,1148.522,174.745,1154.114,174.745z"/>
	<path style="fill:#FFFFFF;" d="M189.379,280.641v-56.707h13.238v22.681h23.912v-22.681h13.238v56.707h-13.238V257.96h-23.912
		v22.681H189.379z M290.014,267.574c-1.162,2.758-2.778,5.157-4.834,7.2l0.007,0.006c-0.042,0.042-0.084,0.083-0.126,0.124
		c-2.12,2.093-4.682,3.729-7.658,4.925c-2.974,1.195-6.249,1.794-9.835,1.794c-3.501,0-6.732-0.613-9.678-1.822
		c-2.948-1.21-5.466-2.847-7.588-4.925c-2.106-2.065-3.758-4.498-4.939-7.302c-1.18-2.79-1.778-5.779-1.778-8.953
		c0-3.159,0.583-6.149,1.75-8.938c1.181-2.804,2.818-5.238,4.954-7.331c2.121-2.092,4.654-3.728,7.602-4.939
		c2.946-1.209,6.205-1.821,9.763-1.821s6.818,0.612,9.777,1.821c2.962,1.21,5.51,2.847,7.63,4.939
		c2.121,2.093,3.786,4.527,4.967,7.331c0.473,1.117,0.851,2.265,1.132,3.444c0.424,1.766,0.634,3.6,0.634,5.494
		c0,1.402-0.114,2.767-0.343,4.096h-13.087h-21.3c0.086,0.273,0.18,0.539,0.284,0.801c0.585,1.466,1.395,2.733,2.421,3.786
		c1.024,1.054,2.221,1.879,3.586,2.448c1.367,0.57,2.818,0.854,4.385,0.854c1.579,0,3.06-0.284,4.413-0.854
		c1.365-0.569,2.547-1.38,3.543-2.433c0.154-0.159,0.303-0.323,0.448-0.491h14.173C290.22,267.078,290.119,267.326,290.014,267.574z
		 M275.682,249.981c-1.012-1.053-2.207-1.865-3.574-2.434c-1.351-0.569-2.832-0.854-4.413-0.854c-1.565,0-3.016,0.285-4.383,0.854
		c-1.367,0.569-2.548,1.381-3.558,2.434c-0.88,0.892-1.591,1.94-2.144,3.145h20.201
		C277.257,251.921,276.548,250.873,275.682,249.981z M308.809,257.074v23.182h-13.247v-22.318c0-12.292,10.056-22.347,22.347-22.347
		v12.383C312.903,247.974,308.809,252.069,308.809,257.074z M335.838,227.204c0,3.905-3.165,7.071-7.071,7.071
		c-3.905,0-7.07-3.166-7.07-7.071c0-3.905,3.165-7.071,7.07-7.071C332.673,220.133,335.838,223.299,335.838,227.204z
		 M335.273,280.256h-13.01v-43.242h13.01V280.256z M357.324,269.296h4.413v10.96h-6.373c-0.982,0-1.945-0.091-2.878-0.265
		c-7.308-1.363-12.883-7.809-12.883-15.495v-40.947h13.01v13.465h9.123v10.96h-9.123v16.611
		C352.613,267.176,354.733,269.296,357.324,269.296z M400.743,280.256v-2.254c-3.42,2.241-7.283,3.585-11.631,3.618
		c-3.697,0.028-6.938-0.536-9.975-1.819c-2.862-1.21-5.295-2.847-7.316-4.925c-4.204-4.294-6.277-10.161-6.277-16.256
		c0-9.558,5.456-17.574,14.306-21.208c5.948-2.442,13.588-2.433,19.543,0c8.825,3.607,14.362,11.615,14.362,21.208v21.635H400.743z
		 M400.743,260.889c1.145-7.365-3.347-14.196-11.087-14.196c-4.71,0-8.61,2.676-10.348,7.046c-1.167,2.931-1.16,6.864,0,9.778
		c3.228,8.109,13.299,9.136,18.347,3.801C399.294,265.632,400.37,263.295,400.743,260.889z M441.09,281.626
		c-3.698,0.028-6.938-0.536-9.975-1.819c-2.862-1.21-5.295-2.847-7.316-4.925c-4.206-4.294-6.277-10.161-6.277-16.255
		c0-9.559,5.456-17.575,14.306-21.208c5.946-2.443,13.588-2.434,19.541,0c0.38,0.154,0.751,0.317,1.117,0.487
		c8.174,3.808,13.247,11.538,13.247,20.721v16.312c0,1.827-0.207,3.609-0.597,5.324c-2.44,10.718-12.079,18.78-23.509,18.78
		c-10.686,0-19.807-7.048-22.942-16.725l14.253-0.001c1.985,2.647,5.146,4.365,8.689,4.365c5.104,0,9.415-3.568,10.56-8.333
		C448.899,280.385,445.214,281.595,441.09,281.626z M452.485,262.059c0.096-0.384,0.177-0.773,0.236-1.164
		c0.305-1.956,0.21-3.875-0.236-5.639c-1.236-4.873-5.167-8.557-10.852-8.557c-4.708,0-8.608,2.676-10.346,7.046
		c-1.168,2.932-1.16,6.864,0,9.779c3.228,8.109,13.299,9.136,18.345,3.8C451.006,265.912,451.985,264.043,452.485,262.059z
		 M515.93,267.574c-1.162,2.758-2.778,5.157-4.835,7.2l0.007,0.006c-0.042,0.042-0.084,0.083-0.126,0.124
		c-2.12,2.093-4.682,3.729-7.658,4.925c-2.974,1.195-6.249,1.794-9.835,1.794c-3.501,0-6.732-0.613-9.678-1.822
		c-2.948-1.21-5.466-2.847-7.588-4.925c-2.106-2.065-3.758-4.498-4.94-7.302c-1.18-2.79-1.778-5.779-1.778-8.953
		c0-3.159,0.583-6.149,1.75-8.938c1.181-2.804,2.818-5.238,4.954-7.331c2.121-2.092,4.654-3.728,7.602-4.939
		c2.946-1.209,6.205-1.821,9.763-1.821c3.558,0,6.818,0.612,9.777,1.821c2.962,1.21,5.51,2.847,7.63,4.939
		c2.121,2.093,3.786,4.527,4.967,7.331c0.474,1.117,0.851,2.265,1.133,3.444c0.424,1.766,0.634,3.6,0.634,5.494
		c0,1.402-0.114,2.767-0.343,4.096H504.28h-21.3c0.086,0.273,0.18,0.539,0.284,0.801c0.585,1.466,1.395,2.733,2.421,3.786
		c1.024,1.054,2.221,1.879,3.586,2.448c1.367,0.57,2.818,0.854,4.385,0.854c1.579,0,3.06-0.284,4.413-0.854
		c1.365-0.569,2.547-1.38,3.543-2.433c0.154-0.159,0.305-0.323,0.448-0.491h14.173C516.135,267.078,516.035,267.326,515.93,267.574z
		 M501.597,249.981c-1.01-1.053-2.205-1.865-3.572-2.434c-1.351-0.569-2.832-0.854-4.413-0.854c-1.565,0-3.018,0.285-4.383,0.854
		c-1.367,0.569-2.549,1.381-3.558,2.434c-0.88,0.892-1.591,1.94-2.144,3.145h20.201
		C503.174,251.921,502.465,250.873,501.597,249.981z"/>
	<g>
		<path style="fill:#FFFFFF;" d="M582.136,280.256v-2.254c-3.42,2.241-7.283,3.585-11.631,3.618
			c-3.697,0.028-6.938-0.536-9.975-1.819c-2.862-1.21-5.295-2.847-7.316-4.925c-4.204-4.294-6.277-10.161-6.277-16.256
			c0-9.558,5.456-17.574,14.306-21.208c5.948-2.442,13.588-2.433,19.543,0c8.825,3.607,14.362,11.615,14.362,21.208v21.635H582.136z
			 M582.136,260.889c1.145-7.365-3.347-14.196-11.087-14.196c-4.71,0-8.61,2.676-10.348,7.046c-1.167,2.931-1.16,6.864,0,9.778
			c3.228,8.109,13.299,9.136,18.347,3.801C580.686,265.632,581.763,263.295,582.136,260.889z"/>
		<path style="fill:#FFFFFF;" d="M621.261,235.591c12.291,0,22.347,10.055,22.347,22.347v22.318h-13.247v-23.182
			c0-5.005-4.094-9.1-9.1-9.1c-5.006,0-9.1,4.095-9.1,9.1v23.182h-13.247v-22.318C598.914,245.646,608.97,235.591,621.261,235.591z"
			/>
		<path style="fill:#FFFFFF;" d="M695.618,258.584c0,9.594-5.536,17.602-14.363,21.209c-5.953,2.432-13.595,2.442-19.541,0
			c-8.85-3.634-14.306-11.65-14.306-21.209c0-6.095,2.072-11.961,6.277-16.255c2.022-2.079,4.455-3.715,7.316-4.925
			c3.037-1.284,6.279-1.848,9.975-1.819c4.348,0.033,8.211,1.377,11.631,3.618v-2.254v-13.4h13.01v13.4v12.709V258.584z
			 M661.173,253.688c-1.16,2.914-1.167,6.846,0,9.778c1.738,4.37,5.638,7.045,10.346,7.045c7.742,0,12.233-6.832,11.088-14.196
			c-0.373-2.405-1.449-4.743-3.089-6.428C674.472,244.551,664.4,245.578,661.173,253.688z"/>
	</g>
	<path style="fill:#FFFFFF;" d="M738.082,280.641h-13.238v-56.707h11.53l27.015,33.904v-33.904h13.18v56.707h-11.43l-27.057-33.976
		V280.641z M815.507,280.256v-2.254c-3.42,2.241-7.283,3.585-11.631,3.618c-3.697,0.028-6.938-0.536-9.975-1.819
		c-2.862-1.21-5.295-2.847-7.317-4.925c-4.204-4.294-6.277-10.161-6.277-16.256c0-9.558,5.456-17.574,14.306-21.208
		c5.948-2.442,13.588-2.433,19.543,0c8.825,3.607,14.362,11.615,14.362,21.208v21.635H815.507z M815.507,260.889
		c1.145-7.365-3.347-14.196-11.087-14.196c-4.71,0-8.61,2.676-10.348,7.046c-1.167,2.931-1.16,6.864,0,9.778
		c3.228,8.109,13.299,9.136,18.347,3.801C814.057,265.632,815.134,263.295,815.507,260.889z M850.006,269.296h4.413v10.96h-6.373
		c-0.982,0-1.945-0.091-2.878-0.265c-7.308-1.363-12.883-7.809-12.883-15.495v-40.947h13.01v13.465h9.123v10.96h-9.123v16.611
		C845.296,267.176,847.416,269.296,850.006,269.296z M858.226,237.014h13.247v23.182c0,5.005,4.094,9.1,9.1,9.1
		c5.006,0,9.1-4.095,9.1-9.1v-23.182h13.247v22.318c0,12.292-10.056,22.347-22.347,22.347c-12.291,0-22.347-10.055-22.347-22.347
		V237.014z M919.968,257.074v23.182h-13.247v-22.318c0-12.292,10.056-22.347,22.347-22.347v12.383
		C924.062,247.974,919.968,252.069,919.968,257.074z M979.286,267.574c-1.162,2.758-2.778,5.157-4.834,7.2l0.007,0.006
		c-0.042,0.042-0.084,0.083-0.126,0.124c-2.12,2.093-4.682,3.729-7.658,4.925c-2.974,1.195-6.249,1.794-9.835,1.794
		c-3.501,0-6.732-0.613-9.678-1.822c-2.948-1.21-5.466-2.847-7.588-4.925c-2.106-2.065-3.758-4.498-4.94-7.302
		c-1.18-2.79-1.778-5.779-1.778-8.953c0-3.159,0.583-6.149,1.75-8.938c1.182-2.804,2.818-5.238,4.954-7.331
		c2.121-2.092,4.654-3.728,7.602-4.939c2.946-1.209,6.205-1.821,9.763-1.821s6.818,0.612,9.777,1.821
		c2.962,1.21,5.51,2.847,7.63,4.939c2.121,2.093,3.786,4.527,4.967,7.331c0.473,1.117,0.851,2.265,1.133,3.444
		c0.424,1.766,0.634,3.6,0.634,5.494c0,1.402-0.114,2.767-0.343,4.096h-13.087h-21.3c0.086,0.273,0.18,0.539,0.284,0.801
		c0.585,1.466,1.395,2.733,2.421,3.786c1.024,1.054,2.221,1.879,3.586,2.448c1.367,0.57,2.818,0.854,4.385,0.854
		c1.579,0,3.06-0.284,4.413-0.854c1.365-0.569,2.547-1.38,3.543-2.433c0.154-0.159,0.303-0.323,0.448-0.491h14.173
		C979.492,267.078,979.391,267.326,979.286,267.574z M964.954,249.981c-1.012-1.053-2.207-1.865-3.574-2.434
		c-1.351-0.569-2.832-0.854-4.413-0.854c-1.565,0-3.016,0.285-4.383,0.854s-2.549,1.381-3.558,2.434
		c-0.88,0.892-1.591,1.94-2.144,3.145h20.201C966.529,251.921,965.82,250.873,964.954,249.981z M1010.29,235.293v-11.359h44.835
		v11.359h-15.842v45.348h-13.15v-45.348H1010.29z M1072.128,257.074v23.182h-13.247v-22.318c0-12.292,10.056-22.347,22.347-22.347
		v12.383C1076.222,247.974,1072.128,252.069,1072.128,257.074z M1120.214,280.256v-2.254c-3.42,2.241-7.283,3.585-11.631,3.618
		c-3.697,0.028-6.938-0.536-9.975-1.819c-2.862-1.21-5.295-2.847-7.317-4.925c-4.204-4.294-6.277-10.161-6.277-16.256
		c0-9.558,5.456-17.574,14.306-21.208c5.948-2.442,13.588-2.433,19.543,0c8.825,3.607,14.362,11.615,14.362,21.208v21.635H1120.214z
		 M1120.214,260.889c1.145-7.365-3.347-14.196-11.087-14.196c-4.71,0-8.61,2.676-10.348,7.046c-1.167,2.931-1.16,6.864,0,9.778
		c3.228,8.109,13.299,9.136,18.347,3.801C1118.764,265.632,1119.841,263.295,1120.214,260.889z M1151.135,227.204
		c0,3.905-3.165,7.071-7.071,7.071c-3.905,0-7.07-3.166-7.07-7.071c0-3.905,3.165-7.071,7.07-7.071
		C1147.971,220.133,1151.135,223.299,1151.135,227.204z M1150.57,280.256h-13.01v-43.242h13.01V280.256z M1167.909,223.549v41.036
		c0,2.591,2.121,4.711,4.712,4.711h4.413v10.96h-6.373c-0.984,0-1.945-0.091-2.879-0.265c-7.306-1.363-12.881-7.809-12.881-15.495
		v-40.947H1167.909z M1193.508,266.734c0.116,1.31,0.798,2.363,2.022,3.174c1.239,0.797,2.804,1.21,4.698,1.21
		c2.447,0,4.213-0.327,5.295-0.968c1.082-0.627,1.623-1.537,1.623-2.704c0-0.698-0.242-1.253-0.74-1.694
		c-0.513-0.426-1.237-0.811-2.221-1.139c-0.966-0.341-2.163-0.64-3.586-0.925c-1.409-0.27-3.046-0.626-4.91-1.039
		c-0.84-0.171-1.752-0.37-2.762-0.598c-0.996-0.242-1.992-0.556-2.976-0.968c-0.982-0.398-1.934-0.897-2.86-1.495
		c-0.91-0.598-1.722-1.338-2.435-2.234c-0.711-0.883-1.28-1.951-1.693-3.188c-0.413-1.238-0.627-2.69-0.627-4.356
		c0-2.206,0.397-4.185,1.196-5.95c0.782-1.778,1.994-3.273,3.6-4.483c1.609-1.21,3.644-2.149,6.093-2.804
		c2.449-0.656,5.323-0.982,8.626-0.982c2.704,0,5.123,0.341,7.287,1.039c2.149,0.698,3.972,1.693,5.48,2.975
		c1.495,1.281,2.647,2.818,3.431,4.582c0.796,1.78,1.195,3.715,1.195,5.823l-12.925-0.043c-0.086-1.054-0.583-1.965-1.509-2.719
		c-0.91-0.768-2.205-1.153-3.872-1.153c-1.978,0-3.429,0.355-4.383,1.082c-0.94,0.726-1.395,1.566-1.367,2.506
		c0,0.555,0.156,1.024,0.469,1.395c0.327,0.369,0.826,0.697,1.509,0.953c0.684,0.27,1.552,0.499,2.606,0.698
		c1.052,0.2,2.319,0.384,3.786,0.584c2.291,0.384,4.455,0.854,6.504,1.395c2.064,0.541,3.872,1.295,5.452,2.248
		c1.565,0.968,2.802,2.206,3.728,3.758c0.91,1.537,1.381,3.487,1.381,5.851c0,2.59-0.513,4.839-1.552,6.746
		c-1.024,1.894-2.461,3.474-4.311,4.726c-1.852,1.252-4.057,2.177-6.606,2.776c-2.562,0.598-5.367,0.896-8.426,0.896
		c-3.331,0-6.191-0.441-8.568-1.338c-2.377-0.882-4.327-2.05-5.865-3.473c-1.523-1.438-2.646-3.046-3.373-4.84
		c-0.725-1.793-1.082-3.586-1.082-5.366L1193.508,266.734z"/>
</g>
<g>
</g>
<g>
</g>
<g>
</g>
<g>
</g>
<g>
</g>
<g>
</g>
<g>
</g>
<g>
</g>
</svg>
