<?xml version="1.0" encoding="iso-8859-1"?>
<!-- Generator: Adobe Illustrator 29.6.1, SVG Export Plug-In . SVG Version: 9.03 Build 0)  -->
<svg version="1.1" id="Layer_1" xmlns="http://www.w3.org/2000/svg" xmlns:xlink="http://www.w3.org/1999/xlink" x="0px" y="0px"
	 viewBox="0 0 723.064 723.096" style="enable-background:new 0 0 723.064 723.096;" xml:space="preserve">
<path style="opacity:0.26;fill:#FFFFFF;" d="M342.154,317.46c0.088-0.015,0.205-0.037,0.343-0.058
	C342.373,317.424,342.264,317.446,342.154,317.46z"/>
<g>
	<path style="fill:#939598;" d="M354.515,357.851c0.372,0.762,0.814,1.491,1.324,2.169c0.516,0.683,1.098,1.317,1.735,1.888
		c0.639,0.569,1.333,1.076,2.07,1.513c0.739,0.433,1.519,0.796,2.327,1.08c0.816,0.285,1.66,0.486,2.515,0.61
		c0.952,0.127,1.92,0.161,2.877,0.078c1.026-0.081,2.039-0.291,3.017-0.609c0.813-0.269,1.599-0.618,2.346-1.037
		c0.753-0.425,1.46-0.928,2.117-1.49c0.64-0.557,1.228-1.172,1.752-1.84c0.526-0.674,0.985-1.398,1.372-2.16
		c0.382-0.76,0.692-1.555,0.922-2.373c0.237-0.845,0.383-1.715,0.451-2.591c0.073-1.077,0.021-2.163-0.171-3.225
		c-0.151-0.873-0.398-1.729-0.725-2.553c-0.317-0.798-0.714-1.564-1.181-2.284c-0.474-0.73-1.023-1.41-1.631-2.034
		c-0.6-0.611-1.261-1.162-1.967-1.647c-0.714-0.487-1.478-0.9-2.273-1.241c-0.789-0.331-1.608-0.586-2.445-0.763
		c-1.071-0.218-2.17-0.31-3.263-0.256l-0.001,0c-0.082,0.003-0.161,0.004-0.242,0.007l-0.001,0.001
		c-0.796,0.063-1.589,0.178-2.363,0.378c-0.84,0.212-1.658,0.51-2.44,0.884c-0.772,0.37-1.508,0.816-2.193,1.33
		c-0.692,0.518-1.33,1.106-1.907,1.749c-0.569,0.64-1.077,1.333-1.513,2.07c-0.433,0.739-0.796,1.519-1.08,2.327
		c-0.285,0.816-0.486,1.66-0.61,2.515c-0.116,0.856-0.15,1.721-0.101,2.584c0.055,0.846,0.185,1.685,0.396,2.507
		C353.846,356.268,354.143,357.077,354.515,357.851z"/>
	<path style="fill:#939598;" d="M502.586,302.488c-13.779,10.027-29.969,16.753-46.828,19.28
		c-10.542,1.663-21.317,1.626-31.854,0.016c-3.495-0.532-6.969-1.242-10.395-2.116c-10.069-2.574-19.769-6.6-28.669-11.958
		c-16.438-9.79-29.948-24.232-38.965-41.075c-0.116,0.011-0.232,0.026-0.347,0.032c-0.084,0.011-0.168,0.021-0.253,0.026
		c-1.726,0.142-3.384,0.079-4.953-0.126c-0.037-0.005-0.068-0.01-0.105-0.016c-1.437-0.211-2.89-0.553-4.326-1.058l-0.021-0.005
		c-0.037-0.011-0.074-0.026-0.111-0.037h-0.01c-0.468,14.558,2.358,28.848,8.048,41.891c3.195,7.321,7.29,14.253,14.085,23.643
		c0.905-0.358,1.847-0.663,2.811-0.905c1.442-0.368,2.779-0.558,3.979-0.653c0.142-0.011,0.279-0.016,0.416-0.021
		c0.095-0.005,0.074-0.005,0.116-0.005h0.016c1.958-0.095,3.858,0.068,5.679,0.442c0.021,0.005,0.042,0.005,0.063,0.011
		c1.442,0.305,2.848,0.742,4.205,1.311c0.021,0.011,0.047,0.021,0.068,0.032c1.337,0.568,2.647,1.279,3.911,2.142
		c0.016,0.005,0.021,0.011,0.032,0.016c1.2,0.826,2.337,1.774,3.39,2.842c0.016,0.011,0.021,0.021,0.032,0.032
		c1.032,1.058,1.979,2.232,2.821,3.526c0.805,1.247,1.495,2.579,2.053,3.974v0.011c0.553,1.384,0.984,2.869,1.258,4.437
		c0.337,1.884,0.426,3.758,0.3,5.574c0,0.032-0.016,0.063-0.016,0.095c-0.111,1.453-0.358,2.947-0.779,4.458v0.005
		c-0.4,1.421-0.932,2.795-1.595,4.105v0.005c0,0.005-0.016,0.016-0.016,0.026c-0.668,1.316-1.458,2.569-2.368,3.737h-0.005
		c0,0,0.005,0,0.005,0.005s-0.016,0.011-0.016,0.016c-0.068,0.089-0.142,0.174-0.211,0.263c9.758,16.332,16.932,37.954,8.332,66.545
		c0,0,0.537-0.558,1.505-1.568c6.532-6.827,32.78-34.291,46.433-49.318c14.958-16.464,43.981-50.197,43.981-50.197
		C499.339,315.489,506.444,299.677,502.586,302.488z"/>
	<path style="fill:#939598;" d="M355.549,239.15c-0.317-0.798-0.715-1.564-1.182-2.284c-0.474-0.73-1.023-1.41-1.631-2.034
		c-0.6-0.611-1.261-1.162-1.967-1.647c-0.714-0.487-1.478-0.9-2.273-1.241c-0.789-0.331-1.607-0.586-2.445-0.763
		c-1.071-0.218-2.171-0.31-3.264-0.256l-0.001,0c-0.082,0.003-0.161,0.004-0.242,0.007l-0.001,0.001
		c-0.796,0.063-1.589,0.178-2.363,0.378c-0.84,0.212-1.658,0.51-2.44,0.884c-0.772,0.37-1.507,0.817-2.193,1.33
		c-0.692,0.518-1.33,1.106-1.908,1.749c-0.569,0.64-1.077,1.333-1.513,2.07c-0.433,0.739-0.796,1.519-1.08,2.327
		c-0.285,0.816-0.487,1.66-0.61,2.515c-0.116,0.856-0.15,1.721-0.101,2.584c0.055,0.846,0.185,1.685,0.396,2.507
		c0.218,0.83,0.517,1.64,0.888,2.414c0.372,0.762,0.813,1.49,1.323,2.168c0.516,0.683,1.098,1.317,1.736,1.888
		c0.639,0.569,1.333,1.077,2.07,1.513c0.739,0.433,1.519,0.795,2.327,1.079c0.816,0.285,1.66,0.486,2.515,0.61
		c0.952,0.127,1.919,0.161,2.877,0.078c1.026-0.081,2.039-0.291,3.017-0.609c0.813-0.269,1.599-0.618,2.346-1.037
		c0.753-0.425,1.46-0.928,2.117-1.49c0.64-0.557,1.228-1.172,1.752-1.84c0.525-0.674,0.985-1.398,1.372-2.16
		c0.382-0.759,0.692-1.555,0.922-2.373c0.237-0.845,0.384-1.715,0.452-2.591c0.073-1.077,0.021-2.163-0.172-3.225
		C356.123,240.829,355.876,239.973,355.549,239.15z"/>
	<path style="fill:#939598;" d="M419.998,210.596c0.372,0.762,0.814,1.49,1.324,2.168c0.516,0.683,1.098,1.317,1.735,1.888
		c0.639,0.569,1.334,1.077,2.071,1.513c0.739,0.433,1.518,0.796,2.326,1.08c0.816,0.285,1.66,0.486,2.515,0.61
		c0.952,0.127,1.92,0.161,2.877,0.078c1.026-0.081,2.039-0.291,3.017-0.609c0.813-0.269,1.599-0.618,2.346-1.037
		c0.753-0.425,1.46-0.928,2.117-1.49c0.64-0.557,1.228-1.172,1.752-1.84c0.525-0.674,0.986-1.398,1.372-2.16
		c0.382-0.76,0.69-1.555,0.921-2.374c0.237-0.845,0.384-1.715,0.452-2.59c0.073-1.077,0.021-2.163-0.171-3.225
		c-0.151-0.873-0.399-1.729-0.726-2.553c-0.317-0.798-0.714-1.564-1.181-2.284c-0.474-0.73-1.023-1.41-1.631-2.034
		c-0.6-0.611-1.261-1.162-1.967-1.647c-0.715-0.487-1.478-0.9-2.273-1.241c-0.789-0.331-1.609-0.587-2.446-0.763
		c-1.071-0.218-2.169-0.31-3.262-0.255l-0.001,0c-0.082,0.003-0.161,0.004-0.242,0.007h-0.001c-0.796,0.063-1.589,0.178-2.363,0.378
		c-0.84,0.212-1.658,0.511-2.44,0.884c-0.772,0.37-1.508,0.816-2.193,1.329c-0.692,0.518-1.33,1.107-1.907,1.75
		c-0.569,0.64-1.077,1.333-1.514,2.07c-0.433,0.739-0.796,1.518-1.08,2.326c-0.285,0.816-0.487,1.66-0.61,2.516
		c-0.116,0.855-0.15,1.721-0.102,2.583c0.055,0.846,0.185,1.686,0.396,2.507C419.328,209.014,419.626,209.822,419.998,210.596z"/>
	<path style="fill:#939598;" d="M525.113,170.373c-0.416-1.59-0.853-3.174-1.311-4.753c0,0.189,0,0.384-0.005,0.574
		c-0.005,0.59-0.026,1.169-0.042,1.753c-0.095,2.958-0.311,5.916-0.653,8.858c-0.984,8.984-3.184,17.806-6.453,26.211
		c-1.311,3.369-2.795,6.669-4.437,9.89c-6.242,12.211-14.816,23.238-25.211,32.191c-11.327,9.911-24.843,17.206-39.254,21.495
		c-3.29,0.979-6.627,1.8-9.995,2.458c-6.011,1.179-12.122,1.842-18.243,1.969c-19.564,0.5-39.144-4.769-56.013-14.643
		c-0.242-0.132-0.479-0.274-0.716-0.416c-0.442,0.711-0.916,1.395-1.432,2.058v0.005c0,0.005-0.016,0.01-0.016,0.016
		c-0.911,1.163-1.926,2.221-3.016,3.169c-0.021,0.021-0.042,0.037-0.063,0.058c-1.005,0.858-2.105,1.658-3.311,2.363
		c13.553,24.422,37.128,42.012,64.839,47.844c3.395,0.716,6.827,1.247,10.279,1.595c15.616,1.568,31.385-0.674,45.944-6.537
		c16.632-6.695,31.08-17.864,41.744-32.27c3.942-9.458,6.99-19.264,9.095-29.296c1.39-6.616,2.368-13.316,2.932-20.053
		c0.374-4.505,0.558-9.021,0.558-13.543C530.334,197.537,528.582,183.763,525.113,170.373z"/>
	<path style="fill:#939598;" d="M373.434,373.786c-0.016,0.005-0.032,0.01-0.047,0.016c-1.642,0.537-3.39,0.9-5.216,1.047
		c-1.732,0.147-3.39,0.084-4.958-0.121c-0.032-0.005-0.068-0.01-0.1-0.016c-1.437-0.211-2.89-0.553-4.332-1.058l-0.021-0.005
		c-1.405-0.495-2.742-1.116-4.005-1.858c-0.016-0.01-0.032-0.016-0.047-0.026c-1.274-0.753-2.469-1.626-3.574-2.616
		c-0.016-0.005-0.016-0.011-0.021-0.021c-1.111-0.99-2.116-2.084-3.005-3.263v-0.005h-0.005c0,0-0.016-0.005-0.016-0.011
		c-0.895-1.19-1.653-2.447-2.29-3.747c-0.016-0.016-0.016-0.032-0.026-0.047c-0.642-1.332-1.147-2.721-1.526-4.153
		c0-0.016-0.01-0.037-0.01-0.053c-0.368-1.426-0.589-2.863-0.679-4.284v-0.089c-0.084-1.474-0.026-2.958,0.174-4.437
		c0-0.021,0.016-0.047,0.016-0.074c0.205-1.437,0.547-2.89,1.053-4.332v-0.016c0.495-1.411,1.121-2.747,1.858-4.011
		c0.016-0.016,0.021-0.026,0.026-0.042c0.716-1.2,1.532-2.332,2.442-3.379c-13.416-19.332-25.248-39.665-25.248-63.571
		c0-5,0.516-10.158,1.647-15.501c-0.105-0.137-0.211-0.274-0.316-0.411v-0.005c0-0.005-0.016-0.005-0.016-0.011
		c-0.895-1.19-1.658-2.447-2.295-3.747c-0.01-0.016-0.016-0.032-0.026-0.053c-0.637-1.326-1.147-2.716-1.521-4.148
		c0-0.016-0.016-0.037-0.016-0.053c-0.368-1.432-0.584-2.863-0.679-4.284v-0.089c-0.084-1.474-0.026-2.958,0.174-4.437
		c0-0.021,0.016-0.047,0.016-0.074c0.205-1.437,0.553-2.89,1.053-4.332v-0.016c0.495-1.411,1.121-2.747,1.858-4.011
		c0.016-0.016,0.021-0.032,0.032-0.042c0.753-1.279,1.626-2.474,2.611-3.574c0.011-0.011,0.016-0.021,0.026-0.032
		c0.99-1.105,2.1-2.121,3.311-3.032c1.19-0.895,2.469-1.669,3.811-2.316l0.016-0.005c1.337-0.642,2.758-1.158,4.237-1.532
		c1.437-0.368,2.779-0.553,3.979-0.647c0.137-0.01,0.279-0.021,0.416-0.026c0.095,0,0.074,0,0.116,0h0.016
		c1.953-0.1,3.858,0.068,5.679,0.442c0.021,0,0.042,0.005,0.063,0.011c1.437,0.3,2.847,0.742,4.205,1.311
		c0.021,0.011,0.042,0.021,0.068,0.026c1.332,0.574,2.648,1.284,3.911,2.142c0.016,0.011,0.021,0.016,0.032,0.021
		c1.037,0.716,2.026,1.516,2.958,2.411c16.58,0.858,35.143-2.395,52.434-11.995c-0.137-0.253-0.263-0.505-0.39-0.758
		c-0.016-0.021-0.016-0.037-0.026-0.053c-0.642-1.332-1.153-2.721-1.526-4.148c0-0.021-0.016-0.037-0.016-0.053
		c-0.363-1.432-0.584-2.868-0.679-4.29v-0.084c-0.079-1.474-0.026-2.963,0.179-4.437c0-0.026,0.011-0.053,0.011-0.074
		c0.211-1.442,0.553-2.895,1.058-4.337v-0.016c0.495-1.405,1.121-2.747,1.858-4.005c0.016-0.016,0.016-0.032,0.026-0.047
		c0.758-1.274,1.632-2.469,2.611-3.569c0.016-0.01,0.016-0.021,0.026-0.032c0.995-1.105,2.1-2.126,3.311-3.032v-0.005
		c0.632-0.474,1.284-0.911,1.958-1.316c-18.917-26.822-45.618-44.502-76.908-48.865c-5.005-0.7-10.132-1.058-15.358-1.058v0.005
		c-0.995,0-1.99,0.011-2.984,0.037c-3.348,0.089-6.69,0.332-10.016,0.716c-15.937,1.863-31.285,7.127-45.012,15.432
		c-2.863,1.732-5.648,3.595-8.348,5.579c-28.722,21.111-45.686,54.634-45.686,90.282c10.211,79.566,86.651,142.174,140.226,201.539
		c3.769,4.174,7.427,8.337,10.937,12.485c28.691-34.801,22.475-61.955,7.132-87.93C373.849,373.649,373.644,373.717,373.434,373.786
		z"/>
	<path style="fill:#939598;" d="M415.6,163.502c0.537,0.562,1.068,1.129,1.594,1.702C416.669,164.632,416.138,164.064,415.6,163.502
		C415.601,163.502,415.601,163.502,415.6,163.502z"/>
	<path style="fill:#939598;" d="M415.698,163.604c0.504,0.528,1.002,1.061,1.496,1.598h0.001
		C416.701,164.665,416.202,164.132,415.698,163.604z"/>
	<path style="fill:#939598;" d="M259.361,147.151c2.847-1.932,5.784-3.742,8.785-5.427c15.285-8.584,32.412-13.916,49.881-15.343
		c1.59-0.126,3.179-0.226,4.774-0.289l-21.985-12.737l0.016-8.148l29.359,20.622c0.758-1.068,1.558-2.111,2.405-3.111
		l-31.749-26.722l0.016-10.669l10.669,0.016l26.627,31.828c1.005-0.842,2.047-1.642,3.121-2.395l-20.532-29.422l8.142,0.016
		l15.706,27.291c3.374-1.947,7.021-3.474,10.874-4.505l-8.1-30.412l5.774-5.753l6.169,35.312c1.284-0.226,2.584-0.395,3.905-0.51
		l-3.553-41.302l7.558-7.532l7.532,7.553l-3.674,41.27c1.321,0.111,2.621,0.279,3.905,0.5l6.274-35.243l5.753,5.769l-8.174,30.317
		c3.863,1.026,7.527,2.547,10.911,4.495l15.716-27.133l8.153,0.01l-20.543,29.238c1.079,0.753,2.126,1.553,3.137,2.395
		l26.612-31.617l10.674,0.016l-0.021,10.669l-31.675,26.496c0.853,1.005,1.658,2.047,2.416,3.126l29.249-20.411l-0.016,8.148
		l-27.101,15.59c1.969,3.39,3.516,7.053,4.558,10.921l30.164-8.032l5.753,5.769l-35.054,6.127c0.226,1.29,0.4,2.6,0.516,3.927
		l41.044-3.532l7.532,7.558l-7.558,7.532l-41.007-3.648c-0.116,1.326-0.284,2.637-0.511,3.927c-0.637-0.605-1.274-1.205-1.921-1.795
		c0.647,0.59,1.284,1.19,1.921,1.8l34.991,6.221l-5.769,5.753l-23.759-6.406c1.995,2.179,3.911,4.427,5.742,6.742
		c2.574,3.258,4.984,6.653,7.216,10.158c0,0,0,0,0,0.005c0.153-0.011,0.311-0.021,0.463-0.026h0.016
		c0.258-0.016,0.516-0.021,0.774-0.026c0.311-0.005,0.611,0.032,0.916,0.037c0.684,0.016,1.363,0.058,2.037,0.137
		c0.305,0.032,0.605,0.084,0.905,0.132c0.647,0.1,1.295,0.232,1.932,0.384c0.247,0.063,0.495,0.126,0.737,0.195
		c0.805,0.221,1.6,0.495,2.374,0.805c0.053,0.021,0.1,0.032,0.147,0.053c0.853,0.358,1.679,0.763,2.479,1.221
		c0.179,0.1,0.353,0.221,0.532,0.326c0.621,0.374,1.226,0.779,1.811,1.211c0.179,0.132,0.358,0.268,0.532,0.405
		c0.679,0.526,1.321,1.095,1.932,1.695c0.032,0.026,0.063,0.053,0.095,0.084c0.663,0.668,1.284,1.379,1.863,2.121
		c0.095,0.121,0.179,0.253,0.268,0.374c0.468,0.626,0.9,1.274,1.3,1.942c0.1,0.174,0.2,0.347,0.3,0.521
		c0.405,0.721,0.774,1.468,1.1,2.226c0.032,0.084,0.074,0.163,0.11,0.242c0.353,0.863,0.653,1.747,0.9,2.647
		c0.042,0.174,0.074,0.353,0.116,0.526c0.174,0.684,0.311,1.374,0.416,2.068c0.058,0.395,0.095,0.784,0.132,1.174
		c0.068,0.605,0.105,1.216,0.121,1.821c0,0.321,0,0.632-0.016,0.947c-0.01,0.695-0.058,1.39-0.132,2.079
		c-0.026,0.216-0.053,0.432-0.084,0.647c-0.116,0.837-0.279,1.669-0.489,2.484c-0.016,0.063-0.026,0.126-0.042,0.189
		c-0.253,0.926-0.563,1.832-0.926,2.721c-0.026,0.068-0.058,0.132-0.084,0.195c-0.342,0.811-0.732,1.595-1.163,2.358
		c-0.058,0.105-0.121,0.216-0.184,0.321c-0.968,1.663-2.153,3.195-3.511,4.558l-0.042,0.042c-0.668,0.663-1.374,1.279-2.116,1.853
		c-0.058,0.047-0.116,0.095-0.179,0.142c-2.295,1.742-4.9,3.032-7.674,3.805c-0.153,0.037-0.3,0.079-0.453,0.116
		c-0.779,0.2-1.563,0.353-2.358,0.468c-0.184,0.026-0.368,0.058-0.558,0.079c-0.863,0.105-1.737,0.163-2.605,0.174
		c-0.058,0-0.121,0.005-0.179,0.005c-2.979-0.005-5.927-0.6-8.679-1.742c0,0-0.016,0-0.016-0.005
		c-1.842-0.763-3.574-1.768-5.153-2.984c-0.016,0.005-0.016,0.005-0.026,0.011c-0.4,0.232-0.837,0.389-1.237,0.616
		c-3.442,1.926-6.958,3.721-10.595,5.253c-1.442,0.605-2.958,1.011-4.427,1.553c-2.669,0.984-5.316,2.032-8.058,2.805
		c-1.684,0.474-3.421,0.732-5.126,1.121c-2.595,0.595-5.169,1.274-7.795,1.679c-1.858,0.284-3.742,0.337-5.616,0.526
		c-2.526,0.253-5.042,0.6-7.579,0.674l-0.474,0.011l-1.447,0.042c0,0,0,0-0.016,0c-0.111,0-0.232,0-0.342,0.005
		c0.279,0.895,0.505,1.832,0.674,2.795c0.342,1.89,0.426,3.758,0.305,5.574c0,0.037-0.016,0.068-0.016,0.1
		c-0.032,0.4-0.074,0.805-0.126,1.211c0.153,0.095,0.305,0.184,0.458,0.279c2.711,1.674,5.484,3.2,8.321,4.59
		c2.837,1.384,5.737,2.632,8.679,3.727c5.89,2.2,11.969,3.816,18.153,4.837c6.184,1.016,12.474,1.437,18.78,1.242
		c6.3-0.195,12.622-1.011,18.869-2.453c3.279-0.758,6.516-1.69,9.695-2.784c18.917-6.511,35.359-18.711,47.076-34.928
		c3.79-5.248,7.048-10.864,9.721-16.759c1.447-3.195,2.721-6.463,3.811-9.79c1.09-3.305,1.99-6.658,2.711-10.048
		c0.721-3.39,1.263-6.811,1.621-10.253c0.711-6.879,0.684-13.837-0.089-20.753c-0.637-5.705-1.784-11.348-3.421-16.853
		c-1.037-3.49-2.269-6.916-3.69-10.269c-0.832-1.958-1.747-3.89-2.742-5.8c-0.463-0.895-0.942-1.779-1.442-2.663
		c-1.563-2.763-3.29-5.474-5.174-8.121c-1.879-2.647-3.911-5.237-6.079-7.758c-3.953-4.595-8.358-8.969-13.143-13.09
		c-0.016-0.016-0.032-0.032-0.047-0.042c-19.822-17.085-46.065-29.912-72.834-36.433c-12.864-3.142-25.848-4.821-38.301-4.821
		v-0.005c-25.933,0.005-51.486,6.174-74.561,18.011c-7.127,3.653-13.974,7.827-20.485,12.485
		c-42.902,30.68-68.355,80.182-68.355,132.926c0,10.332,0.979,20.638,2.926,30.785c1.147-25.806,10.753-51.207,27.101-71.234
		C240.881,161.73,249.64,153.74,259.361,147.151z M445.121,114.707l1.353-7.437l3.279,6.816l7.49-1.01l-5.469,5.221l3.279,6.811
		l-6.658-3.584l-5.469,5.221l1.358-7.437l-6.658-3.59L445.121,114.707z M393.077,64.158l7.106,2.584l4.658-5.958l-0.268,7.558
		l7.106,2.584l-7.269,2.084l-0.258,7.558l-4.232-6.269l-7.269,2.084l4.658-5.958L393.077,64.158z M327.058,61.574l5.321,5.369
		l6.753-3.395l-3.469,6.716l5.321,5.374l-7.463-1.221l-3.469,6.721l-1.142-7.474l-7.463-1.221l6.758-3.4L327.058,61.574z"/>
</g>
<g>
	<g>
		<path style="fill:#939598;" d="M137.743,571.966h-15.094v-64.662h23.131h6.688c3.392,0,6.509,0.568,9.365,1.688
			c2.856,1.12,5.323,2.678,7.4,4.674c2.078,1.996,3.685,4.366,4.854,7.109c1.152,2.743,1.72,5.729,1.72,8.992
			c0,3.294-0.568,6.313-1.704,9.057c-1.136,2.743-2.727,5.096-4.771,7.06c-2.045,1.963-4.496,3.49-7.337,4.577
			c-2.824,1.087-5.923,1.639-9.283,1.639h-6.932h-8.037V571.966z M155.325,538.418c1.071-0.486,2.012-1.152,2.824-1.996
			c0.812-0.828,1.445-1.818,1.899-2.954c0.471-1.136,0.698-2.37,0.698-3.7c0-1.283-0.227-2.516-0.698-3.668
			c-0.454-1.152-1.087-2.159-1.899-3.019c-0.812-0.877-1.753-1.559-2.824-2.062c-1.087-0.503-2.24-0.763-3.473-0.763h-6.072h-8.037
			v18.892h8.037h6.072C153.085,539.148,154.238,538.905,155.325,538.418z"/>
		<path style="fill:#939598;" d="M180.152,571.966v-64.662h15.094v25.863h27.267v-25.863h15.094v64.662h-15.094v-25.863h-27.267
			v25.863H180.152z"/>
		<path style="fill:#939598;" d="M286.016,507.304v39.765c0,1.932,0.292,3.733,0.876,5.388c0.584,1.672,1.445,3.1,2.581,4.318
			c1.12,1.201,2.516,2.159,4.171,2.856c1.672,0.698,3.603,1.039,5.778,1.039c2.126,0,4.008-0.341,5.664-1.022
			c1.655-0.682,3.035-1.639,4.188-2.856c1.136-1.217,1.996-2.646,2.581-4.301c0.601-1.655,0.893-3.441,0.893-5.372v-39.813h15.062
			v39.716c0,3.847-0.665,7.385-2.012,10.615c-1.347,3.229-3.262,6.038-5.729,8.391c-2.483,2.37-5.453,4.204-8.943,5.518
			c-3.489,1.315-7.385,1.98-11.702,1.98c-3.993,0-7.726-0.616-11.2-1.834c-3.457-1.217-6.476-2.987-9.023-5.275
			c-2.548-2.305-4.561-5.08-6.022-8.359c-1.46-3.262-2.191-6.946-2.191-11.037v-39.716H286.016z"/>
		<path style="fill:#939598;" d="M347.227,571.966h-15.094v-64.662h13.146l30.805,38.661v-38.661h15.03v64.662h-13.033
			l-30.854-38.742V571.966z"/>
		<path style="fill:#939598;" d="M410.47,533.167h26.147v12.936H410.47v12.912h30.903v12.952h-45.997v-64.662h45.575v12.952h-30.48
			V533.167z"/>
		<path style="fill:#939598;" d="M454.469,511.313c2.175-1.802,4.935-3.182,8.278-4.139s7.336-1.428,11.962-1.428
			c3.798,0,7.174,0.487,10.111,1.461c2.921,0.958,5.404,2.337,7.417,4.106c2.013,1.769,3.538,3.928,4.577,6.443
			c1.056,2.516,1.574,5.34,1.574,8.439h-15.126c0-0.958-0.162-1.883-0.519-2.775c-0.341-0.909-0.925-1.704-1.705-2.386
			c-0.795-0.682-1.817-1.233-3.067-1.639c-1.25-0.406-2.808-0.617-4.642-0.617c-2.028,0-3.701,0.179-5.015,0.519
			c-1.314,0.357-2.354,0.828-3.116,1.429c-0.763,0.601-1.298,1.282-1.59,2.045c-0.309,0.763-0.455,1.542-0.455,2.337
			c0,1.104,0.357,2.061,1.071,2.873c0.714,0.812,1.688,1.51,2.921,2.093c1.233,0.585,2.694,1.088,4.382,1.494
			c1.671,0.406,3.505,0.795,5.47,1.136c2.239,0.552,4.398,1.12,6.443,1.72c2.045,0.601,3.928,1.298,5.681,2.094
			c1.736,0.795,3.311,1.688,4.723,2.711c1.412,1.006,2.613,2.207,3.619,3.587c0.99,1.379,1.77,2.954,2.305,4.723
			c0.536,1.785,0.812,3.814,0.812,6.086c0,3.278-0.698,6.151-2.077,8.635c-1.38,2.483-3.295,4.561-5.746,6.265
			c-2.467,1.688-5.372,2.954-8.748,3.814c-3.376,0.86-7.044,1.282-11.004,1.282c-4.95,0-9.154-0.633-12.611-1.915
			c-3.457-1.283-6.265-2.955-8.44-5.016c-2.175-2.045-3.749-4.366-4.755-6.947c-0.99-2.58-1.493-5.193-1.493-7.823h15.029
			c0,1.331,0.272,2.528,0.818,3.591c0.545,1.063,1.365,1.993,2.46,2.788c2.191,1.574,5.275,2.37,9.268,2.37
			c2.191,0,4.041-0.163,5.566-0.503c1.526-0.325,2.76-0.795,3.701-1.396c0.958-0.601,1.656-1.347,2.094-2.208
			c0.454-0.876,0.666-1.866,0.666-2.986c0-1.542-0.357-2.792-1.087-3.75c-0.73-0.958-1.769-1.737-3.132-2.37
			c-1.363-0.633-3.019-1.217-4.982-1.72c-1.948-0.503-4.156-1.104-6.622-1.802c-1.201-0.325-2.581-0.666-4.123-1.055
			c-1.525-0.374-3.1-0.845-4.674-1.429c-1.59-0.568-3.132-1.25-4.642-2.061c-1.51-0.812-2.856-1.802-4.042-2.97
			c-1.185-1.169-2.142-2.564-2.856-4.171c-0.714-1.59-1.071-3.473-1.071-5.632c0-3.23,0.536-6.135,1.575-8.716
			C450.687,515.322,452.31,513.115,454.469,511.313z"/>
		<path style="fill:#939598;" d="M565.581,515.891l-9.852,9.981c-1.737-2.159-3.944-3.912-6.606-5.259
			c-2.662-1.347-5.648-2.012-8.943-2.012c-2.792,0-5.421,0.535-7.888,1.59c-2.467,1.071-4.626,2.532-6.46,4.398
			c-1.85,1.882-3.295,4.09-4.366,6.638c-1.055,2.564-1.591,5.324-1.591,8.31c0,0.011,0,0.021,0,0.032
			c0.004,2.974,0.539,5.723,1.591,8.277c1.071,2.548,2.516,4.756,4.366,6.639c1.834,1.866,3.993,3.328,6.46,4.398
			c2.467,1.055,5.096,1.591,7.888,1.591c3.295,0,6.281-0.666,8.943-2.013c2.662-1.347,4.87-3.1,6.606-5.259l9.852,9.982
			c-3.36,3.311-7.207,5.86-11.507,7.612c-4.317,1.753-8.943,2.63-13.894,2.63c-3.263,0-6.395-0.389-9.413-1.185
			c-3.003-0.795-5.827-1.931-8.44-3.408c-2.613-1.477-4.983-3.23-7.125-5.275c-2.143-2.045-3.976-4.333-5.518-6.849
			c-1.542-2.516-2.727-5.226-3.571-8.116c-0.844-2.889-1.25-5.891-1.25-9.024c0-0.021,0-0.043,0-0.065
			c0-3.132,0.406-6.135,1.25-9.024c0.845-2.889,2.029-5.6,3.571-8.115c1.542-2.516,3.375-4.804,5.518-6.849
			c2.142-2.045,4.512-3.798,7.125-5.274c2.613-1.478,5.437-2.614,8.44-3.409c3.018-0.795,6.15-1.185,9.413-1.185
			c4.951,0,9.576,0.876,13.894,2.629C558.374,510.031,562.221,512.579,565.581,515.891z"/>
		<path style="fill:#939598;" d="M595.792,572.21c-3.019-0.812-5.827-1.932-8.44-3.393c-2.629-1.46-4.999-3.229-7.142-5.291
			c-2.142-2.062-3.976-4.35-5.518-6.865c-1.525-2.516-2.727-5.227-3.554-8.115c-0.844-2.873-1.266-5.892-1.266-9.041
			c0-3.132,0.422-6.135,1.266-9.024c0.828-2.889,2.029-5.6,3.554-8.115c1.542-2.516,3.376-4.804,5.518-6.849
			c2.143-2.045,4.512-3.798,7.142-5.274c2.613-1.478,5.421-2.614,8.44-3.409c3.002-0.795,6.135-1.185,9.414-1.185
			c3.229,0,6.346,0.389,9.364,1.185c3.003,0.795,5.827,1.932,8.457,3.409c2.629,1.477,5.032,3.229,7.174,5.274
			c2.159,2.045,4.009,4.333,5.551,6.849c1.525,2.516,2.727,5.226,3.554,8.115c0.844,2.889,1.266,5.892,1.266,9.024
			c0,3.149-0.422,6.168-1.266,9.041c-0.828,2.889-2.029,5.6-3.554,8.115c-1.542,2.516-3.392,4.804-5.551,6.865
			c-2.142,2.062-4.544,3.831-7.174,5.291c-2.629,1.461-5.453,2.581-8.457,3.393c-3.018,0.811-6.135,1.217-9.364,1.217
			C601.927,573.427,598.795,573.021,595.792,572.21z M605.206,560.476c2.856,0,5.518-0.536,7.985-1.591
			c2.483-1.071,4.625-2.532,6.459-4.398c1.818-1.883,3.263-4.09,4.334-6.639c1.055-2.564,1.59-5.323,1.59-8.31
			s-0.536-5.746-1.59-8.31c-1.072-2.548-2.517-4.756-4.334-6.638c-1.833-1.867-3.976-3.327-6.459-4.398
			c-2.467-1.055-5.129-1.59-7.985-1.59c-2.808,0-5.438,0.535-7.904,1.59c-2.483,1.071-4.642,2.532-6.476,4.398
			c-1.85,1.882-3.295,4.09-4.366,6.638c-1.056,2.564-1.591,5.324-1.591,8.31s0.535,5.745,1.591,8.31
			c1.071,2.548,2.516,4.756,4.366,6.639c1.834,1.866,3.993,3.328,6.476,4.398C599.769,559.939,602.398,560.476,605.206,560.476z"/>
	</g>
	<path style="fill:#939598;" d="M120.804,613.648v-28.473h6.647v11.388h12.006v-11.388h6.647v28.473h-6.647v-11.388h-12.006v11.388
		H120.804z M171.334,607.086c-0.584,1.385-1.395,2.59-2.427,3.615l0.004,0.003c-0.021,0.021-0.042,0.042-0.063,0.062
		c-1.064,1.051-2.351,1.872-3.845,2.473c-1.493,0.6-3.138,0.901-4.938,0.901c-1.758,0-3.38-0.308-4.859-0.915
		c-1.48-0.608-2.745-1.43-3.81-2.473c-1.057-1.037-1.887-2.259-2.48-3.667c-0.592-1.401-0.893-2.902-0.893-4.495
		c0-1.586,0.293-3.087,0.879-4.488c0.593-1.408,1.415-2.63,2.487-3.681c1.065-1.05,2.337-1.872,3.817-2.48
		c1.479-0.607,3.116-0.914,4.902-0.914c1.787,0,3.423,0.307,4.909,0.914c1.487,0.608,2.767,1.429,3.831,2.48
		c1.065,1.051,1.901,2.273,2.494,3.681c0.237,0.561,0.427,1.137,0.569,1.729c0.213,0.887,0.318,1.807,0.318,2.759
		c0,0.704-0.057,1.389-0.172,2.057h-6.571h-10.695c0.043,0.137,0.091,0.271,0.142,0.402c0.294,0.736,0.7,1.372,1.215,1.901
		c0.514,0.529,1.115,0.943,1.801,1.229c0.686,0.286,1.415,0.429,2.202,0.429c0.793,0,1.536-0.143,2.216-0.429
		c0.686-0.286,1.279-0.693,1.779-1.222c0.077-0.08,0.152-0.162,0.225-0.247h7.116C171.438,606.837,171.387,606.962,171.334,607.086z
		 M164.138,598.253c-0.508-0.529-1.108-0.936-1.795-1.222c-0.678-0.286-1.422-0.429-2.216-0.429c-0.786,0-1.514,0.143-2.201,0.429
		c-0.686,0.286-1.28,0.693-1.787,1.222c-0.442,0.448-0.799,0.974-1.077,1.579h10.143
		C164.929,599.227,164.573,598.701,164.138,598.253z M180.771,601.815v11.64h-6.651v-11.206c0-6.172,5.049-11.221,11.221-11.221
		v6.218C182.827,597.245,180.771,599.301,180.771,601.815z M194.343,586.816c0,1.961-1.589,3.55-3.551,3.55
		c-1.961,0-3.55-1.589-3.55-3.55s1.589-3.55,3.55-3.55C192.754,583.266,194.343,584.855,194.343,586.816z M194.059,613.454h-6.533
		v-21.712h6.533V613.454z M205.131,607.951h2.216v5.503h-3.2c-0.493,0-0.976-0.046-1.445-0.133c-3.669-0.684-6.468-3.921-6.468-7.78
		v-20.56h6.533v6.761h4.581v5.503h-4.581v8.341C202.766,606.887,203.83,607.951,205.131,607.951z M226.932,613.454v-1.132
		c-1.717,1.125-3.657,1.8-5.84,1.817c-1.856,0.014-3.484-0.269-5.009-0.913c-1.437-0.608-2.659-1.43-3.674-2.473
		c-2.111-2.156-3.152-5.102-3.152-8.162c0-4.799,2.739-8.824,7.183-10.649c2.986-1.226,6.823-1.222,9.813,0
		c4.431,1.811,7.211,5.832,7.211,10.649v10.863H226.932z M226.932,603.73c0.575-3.698-1.68-7.128-5.567-7.128
		c-2.365,0-4.323,1.344-5.196,3.538c-0.586,1.472-0.583,3.446,0,4.91c1.621,4.072,6.678,4.587,9.212,1.908
		C226.204,606.111,226.745,604.938,226.932,603.73z M247.191,614.142c-1.857,0.014-3.484-0.269-5.009-0.914
		c-1.437-0.607-2.659-1.43-3.674-2.473c-2.112-2.156-3.152-5.102-3.152-8.162c0-4.799,2.739-8.825,7.183-10.649
		c2.986-1.226,6.823-1.222,9.812,0c0.191,0.077,0.377,0.159,0.561,0.245c4.104,1.912,6.651,5.794,6.651,10.404v8.19
		c0,0.918-0.104,1.812-0.3,2.673c-1.225,5.382-6.065,9.43-11.804,9.43c-5.365,0-9.945-3.539-11.519-8.398l7.157,0
		c0.997,1.329,2.584,2.192,4.363,2.192c2.563,0,4.727-1.792,5.302-4.184C251.112,613.519,249.262,614.127,247.191,614.142z
		 M252.912,604.318c0.048-0.193,0.089-0.388,0.119-0.584c0.153-0.982,0.105-1.946-0.119-2.831c-0.62-2.447-2.594-4.297-5.449-4.297
		c-2.364,0-4.322,1.344-5.195,3.538c-0.586,1.472-0.583,3.446,0,4.91c1.621,4.072,6.678,4.587,9.211,1.908
		C252.17,606.252,252.661,605.314,252.912,604.318z M284.769,607.086c-0.584,1.385-1.395,2.59-2.427,3.615l0.004,0.003
		c-0.021,0.021-0.042,0.042-0.063,0.062c-1.064,1.051-2.351,1.872-3.845,2.473c-1.493,0.6-3.138,0.901-4.938,0.901
		c-1.758,0-3.38-0.308-4.859-0.915c-1.48-0.608-2.745-1.43-3.81-2.473c-1.057-1.037-1.887-2.259-2.48-3.667
		c-0.592-1.401-0.893-2.902-0.893-4.495c0-1.586,0.293-3.087,0.879-4.488c0.593-1.408,1.415-2.63,2.487-3.681
		c1.065-1.05,2.337-1.872,3.817-2.48c1.479-0.607,3.116-0.914,4.902-0.914s3.423,0.307,4.909,0.914
		c1.487,0.608,2.767,1.429,3.831,2.48c1.065,1.051,1.901,2.273,2.494,3.681c0.238,0.561,0.427,1.137,0.569,1.729
		c0.213,0.887,0.318,1.807,0.318,2.759c0,0.704-0.057,1.389-0.172,2.057h-6.571h-10.695c0.043,0.137,0.091,0.271,0.142,0.402
		c0.294,0.736,0.7,1.372,1.215,1.901c0.514,0.529,1.115,0.943,1.801,1.229c0.686,0.286,1.415,0.429,2.202,0.429
		c0.793,0,1.536-0.143,2.216-0.429c0.686-0.286,1.279-0.693,1.779-1.222c0.077-0.08,0.153-0.162,0.225-0.247h7.116
		C284.872,606.837,284.821,606.962,284.769,607.086z M277.572,598.253c-0.507-0.529-1.107-0.936-1.794-1.222
		c-0.678-0.286-1.422-0.429-2.216-0.429c-0.786,0-1.515,0.143-2.201,0.429c-0.686,0.286-1.28,0.693-1.787,1.222
		c-0.442,0.448-0.799,0.974-1.077,1.579h10.143C278.363,599.227,278.008,598.701,277.572,598.253z"/>
	<g>
		<path style="fill:#939598;" d="M318.011,613.454v-1.132c-1.717,1.125-3.657,1.8-5.84,1.817c-1.856,0.014-3.484-0.269-5.009-0.913
			c-1.437-0.608-2.659-1.43-3.674-2.473c-2.111-2.156-3.152-5.102-3.152-8.162c0-4.799,2.739-8.824,7.183-10.649
			c2.986-1.226,6.823-1.222,9.813,0c4.431,1.811,7.211,5.832,7.211,10.649v10.863H318.011z M318.011,603.73
			c0.575-3.698-1.68-7.128-5.567-7.128c-2.365,0-4.323,1.344-5.196,3.538c-0.586,1.472-0.583,3.446,0,4.91
			c1.621,4.072,6.678,4.587,9.212,1.908C317.283,606.111,317.824,604.938,318.011,603.73z"/>
		<path style="fill:#939598;" d="M337.656,591.028c6.171,0,11.221,5.049,11.221,11.221v11.206h-6.651v-11.64
			c0-2.513-2.056-4.569-4.569-4.569c-2.514,0-4.569,2.056-4.569,4.569v11.64h-6.651v-11.206
			C326.436,596.076,331.485,591.028,337.656,591.028z"/>
		<path style="fill:#939598;" d="M374.992,602.573c0,4.817-2.78,8.838-7.212,10.649c-2.989,1.221-6.826,1.226-9.812,0
			c-4.444-1.825-7.183-5.85-7.183-10.649c0-3.06,1.041-6.006,3.152-8.162c1.015-1.044,2.237-1.865,3.674-2.473
			c1.525-0.645,3.152-0.928,5.009-0.914c2.183,0.017,4.123,0.691,5.84,1.817v-1.132v-6.728h6.533v6.728v6.381V602.573z
			 M357.696,600.114c-0.583,1.463-0.586,3.438,0,4.91c0.873,2.194,2.831,3.537,5.195,3.537c3.887,0,6.142-3.43,5.568-7.128
			c-0.187-1.208-0.728-2.381-1.551-3.228C364.374,595.527,359.317,596.042,357.696,600.114z"/>
	</g>
	<path style="fill:#939598;" d="M396.313,613.648h-6.647v-28.473h5.789l13.564,17.024v-17.024h6.618v28.473h-5.739l-13.586-17.06
		V613.648z M435.189,613.454v-1.132c-1.717,1.125-3.657,1.8-5.84,1.817c-1.856,0.014-3.484-0.269-5.009-0.913
		c-1.437-0.608-2.659-1.43-3.674-2.473c-2.111-2.156-3.152-5.102-3.152-8.162c0-4.799,2.739-8.824,7.183-10.649
		c2.986-1.226,6.823-1.222,9.813,0c4.431,1.811,7.211,5.832,7.211,10.649v10.863H435.189z M435.189,603.73
		c0.575-3.698-1.68-7.128-5.567-7.128c-2.365,0-4.323,1.344-5.196,3.538c-0.586,1.472-0.583,3.446,0,4.91
		c1.621,4.072,6.678,4.587,9.212,1.908C434.461,606.111,435.002,604.938,435.189,603.73z M452.511,607.951h2.216v5.503h-3.2
		c-0.493,0-0.976-0.046-1.445-0.133c-3.669-0.684-6.468-3.921-6.468-7.78v-20.56h6.533v6.761h4.581v5.503h-4.581v8.341
		C450.146,606.887,451.211,607.951,452.511,607.951z M456.639,591.742h6.651v11.64c0,2.513,2.056,4.569,4.569,4.569
		c2.514,0,4.569-2.056,4.569-4.569v-11.64h6.651v11.206c0,6.172-5.049,11.221-11.221,11.221s-11.221-5.049-11.221-11.221V591.742z
		 M487.64,601.815v11.64h-6.651v-11.206c0-6.172,5.049-11.221,11.221-11.221v6.218C489.695,597.245,487.64,599.301,487.64,601.815z
		 M517.424,607.086c-0.584,1.385-1.395,2.59-2.427,3.615l0.003,0.003c-0.021,0.021-0.042,0.042-0.063,0.062
		c-1.064,1.051-2.351,1.872-3.845,2.473c-1.493,0.6-3.138,0.901-4.938,0.901c-1.758,0-3.38-0.308-4.859-0.915
		c-1.48-0.608-2.745-1.43-3.81-2.473c-1.057-1.037-1.887-2.259-2.48-3.667c-0.592-1.401-0.893-2.902-0.893-4.495
		c0-1.586,0.293-3.087,0.879-4.488c0.593-1.408,1.415-2.63,2.487-3.681c1.065-1.05,2.337-1.872,3.817-2.48
		c1.479-0.607,3.116-0.914,4.902-0.914s3.423,0.307,4.909,0.914c1.487,0.608,2.767,1.429,3.831,2.48
		c1.065,1.051,1.901,2.273,2.494,3.681c0.237,0.561,0.427,1.137,0.569,1.729c0.213,0.887,0.318,1.807,0.318,2.759
		c0,0.704-0.057,1.389-0.172,2.057h-6.571h-10.695c0.043,0.137,0.091,0.271,0.142,0.402c0.294,0.736,0.7,1.372,1.215,1.901
		c0.514,0.529,1.115,0.943,1.801,1.229c0.686,0.286,1.415,0.429,2.202,0.429c0.793,0,1.536-0.143,2.216-0.429
		c0.686-0.286,1.279-0.693,1.779-1.222c0.077-0.08,0.152-0.162,0.225-0.247h7.116C517.528,606.837,517.477,606.962,517.424,607.086z
		 M510.228,598.253c-0.508-0.529-1.108-0.936-1.795-1.222c-0.678-0.286-1.422-0.429-2.216-0.429c-0.786,0-1.514,0.143-2.201,0.429
		s-1.28,0.693-1.787,1.222c-0.442,0.448-0.799,0.974-1.077,1.579h10.143C511.019,599.227,510.663,598.701,510.228,598.253z
		 M532.991,590.878v-5.703h22.512v5.703h-7.955v22.77h-6.603v-22.77H532.991z M564.041,601.815v11.64h-6.651v-11.206
		c0-6.172,5.049-11.221,11.221-11.221v6.218C566.096,597.245,564.041,599.301,564.041,601.815z M588.185,613.454v-1.132
		c-1.717,1.125-3.657,1.8-5.84,1.817c-1.856,0.014-3.484-0.269-5.009-0.913c-1.437-0.608-2.659-1.43-3.674-2.473
		c-2.111-2.156-3.152-5.102-3.152-8.162c0-4.799,2.739-8.824,7.183-10.649c2.986-1.226,6.823-1.222,9.813,0
		c4.431,1.811,7.211,5.832,7.211,10.649v10.863H588.185z M588.185,603.73c0.575-3.698-1.68-7.128-5.567-7.128
		c-2.365,0-4.323,1.344-5.196,3.538c-0.586,1.472-0.583,3.446,0,4.91c1.621,4.072,6.678,4.587,9.212,1.908
		C587.457,606.111,587.998,604.938,588.185,603.73z M603.711,586.816c0,1.961-1.589,3.55-3.551,3.55c-1.961,0-3.55-1.589-3.55-3.55
		s1.589-3.55,3.55-3.55C602.122,583.266,603.711,584.855,603.711,586.816z M603.427,613.454h-6.533v-21.712h6.533V613.454z
		 M612.133,584.981v20.605c0,1.301,1.065,2.365,2.366,2.365h2.216v5.503h-3.2c-0.494,0-0.976-0.046-1.446-0.133
		c-3.668-0.684-6.468-3.921-6.468-7.78v-20.56H612.133z M624.987,606.665c0.058,0.658,0.401,1.186,1.015,1.594
		c0.622,0.4,1.408,0.608,2.359,0.608c1.229,0,2.115-0.164,2.659-0.486c0.543-0.315,0.815-0.772,0.815-1.358
		c0-0.35-0.121-0.629-0.372-0.851c-0.258-0.214-0.621-0.407-1.115-0.572c-0.485-0.171-1.086-0.321-1.801-0.464
		c-0.707-0.136-1.529-0.314-2.465-0.522c-0.422-0.086-0.88-0.186-1.387-0.3c-0.5-0.122-1-0.279-1.494-0.486
		c-0.493-0.2-0.971-0.45-1.436-0.751c-0.457-0.3-0.865-0.672-1.222-1.122c-0.357-0.443-0.642-0.979-0.85-1.601
		c-0.207-0.622-0.315-1.351-0.315-2.187c0-1.108,0.2-2.101,0.6-2.988c0.393-0.893,1.001-1.643,1.808-2.251
		c0.808-0.608,1.83-1.079,3.059-1.408c1.23-0.329,2.673-0.493,4.331-0.493c1.358,0,2.572,0.171,3.659,0.522
		c1.079,0.35,1.994,0.85,2.752,1.494c0.751,0.643,1.329,1.415,1.723,2.301c0.4,0.894,0.6,1.865,0.6,2.924l-6.49-0.022
		c-0.043-0.529-0.293-0.987-0.758-1.365c-0.457-0.386-1.107-0.579-1.944-0.579c-0.993,0-1.722,0.178-2.201,0.543
		c-0.472,0.364-0.7,0.786-0.686,1.258c0,0.279,0.078,0.514,0.236,0.701c0.164,0.185,0.415,0.35,0.758,0.479
		c0.344,0.136,0.78,0.25,1.309,0.35c0.528,0.1,1.164,0.193,1.901,0.293c1.15,0.193,2.237,0.429,3.266,0.701
		c1.036,0.272,1.944,0.65,2.738,1.129c0.786,0.486,1.407,1.108,1.872,1.887c0.457,0.772,0.693,1.751,0.693,2.938
		c0,1.3-0.258,2.43-0.78,3.387c-0.514,0.951-1.236,1.744-2.165,2.373c-0.93,0.629-2.037,1.093-3.317,1.394
		c-1.287,0.3-2.695,0.45-4.231,0.45c-1.672,0-3.109-0.221-4.302-0.672c-1.193-0.443-2.173-1.029-2.945-1.744
		c-0.765-0.722-1.329-1.53-1.694-2.43c-0.364-0.9-0.543-1.801-0.543-2.694L624.987,606.665z"/>
</g>
<g>
</g>
<g>
</g>
<g>
</g>
<g>
</g>
<g>
</g>
<g>
</g>
<g>
</g>
<g>
</g>
</svg>
